<?xml version="1.0" encoding="UTF-8"?>
<svg xmlns="http://www.w3.org/2000/svg" xmlns:xlink="http://www.w3.org/1999/xlink" width="120pt" height="137pt" viewBox="0 0 120 137" version="1.1">
<g id="surface1">
<path style=" stroke:none;fill-rule:nonzero;fill:rgb(10.588235%,45.098039%,72.941176%);fill-opacity:1;" d="M 10.046875 122.648438 L 0 0.230469 L 120 0.476562 L 109.375 122.648438 L 60.453125 136.769531 Z M 10.046875 122.648438 "/>
<path style=" stroke:none;fill-rule:nonzero;fill:rgb(10.980392%,53.333333%,78.039216%);fill-opacity:1;" d="M 60.453125 124.945312 L 60.453125 11.890625 L 109.871094 12.054688 L 101.058594 113.207031 Z M 60.453125 124.945312 "/>
<path style=" stroke:none;fill-rule:nonzero;fill:rgb(100%,100%,100%);fill-opacity:1;" d="M 97.597656 26.339844 L 21.578125 26.339844 L 23.636719 41.117188 L 59.710938 41.117188 L 24.214844 56.308594 L 26.273438 70.59375 L 78.574219 70.59375 L 76.679688 90.542969 L 58.96875 93.992188 L 42.910156 89.886719 L 41.675781 78.558594 L 26.933594 78.558594 L 28.910156 102.121094 L 60.535156 110.90625 L 90.84375 101.300781 L 94.714844 55.238281 L 62.675781 55.238281 L 97.597656 40.789062 Z M 97.597656 26.339844 "/>
</g>
</svg>
