<?xml version="1.0" encoding="UTF-8"?>
<svg xmlns="http://www.w3.org/2000/svg" xmlns:xlink="http://www.w3.org/1999/xlink" width="120pt" height="120pt" viewBox="0 0 120 120" version="1.1">
<g id="surface1">
<path style=" stroke:none;fill-rule:nonzero;fill:rgb(87.058824%,29.803922%,21.176471%);fill-opacity:1;" d="M 117.738281 54.652344 L 65.34375 2.261719 C 62.328125 -0.753906 57.433594 -0.753906 54.414062 2.261719 L 43.535156 13.144531 L 57.335938 26.945312 C 60.542969 25.859375 64.222656 26.585938 66.777344 29.144531 C 69.347656 31.71875 70.070312 35.425781 68.960938 38.644531 L 82.261719 51.945312 C 85.476562 50.835938 89.191406 51.554688 91.761719 54.128906 C 95.351562 57.71875 95.351562 63.539062 91.761719 67.132812 C 88.167969 70.722656 82.347656 70.722656 78.753906 67.132812 C 76.050781 64.425781 75.382812 60.457031 76.753906 57.128906 L 64.347656 44.726562 L 64.347656 77.367188 C 65.246094 77.8125 66.066406 78.398438 66.777344 79.105469 C 70.371094 82.699219 70.371094 88.519531 66.777344 92.113281 C 63.1875 95.707031 57.363281 95.707031 53.777344 92.113281 C 50.183594 88.519531 50.183594 82.699219 53.777344 79.109375 C 54.636719 78.246094 55.660156 77.5625 56.785156 77.101562 L 56.785156 44.15625 C 55.65625 43.695312 54.632812 43.011719 53.777344 42.148438 C 51.054688 39.429688 50.398438 35.4375 51.792969 32.09375 L 38.1875 18.488281 L 2.265625 54.410156 C -0.753906 57.429688 -0.753906 62.324219 2.265625 65.34375 L 54.65625 117.734375 C 57.675781 120.753906 62.566406 120.753906 65.585938 117.734375 L 117.738281 65.585938 C 120.753906 62.566406 120.753906 57.671875 117.738281 54.652344 "/>
</g>
</svg>
