<?xml version="1.0" encoding="UTF-8"?>
<svg xmlns="http://www.w3.org/2000/svg" xmlns:xlink="http://www.w3.org/1999/xlink" width="120pt" height="120pt" viewBox="0 0 120 120" version="1.1">
<g id="surface1">
<rect x="0" y="0" width="120" height="120" style="fill:rgb(94.117647%,85.882353%,30.980392%);fill-opacity:1;stroke:none;"/>
<path style=" stroke:none;fill-rule:nonzero;fill:rgb(19.607843%,20%,18.823529%);fill-opacity:1;" d="M 110.179688 91.378906 C 109.300781 85.90625 105.730469 81.308594 95.15625 77.019531 C 91.484375 75.332031 87.386719 74.121094 86.167969 71.339844 C 85.734375 69.71875 85.675781 68.804688 85.949219 67.824219 C 86.738281 64.644531 90.535156 63.648438 93.546875 64.5625 C 95.488281 65.214844 97.324219 66.707031 98.429688 69.089844 C 103.609375 65.738281 103.597656 65.761719 107.214844 63.457031 C 105.890625 61.402344 105.183594 60.457031 104.316406 59.578125 C 101.203125 56.097656 96.957031 54.308594 90.171875 54.445312 C 88.996094 54.59375 87.808594 54.753906 86.636719 54.902344 C 83.246094 55.757812 80.019531 57.535156 78.125 59.921875 C 72.445312 66.363281 74.066406 77.644531 80.976562 82.289062 C 87.785156 87.398438 97.789062 88.5625 99.070312 93.34375 C 100.3125 99.195312 94.769531 101.085938 89.257812 100.414062 C 85.199219 99.570312 82.9375 97.503906 80.5 93.753906 C 76.003906 96.355469 76.003906 96.355469 71.382812 99.011719 C 72.480469 101.40625 73.632812 102.492188 75.46875 104.566406 C 84.160156 113.382812 105.914062 112.949219 109.8125 99.605469 C 109.972656 99.148438 111.023438 96.089844 110.179688 91.378906 Z M 65.234375 55.152344 L 54.011719 55.152344 C 54.011719 64.847656 53.964844 74.476562 53.964844 84.171875 C 53.964844 90.34375 54.285156 96 53.28125 97.734375 C 51.640625 101.144531 47.382812 100.722656 45.445312 100.0625 C 43.472656 99.089844 42.46875 97.710938 41.304688 95.761719 C 40.984375 95.203125 40.746094 94.769531 40.664062 94.734375 C 37.621094 96.59375 34.585938 98.464844 31.539062 100.324219 C 33.058594 103.4375 35.292969 106.140625 38.15625 107.898438 C 42.433594 110.464844 48.183594 111.25 54.195312 109.871094 C 58.105469 108.730469 61.484375 106.367188 63.25 102.777344 C 65.804688 98.066406 65.257812 92.359375 65.234375 86.054688 C 65.292969 75.765625 65.234375 65.476562 65.234375 55.152344 Z M 65.234375 55.152344 "/>
</g>
</svg>
