<?xml version="1.0" encoding="UTF-8"?>
<svg xmlns="http://www.w3.org/2000/svg" xmlns:xlink="http://www.w3.org/1999/xlink" width="120pt" height="120pt" viewBox="0 0 120 120" version="1.1">
<g id="surface1">
<path style=" stroke:none;fill-rule:evenodd;fill:rgb(100%,100%,100%);fill-opacity:1;" d="M 69.058594 32.28125 L 68.941406 0 L 50.941406 0 L 51.058594 32.28125 L 60.058594 44.640625 Z M 51.058594 87.601562 L 51.058594 120 L 69.058594 120 L 69.058594 87.601562 L 60.058594 75.238281 Z M 51.058594 87.601562 "/>
<path style=" stroke:none;fill-rule:evenodd;fill:rgb(0%,94.901961%,90.196078%);fill-opacity:1;" d="M 69.058594 87.601562 L 88.019531 113.761719 L 102.539062 103.199219 L 83.578125 77.039062 L 69.058594 72.359375 Z M 51.058594 32.28125 L 31.980469 6.121094 L 17.460938 16.679688 L 36.421875 42.839844 L 51.058594 47.519531 Z M 51.058594 32.28125 "/>
<path style=" stroke:none;fill-rule:evenodd;fill:rgb(0%,72.54902%,94.509804%);fill-opacity:1;" d="M 36.421875 42.839844 L 5.699219 32.878906 L 0.179688 49.921875 L 30.898438 60 L 45.421875 55.199219 Z M 74.578125 64.679688 L 83.578125 77.039062 L 114.300781 87 L 119.820312 69.960938 L 89.101562 60 Z M 74.578125 64.679688 "/>
<path style=" stroke:none;fill-rule:evenodd;fill:rgb(83.921569%,22.745098%,100%);fill-opacity:1;" d="M 89.101562 60 L 119.820312 49.921875 L 114.300781 32.878906 L 83.578125 42.839844 L 74.578125 55.199219 Z M 30.898438 60 L 0.179688 69.960938 L 5.699219 87 L 36.421875 77.039062 L 45.421875 64.679688 Z M 30.898438 60 "/>
<path style=" stroke:none;fill-rule:evenodd;fill:rgb(98.431373%,0.392157%,35.686275%);fill-opacity:1;" d="M 36.421875 77.039062 L 17.460938 103.199219 L 31.980469 113.761719 L 51.058594 87.601562 L 51.058594 72.359375 Z M 83.578125 42.839844 L 102.539062 16.679688 L 88.019531 6.121094 L 69.058594 32.28125 L 69.058594 47.519531 Z M 83.578125 42.839844 "/>
</g>
</svg>
