<?xml version="1.0" encoding="UTF-8"?>
<svg xmlns="http://www.w3.org/2000/svg" xmlns:xlink="http://www.w3.org/1999/xlink" width="120pt" height="132pt" viewBox="0 0 120 132" version="1.1">
<g id="surface1">
<path style=" stroke:none;fill-rule:nonzero;fill:rgb(54.901961%,78.431373%,29.411765%);fill-opacity:1;" d="M 54.597656 1.675781 C 57.863281 -0.191406 62.113281 -0.199219 65.371094 1.675781 C 81.773438 10.933594 98.175781 20.171875 114.574219 29.433594 C 117.660156 31.167969 119.722656 34.597656 119.691406 38.148438 L 119.691406 93.835938 C 119.714844 97.53125 117.445312 101.042969 114.191406 102.738281 C 97.847656 111.941406 81.507812 121.160156 65.164062 130.363281 C 61.835938 132.265625 57.5 132.117188 54.273438 130.0625 C 49.371094 127.222656 44.464844 124.398438 39.5625 121.566406 C 38.5625 120.96875 37.433594 120.492188 36.726562 119.523438 C 37.351562 118.683594 38.46875 118.578125 39.375 118.210938 C 41.421875 117.558594 43.300781 116.519531 45.179688 115.503906 C 45.65625 115.179688 46.234375 115.304688 46.691406 115.597656 C 50.882812 117.996094 55.035156 120.464844 59.238281 122.84375 C 60.136719 123.359375 61.046875 122.671875 61.8125 122.246094 C 77.851562 113.191406 93.914062 104.171875 109.953125 95.113281 C 110.546875 94.828125 110.875 94.195312 110.824219 93.546875 C 110.835938 75.175781 110.828125 56.804688 110.832031 38.433594 C 110.898438 37.695312 110.472656 37.015625 109.804688 36.714844 C 93.515625 27.550781 77.234375 18.375 60.945312 9.210938 C 60.367188 8.8125 59.605469 8.8125 59.027344 9.207031 C 42.742188 18.375 26.460938 27.5625 10.175781 36.722656 C 9.511719 37.027344 9.0625 37.691406 9.140625 38.433594 C 9.144531 56.804688 9.140625 75.175781 9.140625 93.550781 C 9.085938 94.199219 9.4375 94.816406 10.027344 95.09375 C 14.375 97.558594 18.726562 100 23.074219 102.453125 C 25.523438 103.773438 28.535156 104.554688 31.234375 103.546875 C 33.613281 102.691406 35.285156 100.265625 35.238281 97.738281 C 35.261719 79.476562 35.226562 61.210938 35.257812 42.949219 C 35.195312 42.136719 35.96875 41.46875 36.757812 41.542969 C 38.84375 41.53125 40.933594 41.515625 43.023438 41.550781 C 43.894531 41.53125 44.496094 42.402344 44.386719 43.21875 C 44.378906 61.597656 44.410156 79.976562 44.375 98.355469 C 44.378906 103.253906 42.363281 108.585938 37.828125 110.980469 C 32.238281 113.871094 25.332031 113.257812 19.8125 110.488281 C 15.035156 108.105469 10.472656 105.292969 5.777344 102.738281 C 2.515625 101.054688 0.261719 97.527344 0.28125 93.835938 L 0.28125 38.148438 C 0.25 34.523438 2.394531 31.035156 5.574219 29.324219 C 21.917969 20.113281 38.257812 10.890625 54.597656 1.675781 Z M 54.597656 1.675781 "/>
<path style=" stroke:none;fill-rule:nonzero;fill:rgb(54.901961%,78.431373%,29.411765%);fill-opacity:1;" d="M 68.859375 40.25 C 75.984375 39.792969 83.617188 39.980469 90.03125 43.488281 C 94.996094 46.175781 97.75 51.816406 97.839844 57.324219 C 97.699219 58.070312 96.921875 58.480469 96.210938 58.429688 C 94.144531 58.425781 92.074219 58.457031 90.007812 58.414062 C 89.128906 58.449219 88.617188 57.640625 88.507812 56.867188 C 87.914062 54.230469 86.476562 51.617188 83.988281 50.34375 C 80.175781 48.4375 75.753906 48.535156 71.59375 48.574219 C 68.558594 48.734375 65.292969 48.996094 62.71875 50.78125 C 60.746094 52.132812 60.144531 54.859375 60.851562 57.054688 C 61.515625 58.632812 63.335938 59.140625 64.828125 59.609375 C 73.417969 61.855469 82.523438 61.628906 90.949219 64.582031 C 94.4375 65.789062 97.847656 68.128906 99.042969 71.777344 C 100.605469 76.664062 99.921875 82.511719 96.4375 86.4375 C 93.613281 89.664062 89.5 91.425781 85.394531 92.378906 C 79.9375 93.59375 74.273438 93.625 68.730469 93.085938 C 63.519531 92.492188 58.09375 91.125 54.070312 87.578125 C 50.628906 84.59375 48.949219 79.945312 49.117188 75.457031 C 49.15625 74.699219 49.910156 74.171875 50.636719 74.230469 C 52.71875 74.214844 54.804688 74.210938 56.886719 74.234375 C 57.71875 74.175781 58.335938 74.894531 58.378906 75.675781 C 58.761719 78.1875 59.707031 80.824219 61.898438 82.316406 C 66.132812 85.042969 71.445312 84.855469 76.289062 84.933594 C 80.304688 84.753906 84.8125 84.699219 88.089844 82.050781 C 89.820312 80.539062 90.332031 78.007812 89.863281 75.832031 C 89.359375 73.996094 87.433594 73.140625 85.78125 72.578125 C 77.300781 69.898438 68.097656 70.871094 59.699219 67.84375 C 56.289062 66.636719 52.992188 64.363281 51.683594 60.863281 C 49.855469 55.914062 50.691406 49.789062 54.539062 45.996094 C 58.292969 42.222656 63.707031 40.769531 68.859375 40.25 Z M 68.859375 40.25 "/>
</g>
</svg>
