<?xml version="1.0" encoding="UTF-8"?>
<svg xmlns="http://www.w3.org/2000/svg" xmlns:xlink="http://www.w3.org/1999/xlink" width="119pt" height="117pt" viewBox="0 0 119 117" version="1.1">
<defs>
<radialGradient id="radial0" gradientUnits="userSpaceOnUse" cx="-183.69" cy="328.972" fx="-183.69" fy="328.972" r="0.76" gradientTransform="matrix(109.083387,0,0,106.478219,20078.412335,-34999.367875)">
<stop offset="0" style="stop-color:rgb(20.392157%,21.176471%,30.588235%);stop-opacity:0.980392;"/>
<stop offset="1" style="stop-color:rgb(4.705882%,3.137255%,14.117647%);stop-opacity:1;"/>
</radialGradient>
</defs>
<g id="surface1">
<path style=" stroke:none;fill-rule:nonzero;fill:url(#radial0);" d="M 4.957031 5.011719 L 114.042969 5.011719 L 114.042969 111.988281 L 4.957031 111.988281 Z M 4.957031 5.011719 "/>
<path style=" stroke:none;fill-rule:nonzero;fill:rgb(19.215686%,77.254902%,94.117647%);fill-opacity:1;" d="M 4.957031 5.011719 L 114.042969 5.011719 L 114.042969 111.988281 L 4.957031 111.988281 Z M 0 116.988281 L 119 116.988281 L 119 0.0117188 L 0 0.0117188 Z M 80.226562 48.003906 C 76.308594 48.003906 74.96875 50 74.96875 51.652344 C 74.96875 53.449219 75.863281 54.699219 81.117188 57.449219 C 88.902344 61.25 91.332031 64.898438 91.332031 70.246094 C 91.332031 78.246094 85.285156 82.546875 77.101562 82.546875 C 72.789062 82.546875 69.070312 81.644531 66.9375 80.394531 C 66.589844 80.246094 66.539062 79.996094 66.539062 79.59375 L 66.539062 72.246094 C 66.539062 71.746094 66.789062 71.597656 67.136719 71.847656 C 70.257812 73.898438 73.828125 74.796875 77.101562 74.796875 C 81.019531 74.796875 82.65625 73.148438 82.65625 70.898438 C 82.65625 69.097656 81.515625 67.5 76.507812 64.898438 C 69.464844 61.5 66.539062 58.050781 66.539062 52.300781 C 66.539062 45.851562 71.550781 40.503906 80.226562 40.503906 C 84.488281 40.503906 87.464844 41.152344 89.101562 41.902344 C 89.496094 42.152344 89.597656 42.554688 89.597656 42.902344 L 89.597656 49.75 C 89.597656 50.152344 89.347656 50.402344 88.851562 50.25 C 86.671875 48.851562 83.449219 48.003906 80.226562 48.003906 Z M 37.585938 53.949219 C 38.722656 54.050781 39.617188 54.050781 41.601562 54.050781 C 47.402344 54.050781 52.855469 52 52.855469 44.054688 C 52.855469 37.703125 48.9375 34.503906 42.34375 34.503906 C 40.359375 34.503906 38.476562 34.605469 37.585938 34.65625 Z M 28.757812 27.40625 C 28.757812 27.054688 29.453125 26.804688 29.847656 26.804688 C 33.023438 26.65625 37.734375 26.554688 42.640625 26.554688 C 56.375 26.554688 61.730469 34.15625 61.730469 43.851562 C 61.730469 56.550781 52.609375 62 41.402344 62 C 39.519531 62 38.875 61.898438 37.535156 61.898438 L 37.535156 81.09375 C 37.535156 81.496094 37.386719 81.695312 36.941406 81.695312 L 29.351562 81.695312 C 28.957031 81.695312 28.757812 81.546875 28.757812 81.09375 Z M 28.757812 27.40625 "/>
</g>
</svg>
