<?xml version="1.0" encoding="UTF-8"?>
<svg xmlns="http://www.w3.org/2000/svg" xmlns:xlink="http://www.w3.org/1999/xlink" width="120pt" height="63pt" viewBox="0 0 120 63" version="1.1">
<g id="surface1">
<path style=" stroke:none;fill-rule:evenodd;fill:rgb(53.72549%,57.647059%,74.509804%);fill-opacity:1;" d="M 120 31.316406 C 120 14.019531 93.136719 0 60 0 C 26.863281 0 0 14.019531 0 31.316406 C 0 48.613281 26.863281 62.632812 60 62.632812 C 93.136719 62.632812 120 48.613281 120 31.316406 Z M 120 31.316406 "/>
<path style=" stroke:none;fill-rule:evenodd;fill:rgb(13.72549%,14.509804%,19.215686%);fill-opacity:1;" d="M 16.847656 49.859375 L 23.425781 16.480469 L 38.628906 16.480469 C 45.203125 16.894531 48.492188 20.191406 48.492188 25.960938 C 48.492188 35.847656 40.683594 41.617188 33.699219 41.207031 L 26.300781 41.207031 L 24.65625 49.859375 Z M 27.945312 35.023438 L 30 22.664062 L 35.34375 22.664062 C 38.21875 22.664062 40.273438 23.898438 40.273438 26.371094 C 39.863281 33.375 36.574219 34.613281 32.875 35.023438 Z M 46.964844 41.207031 L 53.539062 7.828125 L 61.347656 7.828125 L 59.703125 16.480469 L 67.101562 16.480469 C 73.675781 16.894531 76.144531 20.191406 75.320312 24.3125 L 72.445312 41.207031 L 64.226562 41.207031 L 67.101562 25.960938 C 67.511719 23.898438 67.511719 22.664062 64.636719 22.664062 L 58.472656 22.664062 L 54.773438 41.207031 Z M 71.917969 49.859375 L 78.492188 16.480469 L 93.699219 16.480469 C 100.273438 16.894531 103.5625 20.191406 103.5625 25.960938 C 103.5625 35.847656 95.753906 41.617188 88.765625 41.207031 L 81.371094 41.207031 L 79.726562 49.859375 Z M 83.011719 35.023438 L 85.066406 22.664062 L 90.410156 22.664062 C 93.289062 22.664062 95.34375 23.898438 95.34375 26.371094 C 94.933594 33.375 91.644531 34.613281 87.945312 35.023438 Z M 83.011719 35.023438 "/>
</g>
</svg>
