<?xml version="1.0" encoding="UTF-8"?>
<svg xmlns="http://www.w3.org/2000/svg" xmlns:xlink="http://www.w3.org/1999/xlink" width="120pt" height="136pt" viewBox="0 0 120 136" version="1.1">
<g id="surface1">
<path style=" stroke:none;fill-rule:nonzero;fill:rgb(38.039216%,85.490196%,98.431373%);fill-opacity:1;" d="M 120 68.011719 C 120 60.105469 110.042969 52.613281 94.78125 47.964844 C 98.304688 32.492188 96.738281 20.183594 89.839844 16.242188 C 88.25 15.316406 86.390625 14.878906 84.363281 14.878906 L 84.363281 20.304688 C 85.488281 20.304688 86.390625 20.523438 87.152344 20.9375 C 90.476562 22.835938 91.921875 30.058594 90.796875 39.355469 C 90.527344 41.640625 90.085938 44.050781 89.546875 46.507812 C 84.753906 45.339844 79.519531 44.4375 74.015625 43.855469 C 70.714844 39.355469 67.289062 35.265625 63.839844 31.691406 C 71.8125 24.320312 79.296875 20.28125 84.386719 20.28125 L 84.386719 14.855469 C 77.660156 14.855469 68.855469 19.625 59.949219 27.894531 C 51.046875 19.671875 42.242188 14.953125 35.515625 14.953125 L 35.515625 20.378906 C 40.578125 20.378906 48.089844 24.390625 56.0625 31.714844 C 52.636719 35.289062 49.214844 39.355469 45.960938 43.855469 C 40.433594 44.4375 35.199219 45.339844 30.402344 46.53125 C 29.839844 44.097656 29.425781 41.738281 29.132812 39.476562 C 27.980469 30.183594 29.402344 22.957031 32.703125 21.035156 C 33.4375 20.597656 34.390625 20.402344 35.515625 20.402344 L 35.515625 14.976562 C 33.460938 14.976562 31.601562 15.414062 29.988281 16.339844 C 23.113281 20.28125 21.574219 32.566406 25.121094 47.988281 C 9.90625 52.660156 0 60.128906 0 68.011719 C 0 75.917969 9.957031 83.410156 25.21875 88.058594 C 21.695312 103.53125 23.261719 115.839844 30.160156 119.78125 C 31.75 120.707031 33.609375 121.144531 35.664062 121.144531 C 42.390625 121.144531 51.195312 116.375 60.097656 108.105469 C 69 116.328125 77.808594 121.046875 84.535156 121.046875 C 86.585938 121.046875 88.445312 120.609375 90.0625 119.683594 C 96.933594 115.742188 98.476562 103.457031 94.929688 88.035156 C 110.09375 83.386719 120 75.894531 120 68.011719 Z M 88.152344 51.785156 C 87.25 54.921875 86.125 58.160156 84.851562 61.394531 C 83.847656 59.449219 82.796875 57.503906 81.648438 55.554688 C 80.523438 53.609375 79.324219 51.710938 78.125 49.863281 C 81.597656 50.375 84.949219 51.007812 88.152344 51.785156 Z M 76.949219 77.695312 C 75.042969 80.980469 73.085938 84.09375 71.054688 86.988281 C 67.410156 87.304688 63.71875 87.476562 60 87.476562 C 56.304688 87.476562 52.613281 87.304688 48.992188 87.011719 C 46.964844 84.117188 44.980469 81.027344 43.074219 77.769531 C 41.214844 74.582031 39.527344 71.34375 37.984375 68.085938 C 39.503906 64.824219 41.214844 61.566406 43.050781 58.378906 C 44.957031 55.09375 46.914062 51.980469 48.945312 49.085938 C 52.589844 48.769531 56.28125 48.597656 60 48.597656 C 63.695312 48.597656 67.386719 48.769531 71.007812 49.0625 C 73.035156 51.957031 75.019531 55.046875 76.925781 58.304688 C 78.785156 61.492188 80.472656 64.726562 82.015625 67.988281 C 80.472656 71.246094 78.785156 74.507812 76.949219 77.695312 Z M 84.851562 74.53125 C 86.171875 77.792969 87.296875 81.050781 88.226562 84.214844 C 85.023438 84.992188 81.648438 85.648438 78.148438 86.160156 C 79.347656 84.289062 80.546875 82.367188 81.671875 80.394531 C 82.796875 78.449219 83.847656 76.476562 84.851562 74.53125 Z M 60.050781 100.488281 C 57.773438 98.15625 55.5 95.550781 53.25 92.707031 C 55.449219 92.800781 57.699219 92.875 59.976562 92.875 C 62.273438 92.875 64.550781 92.828125 66.773438 92.707031 C 64.574219 95.550781 62.300781 98.15625 60.050781 100.488281 Z M 41.851562 86.160156 C 38.378906 85.648438 35.027344 85.015625 31.820312 84.238281 C 32.726562 81.101562 33.851562 77.863281 35.125 74.628906 C 36.128906 76.574219 37.179688 78.523438 38.328125 80.46875 C 39.476562 82.414062 40.652344 84.3125 41.851562 86.160156 Z M 59.925781 35.535156 C 62.203125 37.871094 64.476562 40.472656 66.726562 43.320312 C 64.523438 43.222656 62.273438 43.148438 60 43.148438 C 57.699219 43.148438 55.425781 43.199219 53.199219 43.320312 C 55.402344 40.472656 57.675781 37.871094 59.925781 35.535156 Z M 41.828125 49.863281 C 40.628906 51.738281 39.429688 53.660156 38.304688 55.628906 C 37.179688 57.574219 36.128906 59.523438 35.125 61.46875 C 33.804688 58.207031 32.679688 54.949219 31.75 51.785156 C 34.953125 51.03125 38.328125 50.375 41.828125 49.863281 Z M 19.691406 80.320312 C 11.03125 76.648438 5.429688 71.832031 5.429688 68.011719 C 5.429688 64.191406 11.03125 59.351562 19.691406 55.703125 C 21.792969 54.800781 24.09375 54 26.464844 53.246094 C 27.859375 58.011719 29.695312 62.976562 31.96875 68.0625 C 29.71875 73.121094 27.910156 78.058594 26.539062 82.804688 C 24.117188 82.050781 21.816406 81.222656 19.691406 80.320312 Z M 32.847656 115.085938 C 29.523438 113.1875 28.078125 105.964844 29.203125 96.671875 C 29.472656 94.382812 29.914062 91.976562 30.453125 89.519531 C 35.246094 90.6875 40.480469 91.585938 45.984375 92.171875 C 49.285156 96.671875 52.710938 100.757812 56.160156 104.335938 C 48.1875 111.707031 40.703125 115.742188 35.613281 115.742188 C 34.511719 115.71875 33.582031 115.5 32.847656 115.085938 Z M 90.867188 96.550781 C 92.019531 105.84375 90.597656 113.066406 87.296875 114.988281 C 86.5625 115.425781 85.609375 115.621094 84.484375 115.621094 C 79.421875 115.621094 71.910156 111.609375 63.9375 104.285156 C 67.363281 100.710938 70.785156 96.644531 74.039062 92.144531 C 79.566406 91.5625 84.800781 90.660156 89.597656 89.46875 C 90.160156 91.925781 90.597656 94.285156 90.867188 96.550781 Z M 100.285156 80.320312 C 98.183594 81.222656 95.882812 82.023438 93.511719 82.78125 C 92.117188 78.011719 90.28125 73.046875 88.007812 67.964844 C 90.257812 62.902344 92.066406 57.964844 93.4375 53.21875 C 95.859375 53.976562 98.15625 54.800781 100.308594 55.703125 C 108.96875 59.375 114.570312 64.191406 114.570312 68.011719 C 114.546875 71.832031 108.945312 76.671875 100.285156 80.320312 Z M 100.285156 80.320312 "/>
<path style=" stroke:none;fill-rule:nonzero;fill:rgb(38.039216%,85.490196%,98.431373%);fill-opacity:1;" d="M 71.152344 68.011719 C 71.152344 74.152344 66.148438 79.128906 59.976562 79.128906 C 53.800781 79.128906 48.796875 74.152344 48.796875 68.011719 C 48.796875 61.871094 53.800781 56.894531 59.976562 56.894531 C 66.148438 56.894531 71.152344 61.871094 71.152344 68.011719 Z M 71.152344 68.011719 "/>
</g>
</svg>
