<?xml version="1.0" encoding="UTF-8"?>
<svg xmlns="http://www.w3.org/2000/svg" xmlns:xlink="http://www.w3.org/1999/xlink" width="120pt" height="90pt" viewBox="0 0 120 90" version="1.1">
<g id="surface1">
<path style=" stroke:none;fill-rule:nonzero;fill:rgb(81.176471%,39.215686%,60.392157%);fill-opacity:1;" d="M 103.265625 51.703125 C 99.070312 51.726562 95.4375 52.734375 92.390625 54.234375 C 91.265625 52.007812 90.140625 50.0625 89.953125 48.609375 C 89.742188 46.921875 89.484375 45.890625 89.742188 43.875 C 90 41.859375 91.171875 39 91.171875 38.765625 C 91.148438 38.554688 90.914062 37.523438 88.5 37.5 C 86.085938 37.476562 84 37.96875 83.765625 38.601562 C 83.53125 39.234375 83.0625 40.6875 82.757812 42.1875 C 82.335938 44.390625 77.929688 52.195312 75.421875 56.296875 C 74.601562 54.703125 73.898438 53.296875 73.757812 52.171875 C 73.546875 50.484375 73.289062 49.453125 73.546875 47.4375 C 73.804688 45.421875 74.976562 42.5625 74.976562 42.328125 C 74.953125 42.117188 74.71875 41.085938 72.304688 41.0625 C 69.890625 41.039062 67.804688 41.53125 67.570312 42.164062 C 67.335938 42.796875 67.078125 44.296875 66.5625 45.75 C 66.070312 47.203125 60.210938 60.234375 58.6875 63.632812 C 57.914062 65.367188 57.234375 66.75 56.742188 67.6875 C 56.25 68.625 56.71875 67.757812 56.671875 67.851562 C 56.25 68.648438 56.015625 69.09375 56.015625 69.09375 L 56.015625 69.117188 C 55.6875 69.703125 55.335938 70.265625 55.171875 70.265625 C 55.054688 70.265625 54.820312 68.695312 55.21875 66.539062 C 56.085938 62.015625 58.195312 54.960938 58.171875 54.703125 C 58.171875 54.585938 58.570312 53.34375 56.8125 52.710938 C 55.101562 52.078125 54.492188 53.132812 54.351562 53.132812 C 54.210938 53.132812 54.09375 53.507812 54.09375 53.507812 C 54.09375 53.507812 55.992188 45.5625 50.460938 45.5625 C 46.992188 45.5625 42.210938 49.335938 39.84375 52.78125 C 38.34375 53.601562 35.15625 55.335938 31.78125 57.1875 C 30.492188 57.890625 29.15625 58.640625 27.890625 59.320312 L 27.632812 59.039062 C 20.929688 51.890625 8.53125 46.828125 9.046875 37.21875 C 9.234375 33.726562 10.453125 24.515625 32.859375 13.359375 C 51.210938 4.21875 65.90625 6.726562 68.460938 12.304688 C 72.09375 20.273438 60.609375 35.085938 41.53125 37.21875 C 34.265625 38.039062 30.445312 35.226562 29.484375 34.171875 C 28.476562 33.070312 28.335938 33.023438 27.960938 33.234375 C 27.351562 33.5625 27.726562 34.546875 27.960938 35.132812 C 28.523438 36.609375 30.867188 39.234375 34.851562 40.546875 C 38.34375 41.695312 46.875 42.328125 57.1875 38.34375 C 68.742188 33.867188 77.765625 21.445312 75.117188 11.0625 C 72.421875 0.492188 54.890625 -2.976562 38.320312 2.90625 C 28.453125 6.421875 17.765625 11.90625 10.078125 19.101562 C 0.9375 27.632812 -0.515625 35.085938 0.09375 38.179688 C 2.226562 49.21875 17.4375 56.414062 23.53125 61.734375 C 23.226562 61.898438 22.945312 62.0625 22.6875 62.203125 C 19.640625 63.703125 8.039062 69.773438 5.132812 76.195312 C 1.851562 83.460938 5.648438 88.6875 8.179688 89.390625 C 16.007812 91.570312 24.023438 87.65625 28.359375 81.210938 C 32.671875 74.765625 32.15625 66.398438 30.164062 62.578125 L 30.09375 62.4375 L 32.484375 61.03125 C 34.03125 60.117188 35.554688 59.273438 36.890625 58.546875 C 36.140625 60.585938 35.601562 63 35.320312 66.515625 C 34.992188 70.640625 36.679688 75.984375 38.90625 78.09375 C 39.890625 79.007812 41.0625 79.03125 41.789062 79.03125 C 44.367188 79.03125 45.539062 76.898438 46.828125 74.34375 C 48.421875 71.226562 49.828125 67.617188 49.828125 67.617188 C 49.828125 67.617188 48.070312 77.390625 52.875 77.390625 C 54.632812 77.390625 56.390625 75.117188 57.1875 73.945312 L 57.1875 73.96875 C 57.1875 73.96875 57.234375 73.898438 57.328125 73.734375 C 57.425781 73.589844 57.519531 73.441406 57.609375 73.289062 L 57.609375 73.242188 C 58.3125 72.023438 59.882812 69.234375 62.226562 64.617188 C 65.25 58.664062 68.15625 51.210938 68.15625 51.210938 C 68.15625 51.210938 68.4375 53.039062 69.304688 56.039062 C 69.820312 57.820312 70.945312 59.765625 71.8125 61.664062 C 71.109375 62.648438 70.6875 63.210938 70.6875 63.210938 L 70.710938 63.234375 C 70.148438 63.984375 69.515625 64.78125 68.859375 65.578125 C 66.46875 68.4375 63.609375 71.695312 63.234375 72.632812 C 62.789062 73.734375 62.882812 74.554688 63.75 75.210938 C 64.382812 75.679688 65.507812 75.773438 66.703125 75.679688 C 68.859375 75.539062 70.359375 75 71.109375 74.671875 C 72.28125 74.25 73.617188 73.617188 74.90625 72.679688 C 77.25 70.945312 78.679688 68.484375 78.539062 65.203125 C 78.46875 63.398438 77.882812 61.617188 77.15625 59.929688 C 77.367188 59.625 77.578125 59.320312 77.789062 58.992188 C 81.492188 53.578125 84.351562 47.625 84.351562 47.625 C 84.351562 47.625 84.632812 49.453125 85.5 52.453125 C 85.945312 53.976562 86.835938 55.640625 87.632812 57.28125 C 84.164062 60.117188 81.984375 63.398438 81.234375 65.554688 C 79.851562 69.539062 80.929688 71.34375 82.96875 71.765625 C 83.882812 71.953125 85.195312 71.53125 86.179688 71.109375 C 87.398438 70.710938 88.875 70.03125 90.234375 69.023438 C 92.578125 67.289062 94.828125 64.875 94.710938 61.617188 C 94.640625 60.117188 94.242188 58.640625 93.703125 57.234375 C 96.65625 56.015625 100.476562 55.3125 105.328125 55.898438 C 115.757812 57.117188 117.820312 63.632812 117.421875 66.351562 C 117.023438 69.070312 114.84375 70.570312 114.117188 71.039062 C 113.390625 71.484375 113.15625 71.648438 113.226562 71.976562 C 113.320312 72.46875 113.648438 72.445312 114.28125 72.351562 C 115.148438 72.210938 119.765625 70.125 119.953125 65.109375 C 120.234375 58.664062 114.117188 51.632812 103.265625 51.703125 Z M 22.828125 78.820312 C 19.382812 82.59375 14.53125 84.023438 12.46875 82.804688 C 10.242188 81.515625 11.109375 75.960938 15.351562 71.953125 C 17.929688 69.515625 21.28125 67.265625 23.484375 65.882812 C 23.976562 65.578125 24.726562 65.132812 25.617188 64.59375 C 25.757812 64.5 25.851562 64.453125 25.851562 64.453125 C 26.015625 64.359375 26.203125 64.242188 26.390625 64.125 C 27.960938 69.84375 26.460938 74.859375 22.828125 78.820312 Z M 48.023438 61.6875 C 46.828125 64.617188 44.296875 72.140625 42.773438 71.71875 C 41.460938 71.367188 40.664062 65.671875 42.515625 60.046875 C 43.453125 57.210938 45.445312 53.835938 46.617188 52.523438 C 48.515625 50.414062 50.578125 49.710938 51.09375 50.578125 C 51.703125 51.703125 48.773438 59.859375 48.023438 61.6875 Z M 68.8125 71.625 C 68.296875 71.882812 67.828125 72.070312 67.617188 71.929688 C 67.453125 71.835938 67.828125 71.484375 67.828125 71.484375 C 67.828125 71.484375 70.429688 68.695312 71.460938 67.40625 C 72.046875 66.65625 72.75 65.789062 73.5 64.804688 L 73.5 65.085938 C 73.5 68.460938 70.265625 70.710938 68.8125 71.625 Z M 84.84375 67.96875 C 84.46875 67.6875 84.515625 66.820312 85.78125 64.101562 C 86.273438 63.023438 87.398438 61.21875 89.34375 59.507812 C 89.578125 60.210938 89.71875 60.890625 89.695312 61.523438 C 89.671875 65.742188 86.671875 67.3125 84.84375 67.96875 Z M 84.84375 67.96875 "/>
</g>
</svg>
