<?xml version="1.0" encoding="UTF-8"?>
<svg xmlns="http://www.w3.org/2000/svg" xmlns:xlink="http://www.w3.org/1999/xlink" width="120pt" height="120pt" viewBox="0 0 120 120" version="1.1">
<g id="surface1">
<path style=" stroke:none;fill-rule:nonzero;fill:rgb(0.392157%,0.392157%,0.392157%);fill-opacity:1;" d="M 45.210938 3.460938 C 60.335938 -0.417969 77.050781 1.839844 90.390625 10.074219 C 107.191406 20.121094 118.160156 39.125 118.4375 58.6875 C 119.050781 78.445312 108.753906 98.039062 92.203125 108.78125 C 73.785156 121.171875 48.308594 121.648438 29.496094 109.871094 C 10.324219 98.425781 -0.867188 75.347656 2.007812 53.191406 C 4.324219 29.777344 22.410156 9.125 45.210938 3.460938 Z M 45.210938 3.460938 "/>
<path style=" stroke:none;fill-rule:nonzero;fill:rgb(100%,100%,100%);fill-opacity:1;" d="M 42.894531 13.03125 C 71.46875 1.589844 106.519531 22.714844 109.480469 53.359375 C 114.082031 80.929688 91.199219 108.949219 63.265625 109.757812 C 36.699219 112.410156 11.023438 89.886719 10.269531 63.210938 C 8.289062 41.609375 22.519531 20.175781 42.894531 13.03125 Z M 42.894531 13.03125 "/>
<path style=" stroke:none;fill-rule:nonzero;fill:rgb(0.392157%,0.392157%,0.392157%);fill-opacity:1;" d="M 45.765625 57.042969 C 58.578125 46.578125 71.105469 35.75 84.195312 25.589844 C 77.332031 36.140625 70.269531 46.546875 63.40625 57.097656 C 57.515625 57.125 51.628906 57.125 45.765625 57.042969 Z M 56.59375 62.875 C 62.511719 62.875 68.398438 62.875 74.289062 62.957031 C 61.394531 73.367188 48.921875 84.277344 35.804688 94.410156 C 42.667969 83.859375 49.730469 73.421875 56.59375 62.875 Z M 56.59375 62.875 "/>
</g>
</svg>
