<?xml version="1.0" encoding="UTF-8"?>
<svg xmlns="http://www.w3.org/2000/svg" xmlns:xlink="http://www.w3.org/1999/xlink" width="120pt" height="119pt" viewBox="0 0 120 119" version="1.1">
<g id="surface1">
<path style=" stroke:none;fill-rule:nonzero;fill:rgb(20%,59.607843%,76.078431%);fill-opacity:1;" d="M 60.027344 0 C 92.8125 0.0625 119.132812 25.933594 119.976562 57.886719 C 120.867188 92.207031 92.671875 119.765625 58.625 118.984375 C 26.792969 118.269531 1.472656 93.078125 0.0703125 62.257812 C -1.492188 28.101562 26.0625 -0.0234375 60.027344 0 Z M 60.027344 0 "/>
<path style=" stroke:none;fill-rule:nonzero;fill:rgb(99.607843%,99.607843%,99.607843%);fill-opacity:1;" d="M 37.929688 41.667969 C 38.320312 40.160156 38.882812 38.703125 39.605469 37.3125 C 40.316406 35.972656 41.324219 34.96875 42.792969 34.488281 C 43.839844 34.148438 44.71875 33.550781 45.503906 32.757812 C 48.285156 29.988281 51.65625 28.378906 55.578125 27.945312 C 56.222656 27.882812 56.550781 27.648438 56.796875 27.046875 C 57.386719 25.628906 58.121094 24.261719 59.089844 23.054688 C 60.375 21.453125 61.910156 20.261719 64.128906 20.386719 C 65.53125 20.464844 66.699219 21.050781 67.550781 22.171875 C 68.507812 23.417969 69.214844 24.8125 69.898438 26.21875 C 70.121094 26.675781 70.304688 26.839844 70.867188 26.722656 C 72.9375 26.265625 74.617188 27.164062 75.507812 29.074219 C 76.542969 31.3125 77.042969 33.679688 77.292969 36.097656 C 77.816406 41.132812 77.476562 46.089844 75.757812 50.914062 C 74.746094 53.746094 73.332031 56.375 71.601562 58.84375 C 71.394531 59.144531 71.339844 59.339844 71.625 59.648438 C 76.257812 64.800781 78.527344 70.808594 78.261719 77.730469 L 78.261719 78.226562 C 78.589844 78.238281 78.84375 78.042969 79.089844 77.910156 C 81.136719 76.871094 83 75.542969 85.058594 74.515625 C 87.957031 73.074219 90.988281 72.0625 94.277344 72.085938 C 99.140625 72.125 102.265625 76.820312 100.230469 81.003906 C 99.425781 82.65625 98.117188 83.828125 96.320312 84.21875 C 93.042969 84.945312 90.128906 86.417969 87.351562 88.226562 C 82.773438 91.242188 77.761719 93.480469 72.519531 95.195312 C 72.167969 95.3125 71.835938 95.453125 71.53125 95.691406 C 70.128906 96.730469 68.492188 97.160156 66.78125 97.394531 C 61.601562 98.113281 56.398438 98.421875 51.175781 98.640625 C 49.027344 98.734375 46.886719 98.445312 44.984375 97.316406 C 44.476562 97 44.03125 96.417969 43.503906 96.328125 C 42.996094 96.25 42.414062 96.714844 41.851562 96.847656 C 38.507812 97.589844 35.371094 96.96875 32.476562 95.222656 C 30.757812 94.195312 29.945312 92.570312 30.035156 90.566406 C 30.058594 90.03125 29.90625 89.644531 29.585938 89.21875 C 28.195312 87.292969 27.515625 85.097656 27.136719 82.777344 C 26.386719 78.214844 28.027344 74.441406 31.070312 71.136719 C 31.355469 70.824219 31.460938 70.515625 31.460938 70.097656 C 31.460938 65.535156 32.335938 61.1875 34.699219 57.207031 C 36.019531 54.984375 37.730469 53.074219 39.632812 51.34375 C 40 51.019531 40.039062 50.800781 39.789062 50.382812 C 38.988281 49.054688 38.492188 47.597656 38.058594 46.113281 C 37.691406 45.851562 37.929688 45.449219 37.78125 45.125 C 37.753906 44.882812 37.78125 44.628906 37.699219 44.386719 L 37.699219 42.757812 C 37.765625 42.523438 37.765625 42.277344 37.765625 42.03125 C 37.824219 41.914062 37.800781 41.757812 37.929688 41.667969 Z M 37.929688 41.667969 "/>
<path style=" stroke:none;fill-rule:nonzero;fill:rgb(19.607843%,59.607843%,76.470588%);fill-opacity:1;" d="M 37.886719 45.117188 C 37.992188 45.441406 37.863281 45.804688 38.058594 46.117188 C 38.003906 46.15625 38.003906 46.417969 37.929688 46.238281 C 37.785156 45.886719 37.679688 45.496094 37.679688 45.117188 C 37.65625 43.871094 37.535156 42.605469 37.886719 41.371094 C 37.902344 41.472656 37.914062 41.574219 37.941406 41.667969 C 37.929688 41.785156 37.917969 41.90625 37.902344 42.007812 C 37.785156 42.230469 37.917969 42.488281 37.800781 42.710938 L 37.800781 44.414062 C 37.886719 44.636719 37.773438 44.894531 37.886719 45.117188 Z M 37.886719 45.117188 "/>
<path style=" stroke:none;fill-rule:nonzero;fill:rgb(20%,59.607843%,76.078431%);fill-opacity:1;" d="M 74.742188 78.40625 C 74.742188 79.605469 74.464844 80.773438 74.3125 81.941406 C 74.183594 82.96875 74.285156 83.085938 75.335938 82.90625 C 77.699219 82.503906 79.832031 81.515625 81.894531 80.355469 C 84.097656 79.109375 86.199219 77.691406 88.554688 76.757812 C 90.378906 76.03125 92.238281 75.546875 94.222656 75.546875 C 95.941406 75.546875 97.132812 76.472656 97.339844 77.929688 C 97.539062 79.28125 96.792969 80.574219 95.425781 80.859375 C 91.515625 81.679688 88.144531 83.589844 84.855469 85.710938 C 80.449219 88.535156 75.648438 90.574219 70.652344 92.132812 C 70.46875 92.1875 70.230469 92.226562 70.109375 92.339844 C 68.933594 93.578125 67.371094 93.785156 65.796875 93.992188 C 61.378906 94.566406 56.933594 94.820312 52.472656 95.082031 C 51.191406 95.160156 49.902344 95.199219 48.621094 94.953125 C 46.574219 94.550781 45.707031 93.792969 45.398438 92.128906 C 45.121094 90.632812 45.828125 89.21875 47.339844 88.238281 C 47.496094 88.136719 47.664062 88.03125 47.917969 87.875 C 47.105469 87.378906 46.4375 86.796875 45.925781 86.070312 C 45.679688 85.730469 45.546875 85.941406 45.464844 86.226562 C 45.21875 87.164062 44.964844 88.113281 44.71875 89.050781 C 44.550781 89.671875 44.335938 90.289062 44.074219 90.882812 C 43.3125 92.609375 41.925781 93.445312 40.085938 93.613281 C 38.210938 93.78125 36.441406 93.367188 34.761719 92.546875 C 33.609375 91.988281 33.265625 91.140625 33.648438 89.90625 C 33.847656 89.242188 34.226562 88.667969 34.683594 87.964844 C 33.097656 88.277344 32.402344 87.363281 31.851562 86.261719 C 30.617188 83.839844 30.195312 81.28125 30.695312 78.628906 C 31.101562 76.519531 32.351562 74.804688 33.847656 73.324219 C 34.722656 72.453125 34.984375 71.617188 34.960938 70.394531 C 34.761719 63.332031 37.453125 57.53125 42.988281 53.046875 C 43.476562 52.644531 43.960938 52.230469 44.46875 51.863281 C 44.789062 51.644531 44.824219 51.5 44.566406 51.175781 C 43.132812 49.394531 42.019531 47.460938 41.507812 45.210938 C 40.929688 42.675781 41.796875 40.476562 43.082031 38.367188 C 43.265625 38.082031 43.554688 37.941406 43.871094 37.824219 C 45.484375 37.25 46.847656 36.378906 48.082031 35.15625 C 50.859375 32.402344 54.296875 31.140625 58.230469 31.304688 C 58.730469 31.332031 58.953125 31.1875 59.105469 30.722656 C 59.695312 29.015625 60.429688 27.375 61.414062 25.859375 C 61.78125 25.285156 62.1875 24.753906 62.710938 24.328125 C 63.683594 23.53125 64.507812 23.648438 65.164062 24.703125 C 66.371094 26.617188 67.304688 28.671875 68.242188 30.726562 C 68.480469 31.246094 68.664062 31.429688 69.214844 31.074219 C 69.859375 30.671875 70.578125 30.386719 71.300781 30.136719 C 71.878906 29.941406 72.214844 30.074219 72.46875 30.671875 C 73.203125 32.425781 73.597656 34.261719 73.820312 36.148438 C 73.886719 36.667969 74.003906 37.175781 73.941406 37.695312 C 73.898438 38.824219 73.953125 39.960938 73.964844 41.105469 C 73.964844 41.609375 73.78125 42.121094 73.941406 42.636719 C 73.820312 45.730469 72.992188 48.65625 71.789062 51.492188 C 70.660156 54.144531 69.019531 56.496094 67.382812 58.855469 C 66.738281 59.761719 66.753906 59.777344 67.589844 60.519531 C 71.679688 64.171875 73.941406 68.765625 74.695312 74.125 C 74.722656 74.332031 74.710938 74.550781 74.710938 74.773438 C 74.542969 75.269531 74.726562 75.75 74.738281 76.230469 C 74.78125 76.960938 74.613281 77.695312 74.742188 78.40625 Z M 74.742188 78.40625 "/>
<path style=" stroke:none;fill-rule:nonzero;fill:rgb(16.862745%,58.431373%,75.686275%);fill-opacity:1;" d="M 73.953125 42.644531 C 73.796875 42.519531 73.835938 42.332031 73.835938 42.164062 L 73.835938 38.195312 C 73.835938 38.03125 73.796875 37.847656 73.953125 37.714844 C 74.128906 39.355469 74.136719 41.007812 73.953125 42.644531 Z M 73.953125 42.644531 "/>
<path style=" stroke:none;fill-rule:nonzero;fill:rgb(14.901961%,57.647059%,74.901961%);fill-opacity:1;" d="M 74.742188 78.40625 C 74.480469 77.40625 74.6875 76.394531 74.621094 75.390625 C 74.609375 75.183594 74.542969 74.949219 74.742188 74.78125 C 74.910156 75.992188 74.886719 77.199219 74.742188 78.40625 Z M 74.742188 78.40625 "/>
<path style=" stroke:none;fill-rule:nonzero;fill:rgb(20%,59.607843%,76.078431%);fill-opacity:1;" d="M 37.785156 42.710938 C 37.800781 42.472656 37.679688 42.214844 37.886719 42.007812 C 37.886719 42.238281 37.902344 42.488281 37.785156 42.710938 Z M 37.886719 45.117188 C 37.691406 44.910156 37.792969 44.648438 37.785156 44.414062 C 37.917969 44.636719 37.886719 44.882812 37.886719 45.117188 Z M 37.886719 45.117188 "/>
</g>
</svg>
