<?xml version="1.0" encoding="UTF-8"?>
<svg xmlns="http://www.w3.org/2000/svg" xmlns:xlink="http://www.w3.org/1999/xlink" width="120pt" height="96pt" viewBox="0 0 120 96" version="1.1">
<g id="surface1">
<path style=" stroke:none;fill-rule:evenodd;fill:rgb(47.45098%,32.156863%,70.196078%);fill-opacity:1;" d="M 24.925781 0.0117188 C 18.078125 0.0117188 13.011719 6.027344 13.238281 12.554688 C 13.457031 18.824219 13.171875 26.941406 11.136719 33.5625 C 9.09375 40.203125 5.640625 44.410156 0 44.953125 L 0 51.046875 C 5.640625 51.589844 9.09375 55.796875 11.136719 62.4375 C 13.171875 69.058594 13.457031 77.175781 13.238281 83.445312 C 13.011719 89.96875 18.078125 95.988281 24.925781 95.988281 L 95.085938 95.988281 C 101.933594 95.988281 106.996094 89.972656 106.769531 83.445312 C 106.554688 77.175781 106.835938 69.058594 108.871094 62.4375 C 110.914062 55.796875 114.359375 51.589844 120 51.046875 L 120 44.953125 C 114.359375 44.410156 110.914062 40.203125 108.871094 33.5625 C 106.835938 26.941406 106.554688 18.824219 106.769531 12.554688 C 106.996094 6.03125 101.933594 0.0117188 95.085938 0.0117188 L 24.921875 0.0117188 Z M 81.355469 59.089844 C 81.355469 68.078125 74.679688 73.527344 63.601562 73.527344 L 44.746094 73.527344 C 43.621094 73.527344 42.710938 72.613281 42.710938 71.484375 L 42.710938 24.515625 C 42.710938 23.386719 43.621094 22.472656 44.746094 22.472656 L 63.496094 22.472656 C 72.734375 22.472656 78.792969 27.496094 78.792969 35.210938 C 78.792969 40.625 74.714844 45.46875 69.519531 46.320312 L 69.519531 46.601562 C 76.59375 47.378906 81.355469 52.296875 81.355469 59.089844 Z M 61.546875 28.949219 L 50.792969 28.949219 L 50.792969 44.195312 L 59.851562 44.195312 C 66.851562 44.195312 70.710938 41.367188 70.710938 36.308594 C 70.710938 31.566406 67.390625 28.949219 61.546875 28.949219 Z M 50.792969 50.246094 L 50.792969 67.050781 L 61.941406 67.050781 C 69.230469 67.050781 73.09375 64.113281 73.09375 58.59375 C 73.09375 53.078125 69.125 50.246094 61.472656 50.246094 Z M 50.792969 50.246094 "/>
</g>
</svg>
