<?xml version="1.0" encoding="UTF-8"?>
<svg xmlns="http://www.w3.org/2000/svg" xmlns:xlink="http://www.w3.org/1999/xlink" width="120pt" height="152pt" viewBox="0 0 120 152" version="1.1">
<g id="surface1">
<path style=" stroke:none;fill-rule:nonzero;fill:rgb(16.862745%,66.27451%,46.666667%);fill-opacity:1;" d="M 53.804688 0 L 78.777344 0 L 78.777344 113.84375 C 65.988281 116.25 56.570312 117.199219 46.378906 117.199219 C 15.878906 117.167969 0 103.613281 0 77.582031 C 0 52.503906 16.84375 36.226562 42.941406 36.226562 C 46.992188 36.226562 50.078125 36.542969 53.804688 37.492188 Z M 54.679688 58.007812 C 51.753906 57.058594 49.34375 56.742188 46.257812 56.742188 C 33.628906 56.742188 26.332031 64.40625 26.332031 77.835938 C 26.332031 90.910156 33.304688 98.128906 46.097656 98.128906 C 48.863281 98.128906 51.113281 97.976562 54.679688 97.5 Z M 54.679688 58.007812 "/>
<path style=" stroke:none;fill-rule:nonzero;fill:rgb(16.862745%,66.27451%,46.666667%);fill-opacity:1;" d="M 119.617188 39.28125 L 119.617188 96.285156 C 119.617188 115.914062 118.140625 125.351562 113.800781 133.492188 C 109.75 141.316406 104.414062 146.25 93.390625 151.699219 L 70.21875 140.839844 C 81.242188 135.742188 86.578125 131.238281 89.984375 124.367188 C 93.550781 117.34375 94.675781 109.203125 94.675781 87.796875 L 94.675781 39.285156 L 119.617188 39.285156 Z M 92.160156 0 L 117.132812 0 L 117.132812 25.238281 L 92.160156 25.238281 Z M 92.160156 0 "/>
</g>
</svg>
