<?xml version="1.0" encoding="UTF-8"?>
<svg xmlns="http://www.w3.org/2000/svg" xmlns:xlink="http://www.w3.org/1999/xlink" width="120pt" height="120pt" viewBox="0 0 120 120" version="1.1">
<g id="surface1">
<path style=" stroke:none;fill-rule:nonzero;fill:rgb(34.901961%,58.823529%,21.176471%);fill-opacity:1;" d="M 55.226562 15.601562 L 57.824219 20.484375 C 58.410156 21.386719 59.042969 22.183594 59.789062 22.929688 C 61.976562 25.089844 64.015625 27.394531 65.894531 29.828125 C 70.300781 35.613281 73.269531 42.039062 75.394531 48.988281 C 76.667969 53.234375 77.359375 57.589844 77.410156 61.992188 C 77.621094 75.15625 73.109375 86.460938 64.011719 95.855469 C 62.53125 97.34375 60.933594 98.710938 59.230469 99.941406 C 58.328125 99.941406 57.902344 99.25 57.53125 98.613281 C 56.855469 97.433594 56.402344 96.136719 56.203125 94.792969 C 55.882812 93.199219 55.671875 91.605469 55.777344 89.960938 L 55.777344 89.21875 C 55.703125 89.0625 54.910156 15.976562 55.226562 15.601562 Z M 55.226562 15.601562 "/>
<path style=" stroke:none;fill-rule:nonzero;fill:rgb(42.352941%,67.45098%,28.235294%);fill-opacity:1;" d="M 55.226562 15.441406 C 55.117188 15.226562 55.011719 15.386719 54.90625 15.492188 C 54.957031 16.558594 54.585938 17.507812 54.003906 18.414062 C 53.363281 19.316406 52.519531 20.007812 51.667969 20.75 C 46.949219 24.835938 43.234375 29.773438 40.257812 35.292969 C 36.300781 42.726562 34.257812 50.6875 33.679688 59.070312 C 33.414062 62.09375 34.636719 72.765625 35.589844 75.84375 C 38.191406 84.019531 42.863281 90.867188 48.914062 96.8125 C 50.398438 98.242188 51.988281 99.570312 53.632812 100.847656 C 54.109375 100.847656 54.164062 100.417969 54.273438 100.101562 C 54.480469 99.425781 54.640625 98.734375 54.75 98.03125 L 55.816406 90.070312 Z M 55.226562 15.441406 "/>
<path style=" stroke:none;fill-rule:nonzero;fill:rgb(76.078431%,74.901961%,74.901961%);fill-opacity:1;" d="M 57.824219 103.175781 C 57.933594 101.957031 58.515625 100.945312 59.152344 99.9375 C 58.515625 99.671875 58.039062 99.148438 57.667969 98.558594 C 57.347656 98.003906 57.082031 97.414062 56.875 96.808594 C 56.132812 94.578125 55.972656 92.238281 55.761719 89.960938 L 55.761719 88.582031 C 55.496094 88.796875 55.441406 90.597656 55.441406 90.867188 C 55.285156 93.273438 54.96875 95.667969 54.484375 98.03125 C 54.328125 98.988281 54.21875 99.941406 53.632812 100.789062 C 53.632812 100.898438 53.632812 101.003906 53.683594 101.164062 C 54.640625 103.976562 54.902344 106.839844 55.0625 109.761719 L 55.0625 110.828125 C 55.0625 112.101562 55.011719 111.832031 56.070312 112.257812 C 56.496094 112.417969 56.96875 112.472656 57.394531 112.789062 C 57.714844 112.789062 57.769531 112.523438 57.769531 112.3125 L 57.609375 110.558594 L 57.609375 105.675781 C 57.558594 104.824219 57.714844 103.976562 57.824219 103.179688 Z M 57.824219 103.175781 "/>
</g>
</svg>
