<?xml version="1.0" encoding="UTF-8"?>
<svg xmlns="http://www.w3.org/2000/svg" xmlns:xlink="http://www.w3.org/1999/xlink" width="119pt" height="118pt" viewBox="0 0 119 118" version="1.1">
<g id="surface1">
<path style=" stroke:none;fill-rule:nonzero;fill:rgb(0%,32.941176%,41.960784%);fill-opacity:1;" d="M 109.539062 90.9375 C 103.070312 90.777344 98.054688 91.425781 93.851562 93.21875 C 92.636719 93.707031 90.695312 93.707031 90.535156 95.257812 C 91.179688 95.90625 91.261719 96.96875 91.828125 97.863281 C 92.800781 99.492188 94.496094 101.691406 96.035156 102.832031 C 97.730469 104.136719 99.429688 105.4375 101.210938 106.578125 C 104.363281 108.535156 107.921875 109.675781 110.996094 111.628906 C 112.773438 112.769531 114.554688 114.238281 116.332031 115.460938 C 117.222656 116.109375 117.789062 117.171875 118.921875 117.578125 L 118.921875 117.332031 C 118.355469 116.601562 118.191406 115.542969 117.625 114.726562 C 116.820312 113.910156 116.007812 113.179688 115.199219 112.363281 C 112.855469 109.1875 109.945312 106.417969 106.789062 104.136719 C 104.203125 102.34375 98.539062 99.898438 97.488281 96.886719 C 97.488281 96.886719 97.40625 96.804688 97.328125 96.722656 C 99.105469 96.558594 101.210938 95.90625 102.90625 95.417969 C 105.65625 94.6875 108.164062 94.847656 110.996094 94.117188 C 112.289062 93.789062 113.582031 93.382812 114.875 92.976562 L 114.875 92.242188 C 113.421875 90.777344 112.371094 88.820312 110.832031 87.4375 C 106.710938 83.851562 102.179688 80.347656 97.488281 77.414062 C 94.980469 75.785156 91.746094 74.726562 89.078125 73.34375 C 88.109375 72.851562 86.488281 72.609375 85.925781 71.792969 C 84.46875 70.003906 83.660156 67.640625 82.609375 65.523438 C 80.261719 61.039062 78 56.070312 75.976562 51.347656 C 74.519531 48.167969 73.632812 44.992188 71.851562 42.058594 C 63.523438 28.210938 54.464844 19.820312 40.554688 11.589844 C 37.5625 9.878906 34.003906 9.148438 30.203125 8.25 C 28.179688 8.167969 26.160156 8.007812 24.136719 7.925781 C 22.84375 7.355469 21.546875 5.808594 20.417969 5.074219 C 15.808594 2.140625 3.917969 -4.210938 0.523438 4.179688 C -1.664062 9.472656 3.757812 14.6875 5.617188 17.375 C 6.992188 19.25 8.769531 21.367188 9.742188 23.484375 C 10.308594 24.871094 10.46875 26.335938 11.035156 27.804688 C 12.328125 31.386719 13.542969 35.378906 15.242188 38.71875 C 16.128906 40.429688 17.101562 42.222656 18.234375 43.769531 C 18.878906 44.667969 20.011719 45.074219 20.253906 46.539062 C 19.125 48.167969 19.042969 50.613281 18.394531 52.648438 C 15.484375 61.855469 16.617188 73.261719 20.738281 80.023438 C 22.035156 82.058594 25.105469 86.539062 29.230469 84.828125 C 32.871094 83.363281 32.0625 78.71875 33.113281 74.644531 C 33.355469 73.667969 33.195312 73.015625 33.679688 72.363281 L 33.679688 72.527344 C 34.8125 74.808594 35.945312 77.007812 36.996094 79.289062 C 39.503906 83.28125 43.871094 87.4375 47.507812 90.207031 C 49.449219 91.671875 50.988281 94.195312 53.414062 95.09375 L 53.414062 94.847656 L 53.25 94.847656 C 52.765625 94.117188 52.039062 93.789062 51.390625 93.21875 C 49.9375 91.753906 48.316406 89.960938 47.1875 88.332031 C 43.789062 83.769531 40.796875 78.71875 38.128906 73.503906 C 36.835938 70.980469 35.703125 68.210938 34.648438 65.683594 C 34.164062 64.707031 34.164062 63.242188 33.355469 62.75 C 32.144531 64.542969 30.363281 66.09375 29.472656 68.292969 C 27.9375 71.792969 27.777344 76.113281 27.210938 80.59375 C 26.886719 80.675781 27.046875 80.59375 26.886719 80.753906 C 24.296875 80.101562 23.410156 77.414062 22.4375 75.132812 C 20.011719 69.351562 19.605469 60.0625 21.710938 53.382812 C 22.277344 51.671875 24.703125 46.296875 23.734375 44.667969 C 23.246094 43.117188 21.628906 42.222656 20.738281 41 C 19.6875 39.453125 18.554688 37.5 17.828125 35.785156 C 15.886719 31.226562 14.917969 26.171875 12.8125 21.613281 C 11.84375 19.492188 10.144531 17.292969 8.769531 15.339844 C 7.234375 13.140625 5.535156 11.589844 4.324219 8.984375 C 3.917969 8.089844 3.351562 6.621094 4 5.644531 C 4.160156 4.992188 4.484375 4.75 5.132812 4.585938 C 6.183594 3.6875 9.175781 4.828125 10.226562 5.320312 C 13.21875 6.539062 15.726562 7.679688 18.234375 9.390625 C 19.363281 10.207031 20.578125 11.753906 22.035156 12.164062 L 23.730469 12.164062 C 26.320312 12.730469 29.230469 12.324219 31.65625 13.058594 C 35.945312 14.441406 39.824219 16.480469 43.304688 18.679688 C 53.898438 25.441406 62.632812 35.054688 68.535156 46.539062 C 69.507812 48.414062 69.910156 50.125 70.800781 52.078125 C 72.5 56.070312 74.601562 60.144531 76.300781 64.054688 C 78 67.882812 79.617188 71.792969 82.042969 74.972656 C 83.253906 76.683594 88.105469 77.578125 90.292969 78.472656 C 91.910156 79.207031 94.417969 79.859375 95.871094 80.753906 C 98.621094 82.464844 101.371094 84.421875 103.960938 86.292969 C 105.253906 87.273438 109.296875 89.308594 109.539062 90.9375 Z M 109.539062 90.9375 "/>
<path style=" stroke:none;fill-rule:nonzero;fill:rgb(0%,32.941176%,41.960784%);fill-opacity:1;" d="M 27.046875 20.144531 C 25.671875 20.144531 24.703125 20.308594 23.730469 20.550781 L 23.730469 20.714844 L 23.894531 20.714844 C 24.542969 22.019531 25.671875 22.914062 26.480469 24.054688 C 27.128906 25.359375 27.695312 26.664062 28.34375 27.964844 C 28.421875 27.882812 28.503906 27.804688 28.503906 27.804688 C 29.636719 26.988281 30.203125 25.683594 30.203125 23.730469 C 29.714844 23.160156 29.636719 22.589844 29.230469 22.019531 C 28.746094 21.203125 27.695312 20.796875 27.046875 20.144531 Z M 27.046875 20.144531 "/>
</g>
</svg>
