<?xml version="1.0" encoding="UTF-8"?>
<svg xmlns="http://www.w3.org/2000/svg" xmlns:xlink="http://www.w3.org/1999/xlink" width="120pt" height="120pt" viewBox="0 0 120 120" version="1.1">
<g id="surface1">
<path style=" stroke:none;fill-rule:evenodd;fill:rgb(0%,0%,0%);fill-opacity:1;" d="M 22.488281 21.355469 C 26.199219 24.371094 27.59375 24.140625 34.566406 23.675781 L 100.300781 19.730469 C 101.695312 19.730469 100.535156 18.339844 100.070312 18.109375 L 89.152344 10.214844 C 87.0625 8.589844 84.273438 6.730469 78.933594 7.195312 L 15.28125 11.839844 C 12.960938 12.070312 12.496094 13.230469 13.421875 14.160156 Z M 26.433594 36.675781 L 26.433594 105.839844 C 26.433594 109.554688 28.292969 110.945312 32.472656 110.71875 L 104.714844 106.535156 C 108.898438 106.308594 109.363281 103.75 109.363281 100.730469 L 109.363281 32.03125 C 109.363281 29.015625 108.203125 27.390625 105.644531 27.621094 L 30.148438 32.03125 C 27.363281 32.265625 26.433594 33.65625 26.433594 36.675781 Z M 97.75 40.386719 C 98.214844 42.476562 97.75 44.566406 95.65625 44.800781 L 92.175781 45.492188 L 92.175781 96.554688 C 89.152344 98.179688 86.367188 99.109375 84.042969 99.109375 C 80.324219 99.109375 79.394531 97.945312 76.609375 94.46875 L 53.839844 58.722656 L 53.839844 93.308594 L 61.046875 94.933594 C 61.046875 94.933594 61.046875 99.109375 55.234375 99.109375 L 39.210938 100.039062 C 38.742188 99.109375 39.210938 96.789062 40.835938 96.324219 L 45.015625 95.164062 L 45.015625 49.441406 L 39.210938 48.976562 C 38.746094 46.882812 39.902344 43.871094 43.160156 43.636719 L 60.347656 42.476562 L 84.042969 78.683594 L 84.042969 46.652344 L 78.003906 45.960938 C 77.539062 43.40625 79.394531 41.546875 81.71875 41.316406 Z M 9.9375 5.574219 L 76.144531 0.699219 C 84.277344 0 86.367188 0.46875 91.476562 4.179688 L 112.613281 19.035156 C 116.097656 21.585938 117.261719 22.28125 117.261719 25.066406 L 117.261719 106.535156 C 117.261719 111.644531 115.402344 114.664062 108.898438 115.125 L 32.011719 119.765625 C 27.128906 120 24.808594 119.304688 22.25 116.054688 L 6.6875 95.859375 C 3.898438 92.144531 2.738281 89.363281 2.738281 86.109375 L 2.738281 13.695312 C 2.738281 9.519531 4.597656 6.035156 9.9375 5.574219 Z M 9.9375 5.574219 "/>
</g>
</svg>
