<?xml version="1.0" encoding="UTF-8"?>
<svg xmlns="http://www.w3.org/2000/svg" xmlns:xlink="http://www.w3.org/1999/xlink" width="120pt" height="47pt" viewBox="0 0 120 47" version="1.1">
<g id="surface1">
<path style=" stroke:none;fill-rule:nonzero;fill:rgb(79.607843%,21.960784%,21.568627%);fill-opacity:1;" d="M 0 0 L 0 40.167969 L 33.359375 40.167969 L 33.359375 46.898438 L 60 46.898438 L 60 40.167969 L 120 40.167969 L 120 0 Z M 0 0 "/>
<path style=" stroke:none;fill-rule:nonzero;fill:rgb(100%,100%,100%);fill-opacity:1;" d="M 19.921875 6.734375 L 6.71875 6.734375 L 6.71875 33.433594 L 19.921875 33.433594 L 19.921875 13.464844 L 26.640625 13.464844 L 26.640625 33.433594 L 33.359375 33.433594 L 33.359375 6.734375 Z M 40.078125 6.734375 L 40.078125 40.167969 L 53.511719 40.167969 L 53.511719 33.433594 L 66.71875 33.433594 L 66.71875 6.734375 Z M 60 26.699219 L 53.511719 26.699219 L 53.511719 13.464844 L 60 13.464844 Z M 86.640625 6.734375 L 73.4375 6.734375 L 73.4375 33.433594 L 86.640625 33.433594 L 86.640625 13.464844 L 93.359375 13.464844 L 93.359375 33.433594 L 100.078125 33.433594 L 100.078125 13.464844 L 106.796875 13.464844 L 106.796875 33.433594 L 113.511719 33.433594 L 113.511719 6.734375 Z M 86.640625 6.734375 "/>
</g>
</svg>
