<?xml version="1.0" encoding="UTF-8"?>
<svg xmlns="http://www.w3.org/2000/svg" xmlns:xlink="http://www.w3.org/1999/xlink" width="120pt" height="120pt" viewBox="0 0 120 120" version="1.1">
<g id="surface1">
<path style=" stroke:none;fill-rule:nonzero;fill:rgb(100%,42.352941%,21.568627%);fill-opacity:1;" d="M 104.140625 30.515625 C 88.277344 9.972656 58.761719 6.179688 38.21875 22.046875 C 17.679688 37.914062 13.890625 67.429688 29.757812 87.96875 C 45.625 108.507812 75.140625 112.292969 95.679688 96.425781 C 116.210938 80.558594 120 51.054688 104.140625 30.515625 Z M 104.140625 30.515625 "/>
<path style=" stroke:none;fill-rule:nonzero;fill:rgb(100%,100%,100%);fill-opacity:1;" d="M 82.796875 42.1875 L 62.980469 62.160156 L 57.382812 56.402344 C 76.882812 36.902344 78.84375 38.664062 82.796875 42.1875 Z M 82.796875 42.1875 "/>
<path style=" stroke:none;fill-rule:nonzero;fill:rgb(100%,42.352941%,21.568627%);fill-opacity:1;" d="M 62.980469 62.707031 C 62.804688 62.703125 62.636719 62.632812 62.511719 62.511719 L 56.871094 56.871094 C 56.609375 56.597656 56.609375 56.164062 56.871094 55.890625 C 76.101562 36.664062 78.726562 37.5625 83.265625 41.675781 C 83.421875 41.800781 83.507812 41.988281 83.5 42.1875 C 83.53125 42.375 83.457031 42.570312 83.304688 42.695312 L 63.492188 62.511719 C 63.351562 62.640625 63.171875 62.710938 62.980469 62.707031 Z M 58.359375 56.402344 L 62.980469 61.023438 L 81.777344 42.226562 C 80.433594 40.542969 78.039062 40.136719 76.21875 41.285156 C 72.8125 42.8125 67.328125 47.472656 58.359375 56.402344 Z M 58.359375 56.402344 "/>
<path style=" stroke:none;fill-rule:nonzero;fill:rgb(100%,100%,100%);fill-opacity:1;" d="M 68.660156 67.679688 L 63.257812 62.160156 L 83.070312 42.578125 C 88.398438 47.785156 80.488281 56.480469 68.660156 67.679688 Z M 68.660156 67.679688 "/>
<path style=" stroke:none;fill-rule:nonzero;fill:rgb(100%,42.352941%,21.568627%);fill-opacity:1;" d="M 68.660156 68.386719 C 68.488281 68.371094 68.324219 68.304688 68.191406 68.191406 L 62.667969 62.785156 C 62.585938 62.585938 62.585938 62.359375 62.667969 62.160156 C 62.609375 61.996094 62.609375 61.816406 62.667969 61.648438 L 82.484375 41.835938 C 82.769531 41.566406 83.214844 41.566406 83.5 41.835938 C 84.800781 43.03125 85.515625 44.730469 85.460938 46.496094 C 85.460938 51.78125 79.429688 58.4375 69.167969 68.152344 C 69.03125 68.289062 68.851562 68.371094 68.660156 68.386719 Z M 64.273438 62.160156 L 68.699219 66.582031 C 76.53125 59.179688 84.011719 51.546875 84.050781 46.375 C 84.09375 45.28125 83.730469 44.207031 83.03125 43.359375 Z M 64.273438 62.160156 "/>
<path style=" stroke:none;fill-rule:nonzero;fill:rgb(100%,100%,100%);fill-opacity:1;" d="M 57.539062 56.519531 L 61.453125 60.4375 C 61.503906 60.480469 61.535156 60.546875 61.535156 60.613281 C 61.535156 60.679688 61.503906 60.746094 61.453125 60.789062 L 53.191406 62.550781 C 52.847656 62.625 52.496094 62.460938 52.332031 62.152344 C 52.167969 61.84375 52.230469 61.460938 52.484375 61.21875 L 57.304688 56.441406 C 57.304688 56.441406 57.460938 56.441406 57.539062 56.519531 Z M 57.539062 56.519531 "/>
<path style=" stroke:none;fill-rule:nonzero;fill:rgb(100%,42.352941%,21.568627%);fill-opacity:1;" d="M 52.996094 63.335938 C 52.464844 63.328125 51.976562 63.046875 51.703125 62.589844 C 51.394531 62.007812 51.503906 61.289062 51.976562 60.828125 L 56.753906 56.011719 C 57.113281 55.691406 57.652344 55.691406 58.007812 56.011719 L 61.925781 59.925781 C 62.15625 60.148438 62.246094 60.480469 62.160156 60.789062 C 62.070312 61.097656 61.8125 61.34375 61.492188 61.417969 L 53.230469 63.179688 Z M 57.382812 57.382812 L 52.957031 61.808594 L 60.28125 60.242188 Z M 57.734375 57.03125 Z M 57.734375 57.03125 "/>
<path style=" stroke:none;fill-rule:nonzero;fill:rgb(100%,100%,100%);fill-opacity:1;" d="M 93.332031 31.183594 C 90.5 28.449219 86.046875 28.332031 83.074219 30.914062 C 80.101562 33.492188 79.59375 37.921875 81.90625 41.109375 C 84.222656 44.296875 88.585938 45.1875 91.960938 43.164062 L 86.636719 37.839844 Z M 93.332031 31.183594 "/>
<path style=" stroke:none;fill-rule:nonzero;fill:rgb(100%,42.352941%,21.568627%);fill-opacity:1;" d="M 88.046875 44.964844 C 84.714844 44.921875 81.734375 42.894531 80.472656 39.8125 C 79.214844 36.734375 79.90625 33.203125 82.234375 30.828125 C 85.496094 27.628906 90.722656 27.628906 93.984375 30.828125 C 94.132812 30.957031 94.21875 31.140625 94.21875 31.339844 C 94.21875 31.535156 94.132812 31.722656 93.984375 31.847656 L 87.640625 37.839844 L 92.457031 42.578125 C 92.617188 42.730469 92.6875 42.949219 92.652344 43.167969 C 92.628906 43.375 92.515625 43.5625 92.339844 43.675781 C 91.046875 44.484375 89.558594 44.933594 88.03125 44.96875 Z M 88.046875 29.769531 C 85.253906 29.785156 82.757812 31.464844 81.710938 34.03125 C 80.664062 36.59375 81.234375 39.546875 83.191406 41.519531 C 85.183594 43.523438 88.199219 44.097656 90.789062 42.96875 L 86.164062 38.347656 C 86.015625 38.226562 85.929688 38.046875 85.929688 37.855469 C 85.929688 37.667969 86.015625 37.488281 86.164062 37.367188 L 92.273438 31.21875 C 91.0625 30.289062 89.574219 29.777344 88.046875 29.769531 Z M 88.046875 29.769531 "/>
<path style=" stroke:none;fill-rule:nonzero;fill:rgb(100%,100%,100%);fill-opacity:1;" d="M 93.449219 31.300781 L 86.753906 37.957031 L 92.078125 43.28125 C 92.617188 42.976562 93.113281 42.605469 93.566406 42.1875 C 96.46875 39.117188 96.417969 34.304688 93.449219 31.300781 Z M 93.449219 31.300781 "/>
<path style=" stroke:none;fill-rule:nonzero;fill:rgb(100%,42.352941%,21.568627%);fill-opacity:1;" d="M 91.960938 43.871094 C 91.78125 43.878906 91.609375 43.808594 91.492188 43.675781 L 86.164062 38.347656 C 86.015625 38.230469 85.929688 38.050781 85.929688 37.859375 C 85.929688 37.667969 86.015625 37.488281 86.164062 37.367188 L 92.820312 30.828125 C 92.953125 30.632812 93.171875 30.515625 93.410156 30.515625 C 93.644531 30.515625 93.867188 30.632812 93.996094 30.828125 C 95.574219 32.375 96.464844 34.492188 96.464844 36.703125 C 96.464844 38.914062 95.574219 41.03125 93.996094 42.578125 C 93.535156 43.066406 93.007812 43.488281 92.429688 43.832031 C 92.285156 43.902344 92.113281 43.917969 91.960938 43.871094 Z M 87.652344 37.839844 L 92.078125 42.265625 C 92.382812 42.050781 92.671875 41.816406 92.941406 41.558594 C 94.242188 40.261719 94.972656 38.503906 94.976562 36.664062 C 94.980469 35.023438 94.382812 33.433594 93.292969 32.203125 Z M 87.652344 37.839844 "/>
<path style=" stroke:none;fill-rule:nonzero;fill:rgb(100%,100%,100%);fill-opacity:1;" d="M 83.621094 43.011719 C 82.519531 41.976562 80.804688 41.976562 79.703125 43.011719 L 61.964844 60.707031 L 64.902344 63.6875 L 83.660156 47.238281 C 84.238281 46.683594 84.5625 45.914062 84.554688 45.113281 C 84.546875 44.3125 84.207031 43.550781 83.621094 43.007812 Z M 83.621094 43.011719 "/>
<path style=" stroke:none;fill-rule:nonzero;fill:rgb(100%,42.352941%,21.568627%);fill-opacity:1;" d="M 64.742188 64.390625 C 64.570312 64.386719 64.402344 64.316406 64.273438 64.195312 L 61.296875 61.21875 C 61.035156 60.945312 61.035156 60.511719 61.296875 60.242188 L 79.039062 42.578125 C 80.082031 41.535156 81.660156 41.234375 83.015625 41.820312 C 84.371094 42.40625 85.234375 43.761719 85.1875 45.242188 C 85.144531 46.230469 84.707031 47.160156 83.972656 47.824219 L 65.214844 64.273438 C 65.078125 64.371094 64.910156 64.410156 64.742188 64.390625 Z M 62.667969 60.707031 L 64.625 62.707031 L 83.03125 46.6875 C 83.488281 46.292969 83.757812 45.726562 83.777344 45.121094 C 83.792969 44.519531 83.554688 43.925781 83.109375 43.515625 C 82.253906 42.664062 80.871094 42.664062 80.015625 43.515625 Z M 62.667969 60.707031 "/>
<path style=" stroke:none;fill-rule:nonzero;fill:rgb(100%,100%,100%);fill-opacity:1;" d="M 48.21875 80.878906 C 48.117188 81.019531 48.117188 81.207031 48.21875 81.347656 L 49 84.753906 C 49.066406 85.164062 48.871094 85.574219 48.511719 85.78125 C 48.15625 85.992188 47.703125 85.945312 47.394531 85.671875 L 42.03125 80.5 L 58.753906 63.644531 L 64.546875 63.644531 L 68.464844 67.5625 C 62.355469 72.90625 55.542969 77.382812 48.21875 80.878906 Z M 48.21875 80.878906 "/>
<path style=" stroke:none;fill-rule:nonzero;fill:rgb(100%,42.352941%,21.568627%);fill-opacity:1;" d="M 47.867188 86.636719 C 47.421875 86.625 46.984375 86.445312 46.691406 86.125 L 41.5625 80.996094 C 41.414062 80.875 41.324219 80.695312 41.324219 80.503906 C 41.324219 80.316406 41.414062 80.136719 41.5625 80.015625 L 58.398438 63.136719 C 58.492188 63.039062 58.617188 62.96875 58.753906 62.941406 L 64.585938 62.941406 C 64.738281 62.890625 64.90625 62.890625 65.058594 62.941406 L 68.972656 66.859375 C 69.125 67 69.199219 67.203125 69.167969 67.40625 C 69.175781 67.605469 69.085938 67.792969 68.933594 67.917969 L 68.621094 68.191406 C 62.488281 73.304688 55.738281 77.632812 48.53125 81.074219 L 49.277344 84.246094 C 49.390625 84.742188 49.277344 85.265625 48.96875 85.667969 C 48.65625 86.070312 48.179688 86.308594 47.671875 86.320312 Z M 43.089844 80.484375 L 47.707031 85.144531 C 47.796875 85.226562 47.933594 85.226562 48.023438 85.144531 C 48.082031 85.0625 48.082031 84.953125 48.023438 84.871094 L 47.238281 81.464844 C 47.113281 80.960938 47.355469 80.4375 47.828125 80.210938 C 54.839844 76.816406 61.414062 72.582031 67.40625 67.601562 L 64.195312 64.390625 L 58.949219 64.390625 Z M 48.726562 81.191406 Z M 48.726562 81.191406 "/>
<path style=" stroke:none;fill-rule:nonzero;fill:rgb(100%,100%,100%);fill-opacity:1;" d="M 37.996094 84.519531 L 41.914062 80.601562 L 47.945312 86.636719 L 38.351562 85.96875 C 38.011719 85.941406 37.730469 85.703125 37.648438 85.375 C 37.570312 85.042969 37.710938 84.699219 38 84.523438 Z M 37.996094 84.519531 "/>
<path style=" stroke:none;fill-rule:nonzero;fill:rgb(100%,42.352941%,21.568627%);fill-opacity:1;" d="M 48.0625 87.222656 L 38.503906 86.558594 C 37.9375 86.503906 37.449219 86.117188 37.25 85.597656 C 37.050781 85.078125 37.171875 84.464844 37.566406 84.050781 L 41.480469 80.132812 C 41.753906 79.871094 42.1875 79.871094 42.460938 80.132812 L 48.453125 86.125 C 48.625 86.359375 48.625 86.675781 48.453125 86.90625 C 48.363281 87.054688 48.222656 87.164062 48.0625 87.222656 Z M 38.503906 85.03125 L 46.335938 85.539062 L 42.03125 81.503906 Z M 38.503906 85.03125 "/>
<path style=" stroke:none;fill-rule:nonzero;fill:rgb(100%,100%,100%);fill-opacity:1;" d="M 65.097656 64.117188 L 57.183594 65.332031 L 61.765625 60.792969 Z M 65.097656 64.117188 "/>
<path style=" stroke:none;fill-rule:nonzero;fill:rgb(100%,42.352941%,21.568627%);fill-opacity:1;" d="M 57.183594 66.074219 C 56.917969 66.082031 56.667969 65.925781 56.558594 65.683594 C 56.386719 65.449219 56.386719 65.132812 56.558594 64.898438 L 61.101562 60.316406 C 61.386719 60.050781 61.832031 60.050781 62.117188 60.316406 L 65.449219 63.644531 C 65.585938 63.859375 65.585938 64.136719 65.449219 64.351562 C 65.382812 64.613281 65.167969 64.8125 64.902344 64.859375 L 57.070312 66.074219 Z M 61.765625 61.804688 L 59.222656 64.351562 L 63.609375 63.6875 Z M 61.765625 61.804688 "/>
<path style=" stroke:none;fill-rule:nonzero;fill:rgb(100%,100%,100%);fill-opacity:1;" d="M 65.097656 64.117188 L 59.574219 64.820312 C 59.269531 64.890625 58.957031 64.75 58.804688 64.480469 C 58.652344 64.210938 58.695312 63.871094 58.910156 63.644531 L 61.769531 60.785156 Z M 65.097656 64.117188 "/>
<path style=" stroke:none;fill-rule:nonzero;fill:rgb(100%,42.352941%,21.568627%);fill-opacity:1;" d="M 59.417969 65.566406 C 58.898438 65.5625 58.417969 65.277344 58.164062 64.824219 C 57.859375 64.269531 57.953125 63.582031 58.398438 63.136719 L 61.257812 60.277344 C 61.546875 60.011719 61.992188 60.011719 62.277344 60.277344 L 65.605469 63.609375 C 65.808594 63.800781 65.878906 64.09375 65.785156 64.355469 C 65.691406 64.617188 65.453125 64.800781 65.175781 64.824219 L 59.695312 65.527344 Z M 59.417969 64.117188 L 63.570312 63.609375 L 61.730469 61.769531 L 59.378906 64.117188 Z M 93.488281 35.804688 C 93.335938 35.546875 93.015625 35.445312 92.742188 35.570312 C 92.613281 35.636719 92.515625 35.75 92.46875 35.890625 C 92.425781 36.03125 92.441406 36.183594 92.507812 36.3125 C 92.78125 36.890625 92.707031 37.574219 92.3125 38.074219 C 92.214844 38.171875 92.160156 38.308594 92.167969 38.445312 C 92.167969 38.585938 92.21875 38.71875 92.3125 38.820312 C 92.414062 38.859375 92.527344 38.859375 92.625 38.820312 C 92.8125 38.863281 93.007812 38.804688 93.136719 38.660156 C 93.792969 37.855469 93.929688 36.742188 93.488281 35.800781 Z M 93.488281 35.804688 "/>
</g>
</svg>
