<?xml version="1.0" encoding="UTF-8"?>
<svg xmlns="http://www.w3.org/2000/svg" xmlns:xlink="http://www.w3.org/1999/xlink" width="120pt" height="123pt" viewBox="0 0 120 123" version="1.1">
<g id="surface1">
<path style=" stroke:none;fill-rule:nonzero;fill:rgb(0%,0%,0%);fill-opacity:1;" d="M 119.535156 73.644531 C 118.816406 71.480469 116.929688 69.972656 114.492188 69.609375 C 113.34375 69.441406 112.027344 69.511719 110.46875 69.832031 C 107.753906 70.386719 105.742188 70.601562 104.269531 70.640625 C 109.820312 61.332031 114.332031 50.714844 116.929688 40.71875 C 121.128906 24.558594 118.882812 17.199219 116.261719 13.867188 C 109.320312 5.054688 99.195312 0.316406 86.976562 0.171875 C 80.460938 0.09375 74.738281 1.371094 71.753906 2.292969 C 68.976562 1.804688 65.988281 1.53125 62.851562 1.484375 C 56.976562 1.390625 51.785156 2.664062 47.347656 5.28125 C 44.890625 4.453125 40.949219 3.289062 36.398438 2.546875 C 25.6875 0.800781 17.058594 2.160156 10.746094 6.59375 C 3.105469 11.960938 -0.4375 21.28125 0.214844 34.304688 C 0.425781 38.4375 2.75 51.015625 6.414062 62.945312 C 8.519531 69.800781 10.765625 75.496094 13.089844 79.871094 C 16.382812 86.074219 19.90625 89.726562 23.863281 91.035156 C 26.082031 91.769531 30.109375 92.285156 34.347656 88.777344 C 34.886719 89.425781 35.601562 90.066406 36.554688 90.664062 C 37.761719 91.421875 39.238281 92.039062 40.714844 92.40625 C 46.03125 93.726562 51.007812 93.394531 55.257812 91.542969 C 55.285156 92.296875 55.304688 93.011719 55.320312 93.632812 C 55.347656 94.636719 55.378906 95.621094 55.414062 96.542969 C 55.664062 102.773438 56.09375 107.621094 57.355469 111.007812 C 57.425781 111.195312 57.519531 111.480469 57.617188 111.78125 C 58.246094 113.699219 59.300781 116.910156 61.984375 119.425781 C 64.761719 122.03125 68.121094 122.832031 71.199219 122.832031 C 72.742188 122.832031 74.214844 122.628906 75.503906 122.355469 C 80.109375 121.375 85.335938 119.878906 89.117188 114.527344 C 92.695312 109.46875 94.429688 101.847656 94.746094 89.84375 C 94.785156 89.503906 94.824219 89.179688 94.859375 88.871094 L 94.933594 88.234375 L 95.777344 88.308594 L 95.996094 88.324219 C 100.683594 88.535156 106.417969 87.546875 109.9375 85.921875 C 112.71875 84.640625 121.632812 79.960938 119.535156 73.644531 "/>
<path style=" stroke:none;fill-rule:nonzero;fill:rgb(20%,40.392157%,56.862745%);fill-opacity:1;" d="M 111.519531 74.875 C 97.578125 77.730469 96.621094 73.042969 96.621094 73.042969 C 111.339844 51.335938 117.492188 23.785156 112.183594 17.039062 C 97.695312 -1.355469 72.621094 7.34375 72.199219 7.570312 L 72.066406 7.59375 C 69.3125 7.027344 66.230469 6.6875 62.765625 6.632812 C 56.457031 6.527344 51.671875 8.273438 48.042969 11.011719 C 48.042969 11.011719 3.308594 -7.304688 5.390625 34.046875 C 5.832031 42.84375 18.078125 100.605469 32.679688 83.15625 C 38.015625 76.777344 43.175781 71.382812 43.175781 71.382812 C 45.738281 73.074219 48.804688 73.9375 52.019531 73.628906 L 52.265625 73.417969 C 52.191406 74.210938 52.226562 74.984375 52.367188 75.902344 C 48.605469 80.078125 49.710938 80.8125 42.191406 82.351562 C 34.582031 83.910156 39.050781 86.683594 41.96875 87.410156 C 45.507812 88.289062 53.695312 89.535156 59.226562 81.839844 L 59.003906 82.71875 C 60.480469 83.890625 61.515625 90.347656 61.339844 96.203125 C 61.167969 102.058594 61.050781 106.078125 62.210938 109.21875 C 63.375 112.359375 64.53125 119.425781 74.417969 117.320312 C 82.679688 115.558594 86.960938 111 87.554688 103.394531 C 87.980469 97.988281 88.933594 98.785156 88.996094 93.953125 L 89.761719 91.664062 C 90.648438 84.335938 89.902344 81.96875 94.992188 83.070312 L 96.230469 83.179688 C 99.976562 83.347656 104.878906 82.578125 107.757812 81.25 C 113.953125 78.390625 117.628906 73.621094 111.515625 74.875 L 111.519531 74.875 "/>
<path style=" stroke:none;fill-rule:nonzero;fill:rgb(100%,100%,100%);fill-opacity:1;" d="M 50.660156 37.980469 C 49.40625 37.804688 48.265625 37.964844 47.691406 38.398438 C 47.367188 38.644531 47.265625 38.925781 47.238281 39.121094 C 47.167969 39.632812 47.53125 40.203125 47.753906 40.496094 C 48.386719 41.328125 49.304688 41.898438 50.21875 42.027344 C 50.351562 42.042969 50.484375 42.050781 50.613281 42.050781 C 52.132812 42.050781 53.519531 40.875 53.640625 40.007812 C 53.792969 38.917969 52.203125 38.191406 50.660156 37.980469 M 92.277344 38.015625 C 92.15625 37.160156 90.632812 36.917969 89.179688 37.117188 C 87.734375 37.320312 86.332031 37.96875 86.449219 38.824219 C 86.542969 39.488281 87.75 40.621094 89.179688 40.621094 C 89.300781 40.621094 89.421875 40.613281 89.542969 40.597656 C 90.5 40.464844 91.199219 39.863281 91.53125 39.515625 C 92.039062 38.988281 92.332031 38.398438 92.277344 38.015625 "/>
<path style=" stroke:none;fill-rule:nonzero;fill:rgb(100%,100%,100%);fill-opacity:1;" d="M 116.15625 74.550781 C 115.625 72.953125 113.914062 72.4375 111.070312 73.023438 C 102.632812 74.753906 99.609375 73.554688 98.617188 72.828125 C 105.175781 62.894531 110.574219 50.890625 113.484375 39.6875 C 114.863281 34.382812 115.625 29.453125 115.6875 25.4375 C 115.757812 21.027344 115.003906 17.789062 113.445312 15.808594 C 107.160156 7.832031 97.941406 3.550781 86.78125 3.433594 C 79.109375 3.347656 72.625 5.300781 71.367188 5.847656 C 68.722656 5.195312 65.835938 4.792969 62.695312 4.742188 C 56.933594 4.648438 51.957031 6.019531 47.835938 8.8125 C 46.042969 8.152344 41.414062 6.574219 35.757812 5.667969 C 25.972656 4.101562 18.199219 5.289062 12.648438 9.195312 C 6.03125 13.855469 2.972656 22.1875 3.566406 33.960938 C 3.765625 37.917969 6.035156 50.101562 9.617188 61.769531 C 14.335938 77.125 19.460938 85.820312 24.855469 87.609375 C 25.488281 87.816406 26.214844 87.964844 27.019531 87.964844 C 28.988281 87.964844 31.398438 87.082031 33.910156 84.082031 C 36.972656 80.433594 40.136719 76.871094 43.40625 73.402344 C 45.527344 74.535156 47.859375 75.164062 50.238281 75.230469 C 50.246094 75.292969 50.25 75.351562 50.257812 75.414062 C 49.847656 75.902344 49.445312 76.394531 49.050781 76.894531 C 47.402344 78.976562 47.058594 79.410156 41.742188 80.496094 C 40.230469 80.808594 36.214844 81.628906 36.15625 84.425781 C 36.09375 87.484375 40.902344 88.765625 41.453125 88.902344 C 43.359375 89.378906 45.199219 89.613281 46.957031 89.613281 C 51.222656 89.613281 54.976562 88.21875 57.980469 85.523438 C 57.886719 96.417969 58.34375 107.152344 59.660156 110.421875 C 60.738281 113.101562 63.371094 119.644531 71.691406 119.644531 C 72.910156 119.644531 74.253906 119.503906 75.730469 119.1875 C 84.414062 117.339844 88.183594 113.523438 89.640625 105.117188 C 90.421875 100.625 91.761719 89.894531 92.390625 84.140625 C 93.722656 84.550781 95.433594 84.742188 97.28125 84.738281 C 101.140625 84.738281 105.59375 83.925781 108.386719 82.636719 C 111.523438 81.1875 117.183594 77.636719 116.15625 74.550781 Z M 95.484375 35.660156 C 95.453125 37.359375 95.21875 38.902344 94.96875 40.511719 C 94.699219 42.242188 94.421875 44.03125 94.351562 46.207031 C 94.285156 48.320312 94.550781 50.519531 94.808594 52.648438 C 95.328125 56.941406 95.859375 61.363281 93.796875 65.726562 C 93.453125 65.125 93.148438 64.5 92.882812 63.859375 C 92.625 63.242188 92.070312 62.25 91.296875 60.875 C 88.296875 55.53125 81.273438 43.011719 84.871094 37.902344 C 85.941406 36.382812 88.660156 34.816406 95.484375 35.660156 Z M 87.210938 6.875 C 97.210938 7.09375 105.121094 10.8125 110.722656 17.925781 C 115.019531 23.382812 110.289062 48.207031 96.59375 69.621094 C 96.457031 69.449219 96.320312 69.273438 96.179688 69.101562 L 96.007812 68.886719 C 99.546875 63.078125 98.851562 57.332031 98.238281 52.238281 C 97.984375 50.144531 97.746094 48.171875 97.804688 46.316406 C 97.867188 44.351562 98.128906 42.664062 98.382812 41.035156 C 98.695312 39.023438 99.011719 36.945312 98.921875 34.496094 C 98.988281 34.238281 99.015625 33.933594 98.980469 33.574219 C 98.757812 31.222656 96.058594 24.1875 90.554688 17.820312 C 87.542969 14.339844 83.15625 10.441406 77.160156 7.8125 C 79.738281 7.285156 83.265625 6.789062 87.210938 6.875 Z M 31.253906 81.886719 C 28.488281 85.191406 26.578125 84.558594 25.949219 84.351562 C 21.859375 82.996094 17.109375 74.398438 12.921875 60.769531 C 9.300781 48.972656 7.183594 37.113281 7.015625 33.789062 C 6.488281 23.269531 9.050781 15.9375 14.640625 12 C 23.738281 5.589844 38.691406 9.425781 44.699219 11.371094 C 44.613281 11.457031 44.523438 11.535156 44.4375 11.621094 C 34.578125 21.519531 34.8125 38.425781 34.835938 39.460938 C 34.835938 39.859375 34.867188 40.425781 34.914062 41.203125 C 35.085938 44.046875 35.402344 49.339844 34.558594 55.332031 C 33.773438 60.902344 35.5 66.355469 39.296875 70.292969 C 39.6875 70.695312 40.09375 71.078125 40.523438 71.441406 C 38.832031 73.238281 35.160156 77.214844 31.253906 81.886719 Z M 41.789062 67.914062 C 38.730469 64.742188 37.34375 60.332031 37.976562 55.808594 C 38.867188 49.476562 38.539062 43.960938 38.363281 41 C 38.339844 40.582031 38.316406 40.21875 38.304688 39.933594 C 39.746094 38.664062 46.417969 35.109375 51.179688 36.195312 C 53.351562 36.6875 54.675781 38.160156 55.226562 40.6875 C 58.074219 53.777344 55.605469 59.234375 53.617188 63.621094 C 53.207031 64.523438 52.820312 65.378906 52.492188 66.261719 L 52.234375 66.945312 C 51.589844 68.671875 50.984375 70.277344 50.613281 71.800781 C 47.359375 71.792969 44.195312 70.410156 41.789062 67.914062 Z M 42.289062 85.570312 C 41.339844 85.335938 40.484375 84.925781 39.984375 84.585938 C 40.402344 84.390625 41.148438 84.125 42.441406 83.859375 C 48.691406 82.582031 49.65625 81.679688 51.765625 79.019531 C 52.25 78.40625 52.796875 77.714844 53.554688 76.875 L 53.558594 76.875 C 54.6875 75.617188 55.203125 75.828125 56.140625 76.214844 C 56.902344 76.527344 57.640625 77.472656 57.941406 78.515625 C 58.082031 79.007812 58.242188 79.941406 57.722656 80.667969 C 53.316406 86.796875 46.898438 86.71875 42.289062 85.570312 Z M 75.007812 115.832031 C 67.359375 117.460938 64.652344 113.582031 62.867188 109.148438 C 61.714844 106.285156 61.148438 93.378906 61.550781 79.125 C 61.554688 78.933594 61.527344 78.75 61.476562 78.578125 C 61.429688 78.238281 61.359375 77.902344 61.261719 77.570312 C 60.664062 75.496094 59.210938 73.761719 57.464844 73.042969 C 56.769531 72.757812 55.496094 72.234375 53.96875 72.621094 C 54.292969 71.285156 54.859375 69.777344 55.472656 68.144531 L 55.730469 67.457031 C 56.019531 66.683594 56.382812 65.878906 56.769531 65.03125 C 58.847656 60.441406 61.691406 54.15625 58.601562 39.960938 C 57.445312 34.644531 53.582031 32.046875 47.726562 32.652344 C 44.214844 33.011719 41.003906 34.417969 39.402344 35.226562 C 39.054688 35.402344 38.742188 35.566406 38.445312 35.730469 C 38.894531 30.375 40.582031 20.363281 46.902344 14.027344 C 50.882812 10.039062 56.179688 8.070312 62.636719 8.175781 C 75.359375 8.382812 83.519531 14.871094 88.121094 20.277344 C 92.089844 24.9375 94.238281 29.628906 95.09375 32.164062 C 88.648438 31.511719 84.261719 32.773438 82.039062 35.933594 C 77.203125 42.804688 84.683594 56.140625 88.28125 62.546875 C 88.941406 63.722656 89.507812 64.738281 89.6875 65.167969 C 90.859375 67.988281 92.375 69.871094 93.480469 71.246094 C 93.820312 71.667969 94.152344 72.078125 94.402344 72.433594 C 92.449219 72.992188 88.941406 74.285156 89.261719 80.746094 C 89.003906 83.988281 87.167969 99.171875 86.238281 104.535156 C 85.007812 111.621094 82.382812 114.257812 75.007812 115.832031 Z M 106.933594 79.523438 C 104.933594 80.445312 101.59375 81.136719 98.417969 81.285156 C 94.914062 81.445312 93.128906 80.894531 92.707031 80.554688 C 92.511719 76.527344 94.019531 76.105469 95.613281 75.660156 C 95.867188 75.589844 96.109375 75.519531 96.347656 75.4375 C 96.492188 75.558594 96.652344 75.675781 96.832031 75.792969 C 99.648438 77.640625 104.675781 77.839844 111.769531 76.382812 L 111.847656 76.367188 C 110.890625 77.257812 109.253906 78.453125 106.933594 79.523438 Z M 106.933594 79.523438 "/>
</g>
</svg>
