<?xml version="1.0" encoding="UTF-8"?>
<svg xmlns="http://www.w3.org/2000/svg" xmlns:xlink="http://www.w3.org/1999/xlink" width="120pt" height="119pt" viewBox="0 0 120 119" version="1.1">
<defs>
<linearGradient id="linear0" gradientUnits="userSpaceOnUse" x1="0.12959" y1="0.12039" x2="0.79639" y2="0.78201" gradientTransform="matrix(88.722656,0,0,88.570312,0.0664062,0.0351562)">
<stop offset="0" style="stop-color:rgb(21.960784%,49.411765%,72.156863%);stop-opacity:1;"/>
<stop offset="1" style="stop-color:rgb(21.176471%,41.176471%,58.039216%);stop-opacity:1;"/>
</linearGradient>
<linearGradient id="linear1" gradientUnits="userSpaceOnUse" x1="0.19128" y1="0.20579" x2="0.90742" y2="0.88429" gradientTransform="matrix(88.71875,0,0,88.574219,31.046875,30.019531)">
<stop offset="0" style="stop-color:rgb(100%,87.843137%,32.156863%);stop-opacity:1;"/>
<stop offset="1" style="stop-color:rgb(100%,76.470588%,19.215686%);stop-opacity:1;"/>
</linearGradient>
</defs>
<g id="surface1">
<path style=" stroke:none;fill-rule:nonzero;fill:url(#linear0);" d="M 59.484375 0.0351562 C 29.097656 0.0351562 30.996094 13.152344 30.996094 13.152344 L 31.03125 26.746094 L 60.027344 26.746094 L 60.027344 30.828125 L 19.511719 30.828125 C 19.511719 30.828125 0.0664062 28.632812 0.0664062 59.160156 C 0.0664062 89.6875 17.039062 88.605469 17.039062 88.605469 L 27.167969 88.605469 L 27.167969 74.4375 C 27.167969 74.4375 26.621094 57.539062 43.871094 57.539062 L 72.628906 57.539062 C 72.628906 57.539062 88.789062 57.800781 88.789062 41.992188 L 88.789062 15.851562 C 88.789062 15.851562 91.242188 0.0351562 59.484375 0.0351562 Z M 43.496094 9.175781 C 44.878906 9.171875 46.207031 9.71875 47.1875 10.695312 C 48.164062 11.667969 48.714844 12.992188 48.714844 14.367188 C 48.714844 15.746094 48.164062 17.070312 47.1875 18.042969 C 46.207031 19.015625 44.878906 19.5625 43.496094 19.5625 C 42.113281 19.5625 40.785156 19.015625 39.808594 18.042969 C 38.828125 17.070312 38.277344 15.746094 38.28125 14.367188 C 38.277344 12.992188 38.828125 11.667969 39.808594 10.695312 C 40.785156 9.71875 42.113281 9.171875 43.496094 9.175781 Z M 43.496094 9.175781 "/>
<path style=" stroke:none;fill-rule:nonzero;fill:url(#linear1);" d="M 60.347656 118.59375 C 90.734375 118.59375 88.839844 105.472656 88.839844 105.472656 L 88.804688 91.878906 L 59.808594 91.878906 L 59.808594 87.796875 L 100.324219 87.796875 C 100.324219 87.796875 119.765625 89.992188 119.765625 59.464844 C 119.765625 28.9375 102.796875 30.019531 102.796875 30.019531 L 92.667969 30.019531 L 92.667969 44.1875 C 92.667969 44.1875 93.210938 61.085938 75.964844 61.085938 L 47.203125 61.085938 C 47.203125 61.085938 31.046875 60.824219 31.046875 76.632812 L 31.046875 102.773438 C 31.046875 102.773438 28.59375 118.59375 60.347656 118.59375 Z M 76.339844 109.453125 C 74.953125 109.453125 73.628906 108.90625 72.648438 107.933594 C 71.667969 106.957031 71.121094 105.636719 71.121094 104.257812 C 71.121094 102.878906 71.667969 101.558594 72.648438 100.582031 C 73.625 99.609375 74.953125 99.0625 76.339844 99.0625 C 77.722656 99.0625 79.050781 99.609375 80.027344 100.582031 C 81.007812 101.558594 81.554688 102.878906 81.554688 104.257812 C 81.554688 105.636719 81.007812 106.957031 80.027344 107.929688 C 79.050781 108.90625 77.722656 109.453125 76.339844 109.453125 Z M 76.339844 109.453125 "/>
</g>
</svg>
