<?xml version="1.0" encoding="UTF-8"?>
<svg xmlns="http://www.w3.org/2000/svg" xmlns:xlink="http://www.w3.org/1999/xlink" width="120pt" height="120pt" viewBox="0 0 120 120" version="1.1">
<g id="surface1">
<path style=" stroke:none;fill-rule:evenodd;fill:rgb(21.176471%,77.254902%,94.117647%);fill-opacity:1;" d="M 43.996094 0.00390625 C 37.363281 0.0078125 31.996094 5.378906 32 12 C 31.996094 18.621094 37.367188 23.992188 44.003906 23.996094 L 56.003906 23.996094 L 56.003906 12.003906 C 56.007812 5.382812 50.636719 0.0117188 43.996094 0.00390625 C 44.003906 0.00390625 44.003906 0.00390625 43.996094 0.00390625 M 43.996094 32 L 12.003906 32 C 5.367188 32.007812 -0.00390625 37.378906 0 44 C -0.0117188 50.617188 5.363281 55.992188 11.996094 56 L 43.996094 56 C 50.628906 55.996094 56.003906 50.621094 56 44.003906 C 56.003906 37.378906 50.628906 32.007812 43.996094 32 Z M 43.996094 32 "/>
<path style=" stroke:none;fill-rule:evenodd;fill:rgb(18.039216%,71.372549%,49.019608%);fill-opacity:1;" d="M 120 44 C 120.003906 37.378906 114.632812 32.007812 107.996094 32 C 101.363281 32.007812 95.992188 37.378906 95.996094 44 L 95.996094 56 L 107.996094 56 C 114.632812 55.996094 120.003906 50.621094 120 44 Z M 88 44 L 88 12 C 88.003906 5.382812 82.636719 0.0117188 76.003906 0.00390625 C 69.371094 0.0078125 63.996094 5.378906 64 12 L 64 44 C 63.992188 50.617188 69.363281 55.992188 75.996094 56 C 82.632812 55.996094 88.003906 50.621094 88 44 Z M 88 44 "/>
<path style=" stroke:none;fill-rule:evenodd;fill:rgb(92.54902%,69.803922%,18.039216%);fill-opacity:1;" d="M 75.996094 119.996094 C 82.632812 119.992188 88.003906 114.621094 88 108 C 88.003906 101.378906 82.632812 96.007812 75.996094 96.003906 L 63.996094 96.003906 L 63.996094 108 C 63.992188 114.617188 69.363281 119.988281 75.996094 119.996094 Z M 75.996094 87.992188 L 107.996094 87.992188 C 114.632812 87.988281 120.003906 82.617188 120 75.996094 C 120.011719 69.378906 114.636719 64.003906 108.003906 63.996094 L 76.003906 63.996094 C 69.371094 64 63.996094 69.371094 64 75.992188 C 63.996094 82.617188 69.363281 87.988281 75.996094 87.992188 Z M 75.996094 87.992188 "/>
<path style=" stroke:none;fill-rule:evenodd;fill:rgb(87.843137%,11.764706%,35.294118%);fill-opacity:1;" d="M 0 75.996094 C -0.00390625 82.617188 5.367188 87.988281 12.003906 87.992188 C 18.636719 87.988281 24.007812 82.617188 24.003906 75.996094 L 24.003906 64 L 12.003906 64 C 5.367188 64.003906 -0.00390625 69.378906 0 75.996094 Z M 32 75.996094 L 32 107.996094 C 31.992188 114.617188 37.363281 119.988281 43.996094 119.996094 C 50.628906 119.992188 56.003906 114.621094 56 108 L 56 76.007812 C 56.007812 69.386719 50.636719 64.015625 44.003906 64.003906 C 37.363281 64.003906 31.996094 69.378906 32 75.996094 C 32 75.996094 32 76 32 75.996094 "/>
</g>
</svg>
