<?xml version="1.0" encoding="UTF-8"?>
<svg xmlns="http://www.w3.org/2000/svg" xmlns:xlink="http://www.w3.org/1999/xlink" width="300pt" height="210pt" viewBox="0 0 300 210" version="1.1">
<defs>
<filter id="alpha" filterUnits="objectBoundingBox" x="0%" y="0%" width="100%" height="100%">
  <feColorMatrix type="matrix" in="SourceGraphic" values="0 0 0 0 1 0 0 0 0 1 0 0 0 0 1 0 0 0 1 0"/>
</filter>
<mask id="mask0">
  <g filter="url(#alpha)">
<rect x="0" y="0" width="300" height="210" style="fill:rgb(0%,0%,0%);fill-opacity:0.4;stroke:none;"/>
  </g>
</mask>
<clipPath id="clip1">
  <rect x="0" y="0" width="300" height="210"/>
</clipPath>
<g id="surface5" clip-path="url(#clip1)">
<path style=" stroke:none;fill-rule:nonzero;fill:rgb(49.411765%,79.607843%,49.411765%);fill-opacity:1;" d="M 242.617188 94.492188 C 242.617188 97.96875 239.878906 100.789062 236.496094 100.789062 C 233.117188 100.789062 230.375 97.96875 230.375 94.492188 C 230.375 91.011719 233.117188 88.195312 236.496094 88.195312 C 239.878906 88.195312 242.617188 91.011719 242.617188 94.492188 Z M 242.617188 94.492188 "/>
</g>
<mask id="mask1">
  <g filter="url(#alpha)">
<rect x="0" y="0" width="300" height="210" style="fill:rgb(0%,0%,0%);fill-opacity:0.4;stroke:none;"/>
  </g>
</mask>
<clipPath id="clip2">
  <rect x="0" y="0" width="300" height="210"/>
</clipPath>
<g id="surface8" clip-path="url(#clip2)">
<path style=" stroke:none;fill-rule:nonzero;fill:rgb(49.411765%,79.607843%,49.411765%);fill-opacity:1;" d="M 246.75 104.851562 C 246.75 107.292969 244.828125 109.269531 242.457031 109.269531 C 240.085938 109.269531 238.164062 107.292969 238.164062 104.851562 C 238.164062 102.410156 240.085938 100.433594 242.457031 100.433594 C 244.828125 100.433594 246.75 102.410156 246.75 104.851562 Z M 246.75 104.851562 "/>
</g>
<mask id="mask2">
  <g filter="url(#alpha)">
<rect x="0" y="0" width="300" height="210" style="fill:rgb(0%,0%,0%);fill-opacity:0.4;stroke:none;"/>
  </g>
</mask>
<clipPath id="clip3">
  <rect x="0" y="0" width="300" height="210"/>
</clipPath>
<g id="surface11" clip-path="url(#clip3)">
<path style=" stroke:none;fill-rule:nonzero;fill:rgb(49.411765%,79.607843%,49.411765%);fill-opacity:1;" d="M 263.023438 180.34375 C 263.023438 182.785156 261.101562 184.761719 258.730469 184.761719 C 256.359375 184.761719 254.4375 182.785156 254.4375 180.34375 C 254.4375 177.902344 256.359375 175.925781 258.730469 175.925781 C 261.101562 175.925781 263.023438 177.902344 263.023438 180.34375 Z M 263.023438 180.34375 "/>
</g>
</defs>
<g id="surface1">
<path style=" stroke:none;fill-rule:nonzero;fill:rgb(24.705882%,23.921569%,33.72549%);fill-opacity:1;" d="M 295.28125 73.355469 C 285.535156 65.265625 275.785156 81.765625 275.785156 81.765625 L 275.785156 89.855469 L 274.84375 83.0625 L 270.753906 91.472656 L 270.441406 89.855469 C 267.609375 92.769531 270.125 106.683594 270.125 106.683594 C 270.125 106.683594 268.867188 100.859375 268.238281 99.238281 C 267.609375 97.621094 266.667969 95.355469 266.667969 95.355469 C 266.351562 97.296875 263.207031 99.886719 261.320312 102.152344 C 259.433594 104.417969 259.121094 108.625 259.121094 108.625 L 258.492188 107.652344 C 252.203125 114.125 257.234375 133.539062 257.234375 133.539062 C 248.425781 123.507812 255.660156 110.566406 255.660156 110.566406 C 254.089844 110.890625 251.574219 115.417969 251.574219 115.417969 C 251.574219 115.417969 244.023438 126.421875 244.652344 130.304688 C 245.28125 134.1875 243.710938 136.128906 243.710938 136.128906 C 242.03125 138.074219 241.230469 140.660156 241.507812 143.246094 L 240.878906 141.953125 C 238.152344 144.445312 238.929688 153.25 238.988281 153.882812 L 244.371094 167.105469 L 240.601562 162.335938 L 240.25 162.335938 L 240.25 165.25 C 238.050781 165.898438 241.195312 168.484375 241.195312 168.484375 C 239.9375 170.425781 240.566406 171.074219 240.566406 171.074219 L 240.566406 171.722656 C 240.566406 171.722656 240.566406 171.398438 241.507812 171.722656 C 242.453125 172.042969 241.507812 173.984375 241.507812 173.984375 C 241.507812 175.925781 244.652344 174.308594 244.652344 174.308594 L 247.046875 175.226562 C 247.046875 175.226562 248.742188 175.925781 250 175.925781 C 251.257812 175.925781 250.945312 175.28125 250.945312 174.957031 C 250.945312 174.632812 253.144531 174.632812 253.144531 173.984375 C 253.144531 173.339844 253.773438 173.664062 254.089844 173.339844 C 254.402344 173.015625 253.460938 172.042969 253.460938 172.042969 C 253.460938 172.042969 255.976562 172.367188 255.660156 172.042969 C 255.582031 171.953125 255.515625 171.847656 255.46875 171.738281 L 249.089844 171.308594 L 256.808594 168.738281 C 256.328125 168.367188 256.605469 167.515625 256.605469 167.515625 C 261.636719 166.867188 265.722656 162.660156 265.722656 161.691406 C 265.722656 160.71875 271.699219 145.835938 271.699219 145.835938 L 270.753906 145.1875 L 272.011719 144.21875 C 275.785156 141.953125 277.042969 134.507812 277.042969 134.507812 C 276.101562 136.128906 273.585938 136.773438 273.585938 136.773438 C 273.585938 136.773438 260.0625 142.597656 261.007812 140.65625 C 261.949219 138.714844 272.640625 134.832031 272.640625 134.832031 C 281.761719 132.246094 284.589844 116.714844 284.589844 116.714844 L 269.8125 124.800781 L 281.445312 117.683594 C 286.792969 112.832031 288.992188 104.742188 288.992188 104.742188 L 276.730469 110.242188 L 288.992188 103.769531 L 296.855469 92.769531 C 296.855469 92.769531 305.03125 81.445312 295.28125 73.355469 Z M 295.28125 73.355469 "/>
<path style=" stroke:none;fill-rule:nonzero;fill:rgb(94.901961%,94.901961%,94.901961%);fill-opacity:1;" d="M 111.605469 46.667969 C 111.464844 47.585938 111.730469 48.515625 112.332031 49.210938 L 112.394531 49.304688 C 113.917969 51.609375 115.105469 54.136719 115.90625 56.796875 L 115.949219 56.9375 C 116.089844 57.632812 116.410156 58.277344 116.871094 58.808594 C 116.988281 58.960938 117.109375 59.113281 117.21875 59.273438 C 118.191406 60.734375 118.21875 62.652344 117.292969 64.144531 L 117.25 64.214844 C 117.167969 64.320312 117.105469 64.441406 117.070312 64.574219 C 117.035156 64.792969 117.203125 64.988281 117.484375 65.289062 C 117.679688 65.480469 117.851562 65.703125 117.984375 65.945312 C 118.359375 66.695312 118 67.585938 117.449219 68.074219 C 117.023438 68.425781 116.527344 68.679688 116 68.816406 C 116.371094 69.746094 116.003906 70.835938 115.675781 71.8125 C 115.550781 72.191406 115.429688 72.550781 115.351562 72.890625 C 115.230469 73.464844 115.152344 74.046875 115.113281 74.632812 C 115.078125 75.023438 115.042969 75.433594 114.984375 75.832031 C 114.789062 77.121094 114.34375 78.078125 113.65625 78.679688 C 113.523438 78.808594 113.359375 78.898438 113.179688 78.945312 C 112.769531 79.027344 112.402344 78.78125 112.136719 78.269531 C 112.125 78.292969 112.117188 78.316406 112.105469 78.339844 C 111.507812 79.804688 110.835938 81.253906 110.183594 82.660156 L 108.382812 86.546875 C 107.578125 88.28125 106.671875 90.234375 105.207031 91.726562 C 105.441406 95.3125 105.929688 98.882812 106.667969 102.398438 C 107.636719 106.847656 108.699219 112.105469 109.261719 117.382812 C 109.414062 119.277344 109.421875 121.179688 109.285156 123.074219 C 109.179688 124.664062 109.164062 126.257812 109.238281 127.851562 C 110.992188 124.871094 112.566406 121.871094 112.664062 118.445312 C 115.882812 125.058594 116.304688 132.179688 116.613281 139.570312 C 116.839844 144.960938 117.140625 150.371094 118.214844 155.65625 C 119.378906 161.394531 121.46875 167.226562 120.308594 172.96875 C 120.054688 174.164062 119.699219 175.335938 119.257812 176.472656 C 117.476562 181.179688 121.75 186.011719 126.460938 184.585938 C 126.496094 184.578125 126.527344 184.566406 126.558594 184.558594 C 128.292969 184.011719 129.769531 182.917969 131.199219 181.722656 C 131.792969 183.609375 132.667969 185.386719 133.800781 186.988281 C 134.347656 187.855469 135.066406 188.589844 135.90625 189.152344 C 136.15625 189.304688 136.421875 189.425781 136.699219 189.515625 L 138.75 189.511719 C 138.761719 189.507812 138.769531 189.507812 138.78125 189.5 C 140.210938 188.90625 140.828125 187.152344 140.925781 185.566406 C 141.109375 182.636719 140.105469 179.835938 138.867188 177.25 C 138.835938 177.183594 138.800781 177.105469 138.765625 177.019531 C 140.648438 176.648438 142.695312 176.597656 143.683594 174.503906 C 143.933594 173.960938 144.070312 173.371094 144.085938 172.769531 C 144.164062 170.757812 143.273438 168.996094 142.640625 167.167969 C 141.257812 163.183594 141.101562 158.875 140.972656 154.648438 C 140.84375 150.445312 140.726562 146.242188 140.621094 142.039062 C 140.554688 139.292969 140.492188 136.527344 139.96875 133.832031 C 139.742188 132.652344 139.425781 131.488281 139.273438 130.296875 C 138.710938 125.839844 140.476562 121.417969 140.585938 116.925781 C 140.710938 111.871094 140.386719 106.789062 139.964844 101.75 C 139.554688 96.886719 139.769531 91.996094 140.164062 87.121094 C 141.546875 85.9375 142.578125 84.34375 143.566406 82.78125 C 144.332031 81.582031 145.09375 80.382812 145.855469 79.179688 C 146.125 78.757812 146.394531 78.332031 146.660156 77.910156 C 147.425781 77.78125 148.152344 77.46875 148.773438 76.988281 C 148.777344 76.988281 148.777344 76.984375 148.78125 76.984375 C 148.871094 77.367188 148.957031 77.753906 149.039062 78.136719 C 149.128906 78.554688 149.339844 79.078125 149.757812 79.050781 C 149.886719 79.035156 150.007812 78.988281 150.113281 78.90625 C 150.929688 78.367188 151.390625 77.40625 151.667969 76.449219 C 151.941406 75.492188 152.070312 74.492188 152.421875 73.558594 C 152.921875 72.230469 154.089844 70.734375 153.453125 69.464844 C 154.085938 69.421875 154.695312 69.238281 155.25 68.921875 C 155.773438 68.566406 156.140625 67.875 155.933594 67.265625 C 155.726562 66.664062 155.015625 66.183594 155.199219 65.574219 C 155.277344 65.382812 155.394531 65.207031 155.539062 65.066406 C 156.5625 63.8125 156.765625 62.050781 156.058594 60.585938 C 155.855469 60.1875 155.589844 59.824219 155.414062 59.414062 C 155.230469 58.914062 155.105469 58.390625 155.046875 57.859375 C 154.601562 55.140625 153.765625 52.503906 152.566406 50.039062 C 152.292969 49.558594 152.097656 49.035156 151.996094 48.488281 C 151.972656 47.90625 152.027344 47.328125 152.160156 46.761719 C 152.511719 44.507812 151.980469 42.179688 151.046875 40.109375 C 150.976562 39.957031 150.902344 39.8125 150.832031 39.664062 C 150.878906 39.265625 150.886719 38.859375 150.851562 38.457031 C 150.769531 37.007812 150.511719 35.578125 150.089844 34.191406 C 149.65625 32.796875 148.785156 31.59375 147.613281 30.765625 C 146.460938 30.019531 145.0625 29.8125 143.714844 29.621094 C 142.261719 29.414062 140.808594 29.210938 139.355469 29.003906 C 139.632812 28.703125 139.792969 28.3125 139.804688 27.898438 C 140.039062 22.992188 143.175781 15.152344 140.421875 8.453125 C 137.554688 1.488281 130.257812 0.167969 130.257812 0.167969 C 130.257812 0.167969 123.230469 -1.761719 117.355469 7.421875 C 111.878906 15.984375 104.820312 24.003906 113.765625 27.425781 L 116.132812 22.320312 L 116.414062 28.199219 C 117.714844 28.476562 119.027344 28.683594 120.351562 28.816406 C 120.589844 28.839844 120.828125 28.867188 121.0625 28.890625 C 120.6875 29.113281 120.296875 29.308594 119.894531 29.472656 C 119.261719 29.691406 118.574219 29.730469 117.960938 30.003906 C 117.230469 30.335938 116.679688 30.96875 116.152344 31.585938 C 115.203125 32.699219 114.257812 33.808594 113.308594 34.917969 C 112.652344 35.625 112.082031 36.417969 111.621094 37.277344 C 111.105469 38.335938 110.925781 39.527344 110.734375 40.695312 C 110.691406 40.980469 110.636719 41.269531 110.589844 41.554688 C 111.277344 43.039062 111.628906 44.660156 111.621094 46.300781 C 111.617188 46.421875 111.613281 46.546875 111.605469 46.667969 Z M 145.777344 55.238281 C 145.785156 55.1875 145.796875 55.136719 145.804688 55.085938 C 146.191406 55.644531 146.523438 56.242188 146.792969 56.867188 C 147.972656 59.585938 148.285156 62.617188 147.691406 65.53125 C 147.074219 63.488281 146.488281 61.433594 146.058594 59.339844 C 145.78125 57.992188 145.570312 56.601562 145.777344 55.238281 Z M 145.777344 55.238281 "/>
<path style=" stroke:none;fill-rule:nonzero;fill:rgb(94.901961%,94.901961%,94.901961%);fill-opacity:1;" d="M 25.488281 193.878906 C 28.109375 193.160156 30.820312 192.847656 33.53125 192.949219 C 34.164062 189.464844 34.15625 185.894531 33.511719 182.414062 C 30.828125 183.558594 28.335938 185.128906 26.125 187.070312 C 26.191406 189.359375 25.976562 191.644531 25.488281 193.878906 Z M 25.488281 193.878906 "/>
<path style=" stroke:none;fill-rule:nonzero;fill:rgb(94.901961%,94.901961%,94.901961%);fill-opacity:1;" d="M 36.808594 193.539062 L 36.777344 193.632812 C 36.75 193.722656 33.941406 202.476562 26.867188 206.855469 C 24.730469 208.140625 22.390625 209.027344 19.957031 209.46875 C 22.3125 209.742188 29.144531 210.128906 34.878906 206.578125 C 41.9375 202.210938 44.652344 193.535156 44.652344 193.535156 C 42.050781 193.148438 39.410156 193.152344 36.808594 193.539062 Z M 36.808594 193.539062 "/>
<path style=" stroke:none;fill-rule:nonzero;fill:rgb(24.705882%,23.921569%,33.72549%);fill-opacity:1;" d="M 14.777344 209.957031 C 13.605469 209.960938 12.433594 209.886719 11.269531 209.730469 L 10.957031 209.855469 L 10.917969 209.679688 C 10.886719 209.675781 10.871094 209.671875 10.871094 209.671875 L 10.515625 209.605469 L 10.625 209.253906 C 10.625 209.253906 10.671875 209.113281 10.757812 208.863281 C 10.386719 206.625 9.523438 199.277344 12.855469 192.917969 C 16.773438 185.441406 25.140625 182.140625 25.226562 182.109375 L 25.5625 181.980469 L 25.640625 182.339844 C 26.34375 186.160156 26.289062 190.082031 25.488281 193.878906 C 29.089844 192.90625 32.84375 192.683594 36.53125 193.214844 L 36.886719 193.28125 L 36.777344 193.632812 C 36.75 193.722656 33.941406 202.476562 26.867188 206.855469 C 22.722656 209.421875 17.996094 209.957031 14.777344 209.957031 Z M 11.347656 209.089844 C 12.96875 209.316406 20.421875 210.089844 26.542969 206.300781 C 32.605469 202.546875 35.449219 195.472656 36.054688 193.796875 C 34.722656 193.613281 29.996094 193.136719 25.140625 194.652344 L 24.605469 194.820312 L 24.746094 194.261719 C 26.039062 189.148438 25.34375 184.234375 25.101562 182.863281 C 23.5 183.5625 16.765625 186.824219 13.410156 193.226562 C 10.128906 199.484375 11.035156 206.757812 11.394531 208.839844 L 11.410156 208.925781 L 11.378906 209.007812 C 11.367188 209.039062 11.359375 209.0625 11.347656 209.089844 Z M 11.347656 209.089844 "/>
<path style=" stroke:none;fill-rule:nonzero;fill:rgb(24.705882%,23.921569%,33.72549%);fill-opacity:1;" d="M 65.585938 209.394531 C 64.257812 209.429688 62.933594 209.183594 61.703125 208.671875 C 61.097656 208.429688 60.5625 208.023438 60.160156 207.496094 C 59.546875 206.625 59.464844 205.386719 59.914062 203.8125 C 60.550781 201.59375 62.222656 198.894531 64.164062 196.925781 C 62.832031 196.683594 61.535156 196.261719 60.3125 195.664062 C 58.300781 194.59375 56.621094 192.695312 55.175781 189.863281 C 50.121094 179.9375 51.917969 167.640625 53.359375 157.761719 C 55.265625 144.722656 57.050781 131.445312 58.777344 118.601562 L 58.785156 118.535156 C 59.378906 114.105469 59.996094 109.523438 60.023438 104.984375 C 60 103.808594 59.882812 102.640625 59.679688 101.484375 C 59.402344 99.617188 59.113281 97.6875 59.59375 95.804688 C 59.902344 94.414062 60.070312 92.992188 60.097656 91.5625 C 60.136719 90.519531 60.222656 89.480469 60.363281 88.445312 C 60.734375 86.0625 61.644531 83.796875 63.015625 81.839844 C 62.441406 81.46875 62.066406 80.84375 62.003906 80.148438 C 61.976562 79.375 62.113281 78.601562 62.402344 77.886719 L 66.820312 64.40625 C 67.210938 63.210938 67.617188 61.976562 67.898438 60.730469 C 68.21875 59.191406 68.4375 57.636719 68.554688 56.070312 C 68.855469 52.8125 69.054688 49.503906 69.148438 46.234375 L 69.152344 46.132812 C 69.1875 44.96875 69.222656 43.765625 69.597656 42.628906 C 69.953125 41.691406 70.425781 40.800781 71.003906 39.988281 L 73.386719 36.296875 C 73.824219 35.617188 74.320312 34.851562 75.074219 34.378906 C 75.425781 34.175781 75.792969 34.011719 76.175781 33.886719 C 76.4375 33.796875 76.695312 33.695312 76.945312 33.574219 C 76.996094 33.546875 77.046875 33.519531 77.105469 33.484375 C 75.882812 33.519531 74.660156 33.492188 73.441406 33.402344 L 73.203125 33.382812 L 72.34375 28.613281 L 70.957031 33.058594 L 70.675781 32.992188 C 68.226562 32.425781 66.6875 31.382812 65.964844 29.800781 C 64.4375 26.460938 66.984375 21.285156 69.683594 15.808594 C 70.261719 14.636719 70.855469 13.425781 71.417969 12.21875 C 76.09375 2.214844 83.511719 3.066406 83.585938 3.078125 C 83.636719 3.078125 91.179688 3.460938 94.964844 10.042969 C 97.558594 14.554688 97.253906 20.105469 97.003906 24.5625 C 96.871094 26.214844 96.84375 27.878906 96.925781 29.539062 C 96.949219 29.828125 96.917969 30.125 96.824219 30.402344 L 100.710938 30.410156 C 102.03125 30.414062 103.527344 30.417969 104.851562 31.039062 C 106.414062 31.773438 107.371094 33.183594 107.898438 34.238281 C 108.511719 35.578125 108.960938 36.988281 109.234375 38.4375 C 109.320312 38.820312 109.371094 39.210938 109.378906 39.605469 L 109.402344 39.640625 C 109.46875 39.742188 109.535156 39.84375 109.601562 39.945312 C 110.972656 42.15625 111.671875 44.445312 111.621094 46.566406 C 111.617188 46.6875 111.613281 46.8125 111.605469 46.933594 C 111.464844 47.851562 111.730469 48.78125 112.332031 49.476562 L 112.394531 49.570312 C 113.917969 51.875 115.105469 54.402344 115.90625 57.066406 L 115.949219 57.203125 C 116.089844 57.898438 116.410156 58.542969 116.871094 59.074219 C 116.988281 59.226562 117.109375 59.378906 117.21875 59.539062 C 118.191406 61 118.21875 62.917969 117.292969 64.410156 L 117.25 64.480469 C 117.167969 64.585938 117.105469 64.707031 117.070312 64.839844 C 117.035156 65.058594 117.203125 65.253906 117.484375 65.554688 C 117.679688 65.746094 117.851562 65.96875 117.984375 66.210938 C 118.359375 66.960938 118 67.851562 117.449219 68.339844 C 117.023438 68.691406 116.527344 68.945312 116 69.082031 C 116.371094 70.011719 116.003906 71.101562 115.675781 72.078125 C 115.550781 72.457031 115.429688 72.816406 115.351562 73.15625 C 115.230469 73.730469 115.152344 74.3125 115.113281 74.898438 C 115.078125 75.292969 115.042969 75.699219 114.984375 76.097656 C 114.789062 77.386719 114.34375 78.34375 113.65625 78.945312 C 113.523438 79.074219 113.359375 79.164062 113.179688 79.210938 C 112.769531 79.292969 112.402344 79.046875 112.136719 78.535156 C 112.125 78.558594 112.117188 78.582031 112.105469 78.605469 C 111.507812 80.070312 110.835938 81.519531 110.183594 82.925781 L 108.382812 86.8125 C 107.578125 88.546875 106.671875 90.503906 105.207031 91.992188 C 105.441406 95.578125 105.929688 99.148438 106.667969 102.664062 C 107.636719 107.113281 108.699219 112.371094 109.261719 117.648438 C 109.414062 119.542969 109.421875 121.445312 109.285156 123.339844 C 109.164062 125.902344 109.039062 128.550781 109.691406 131.035156 C 109.882812 131.777344 110.152344 132.523438 110.414062 133.238281 C 110.554688 133.632812 110.699219 134.027344 110.832031 134.421875 C 111.699219 137.023438 112.128906 139.78125 112.546875 142.445312 L 112.558594 142.519531 C 113.203125 146.640625 113.871094 150.828125 114.542969 154.960938 C 115.171875 158.851562 115.890625 163.261719 117.789062 167.046875 C 117.96875 167.40625 118.160156 167.761719 118.351562 168.117188 C 119.078125 169.46875 119.832031 170.867188 119.984375 172.515625 C 120.050781 173.160156 119.984375 173.808594 119.796875 174.425781 C 119.132812 176.496094 117.429688 177.035156 115.785156 177.558594 C 115.667969 177.597656 115.554688 177.632812 115.4375 177.671875 C 116.777344 179.742188 118.300781 182.492188 118.515625 185.644531 C 118.65625 187.726562 117.992188 189.40625 116.742188 190.140625 C 115.75 190.664062 114.582031 190.6875 113.570312 190.207031 L 113.816406 189.613281 C 114.644531 190.015625 115.609375 190 116.433594 189.578125 C 117.964844 188.679688 117.933594 186.371094 117.886719 185.6875 C 117.679688 182.617188 116.140625 179.90625 114.820312 177.886719 C 114.777344 177.820312 114.730469 177.746094 114.683594 177.664062 L 114.472656 177.316406 L 114.847656 177.1875 C 115.097656 177.101562 115.347656 177.019531 115.597656 176.941406 C 117.160156 176.445312 118.636719 175.976562 119.199219 174.222656 C 119.363281 173.691406 119.414062 173.132812 119.359375 172.578125 C 119.21875 171.0625 118.53125 169.785156 117.800781 168.429688 C 117.605469 168.070312 117.414062 167.710938 117.230469 167.34375 C 115.285156 163.46875 114.5625 159.003906 113.921875 155.070312 C 113.25 150.933594 112.582031 146.746094 111.9375 142.621094 L 111.925781 142.546875 C 111.511719 139.910156 111.085938 137.183594 110.234375 134.632812 C 110.105469 134.242188 109.964844 133.855469 109.824219 133.464844 C 109.558594 132.734375 109.285156 131.976562 109.082031 131.203125 C 108.40625 128.621094 108.535156 125.921875 108.65625 123.308594 C 108.789062 121.449219 108.785156 119.578125 108.636719 117.71875 C 108.078125 112.472656 107.019531 107.234375 106.054688 102.804688 C 105.296875 99.207031 104.800781 95.558594 104.566406 91.886719 L 104.554688 91.734375 L 104.664062 91.628906 C 106.109375 90.210938 107.015625 88.257812 107.8125 86.535156 L 109.613281 82.652344 C 110.265625 81.25 110.933594 79.804688 111.527344 78.355469 C 111.648438 78.089844 111.734375 77.804688 111.78125 77.515625 L 111.945312 76.21875 L 112.464844 77.65625 C 112.503906 77.761719 112.542969 77.867188 112.582031 77.972656 C 112.695312 78.296875 112.890625 78.609375 113.058594 78.574219 C 113.128906 78.546875 113.195312 78.507812 113.25 78.453125 C 113.820312 77.953125 114.191406 77.128906 114.363281 76 C 114.417969 75.621094 114.453125 75.222656 114.488281 74.839844 C 114.527344 74.222656 114.613281 73.609375 114.738281 73.007812 C 114.824219 72.632812 114.957031 72.242188 115.082031 71.867188 C 115.441406 70.804688 115.777344 69.800781 115.277344 69.066406 L 115.023438 68.691406 L 115.453125 68.570312 C 116.023438 68.449219 116.566406 68.207031 117.039062 67.851562 C 117.390625 67.535156 117.648438 66.957031 117.425781 66.507812 C 117.316406 66.320312 117.183594 66.152344 117.027344 66 C 116.714844 65.664062 116.359375 65.285156 116.449219 64.730469 C 116.496094 64.507812 116.59375 64.300781 116.726562 64.121094 L 116.769531 64.054688 C 117.542969 62.78125 117.515625 61.160156 116.707031 59.910156 C 116.605469 59.761719 116.492188 59.621094 116.382812 59.480469 C 115.871094 58.886719 115.515625 58.167969 115.347656 57.394531 L 115.304688 57.257812 C 114.523438 54.652344 113.363281 52.1875 111.875 49.9375 L 111.8125 49.84375 C 111.136719 49.03125 110.832031 47.960938 110.976562 46.902344 C 110.984375 46.785156 110.988281 46.667969 110.992188 46.550781 C 111.039062 44.558594 110.375 42.394531 109.070312 40.292969 C 109.011719 40.195312 108.945312 40.101562 108.882812 40.007812 L 108.753906 39.8125 L 108.753906 39.714844 C 108.75 39.332031 108.707031 38.953125 108.625 38.582031 C 108.359375 37.183594 107.929688 35.824219 107.339844 34.535156 C 106.859375 33.574219 105.992188 32.285156 104.589844 31.628906 C 103.390625 31.066406 101.964844 31.0625 100.707031 31.058594 L 95.699219 31.042969 L 96.050781 30.535156 C 96.246094 30.261719 96.332031 29.925781 96.296875 29.59375 C 96.214844 27.902344 96.242188 26.210938 96.378906 24.523438 C 96.621094 20.15625 96.921875 14.714844 94.425781 10.375 C 90.816406 4.101562 83.605469 3.722656 83.535156 3.722656 C 83.4375 3.710938 76.453125 2.933594 71.988281 12.5 C 71.421875 13.710938 70.824219 14.925781 70.246094 16.101562 C 67.617188 21.433594 65.136719 26.472656 66.53125 29.527344 C 67.140625 30.855469 68.449219 31.761719 70.535156 32.292969 L 72.507812 25.972656 L 73.734375 32.773438 C 74.84375 32.855469 76.09375 32.871094 77.441406 32.824219 L 78.136719 32.796875 L 79.386719 32.636719 L 78.148438 33.535156 C 77.855469 33.765625 77.546875 33.972656 77.222656 34.15625 C 76.949219 34.285156 76.671875 34.398438 76.386719 34.496094 C 76.042969 34.605469 75.714844 34.753906 75.402344 34.933594 C 74.765625 35.332031 74.3125 36.035156 73.910156 36.652344 L 71.527344 40.34375 C 70.980469 41.113281 70.535156 41.953125 70.195312 42.839844 C 69.847656 43.882812 69.816406 45.035156 69.78125 46.152344 L 69.777344 46.253906 C 69.683594 49.535156 69.480469 52.859375 69.179688 56.128906 C 69.0625 57.726562 68.839844 59.3125 68.511719 60.875 C 68.222656 62.152344 67.8125 63.402344 67.417969 64.613281 L 62.996094 78.09375 C 62.742188 78.722656 62.617188 79.398438 62.632812 80.082031 C 62.6875 80.632812 63.03125 81.253906 63.582031 81.371094 L 64.070312 81.476562 L 63.765625 81.882812 C 62.320312 83.835938 61.363281 86.125 60.984375 88.546875 C 60.847656 89.558594 60.761719 90.578125 60.726562 91.597656 C 60.695312 93.070312 60.519531 94.535156 60.203125 95.972656 C 59.753906 97.71875 60.019531 99.5 60.300781 101.386719 C 60.511719 102.574219 60.628906 103.78125 60.652344 104.988281 C 60.625 109.570312 60.003906 114.171875 59.40625 118.625 L 59.398438 118.691406 C 57.671875 131.535156 55.890625 144.816406 53.984375 157.855469 C 52.550781 167.644531 50.773438 179.824219 55.734375 189.5625 C 57.117188 192.273438 58.707031 194.082031 60.601562 195.089844 C 61.816406 195.675781 63.101562 196.089844 64.421875 196.320312 L 65.488281 196.542969 L 65.03125 196.972656 C 62.984375 198.890625 61.171875 201.714844 60.519531 203.992188 C 60.125 205.367188 60.175781 206.417969 60.671875 207.117188 C 61.007812 207.550781 61.449219 207.882812 61.957031 208.078125 C 63.121094 208.601562 67.617188 209.085938 67.300781 209.210938 C 66.992188 209.316406 66.667969 209.375 66.339844 209.375 C 66.082031 209.386719 65.832031 209.394531 65.585938 209.394531 Z M 104.109375 82.242188 L 104.078125 81.550781 C 104.070312 81.394531 104.0625 81.238281 104.054688 81.082031 L 104.039062 80.828125 L 104.328125 80.738281 C 104.378906 80.722656 104.429688 80.707031 104.480469 80.6875 C 104.871094 80.519531 105.242188 80.300781 105.585938 80.042969 L 105.773438 79.914062 C 106.125 79.675781 106.503906 79.441406 106.964844 79.179688 L 108.0625 78.554688 L 107.382812 79.636719 C 106.910156 80.441406 106.222656 81.085938 105.402344 81.496094 C 105.140625 81.625 104.871094 81.773438 104.558594 81.964844 Z M 109.539062 67.042969 L 109.027344 65.914062 C 108.050781 63.742188 107.261719 61.898438 106.59375 59.972656 C 106.144531 58.679688 105.734375 57.28125 105.765625 55.832031 C 105.765625 55.796875 105.769531 55.757812 105.773438 55.722656 L 105.808594 54.910156 L 106.316406 55.460938 C 106.785156 55.976562 107.207031 56.539062 107.566406 57.140625 C 109.125 59.730469 109.84375 62.761719 109.625 65.800781 Z M 106.417969 56.578125 C 106.542969 57.664062 106.800781 58.734375 107.1875 59.757812 C 107.710938 61.273438 108.316406 62.742188 109.03125 64.367188 C 108.96875 61.929688 108.277344 59.554688 107.03125 57.484375 C 106.84375 57.171875 106.636719 56.867188 106.417969 56.578125 Z M 106.417969 56.578125 "/>
<path style=" stroke:none;fill-rule:nonzero;fill:rgb(24.705882%,23.921569%,33.72549%);fill-opacity:1;" d="M 67.925781 209.578125 L 0 209.902344 L 0 209.253906 L 67.925781 208.933594 Z M 67.925781 209.578125 "/>
<path style=" stroke:none;fill-rule:nonzero;fill:rgb(24.705882%,23.921569%,33.72549%);fill-opacity:1;" d="M 243.394531 190.164062 L 113.523438 190.488281 L 113.523438 189.839844 L 243.394531 189.515625 Z M 243.394531 190.164062 "/>
<path style=" stroke:none;fill-rule:nonzero;fill:rgb(49.411765%,79.607843%,49.411765%);fill-opacity:1;" d="M 296.164062 74.71875 C 294.460938 76.65625 258.355469 118.40625 244.488281 186.554688 C 244.332031 187.320312 244.175781 188.09375 244.023438 188.871094 C 243.796875 190.035156 242.453125 191.136719 242.136719 188.871094 C 242.136719 188.871094 242.324219 187.902344 242.71875 186.125 C 245.683594 172.753906 260.40625 113.5625 296.164062 74.71875 Z M 296.164062 74.71875 "/>
<path style=" stroke:none;fill-rule:nonzero;fill:rgb(24.705882%,23.921569%,33.72549%);fill-opacity:1;" d="M 244.488281 186.554688 C 244.332031 187.320312 244.175781 188.09375 244.023438 188.871094 C 243.796875 190.035156 242.453125 191.136719 242.136719 188.871094 C 242.136719 188.871094 242.324219 187.902344 242.71875 186.125 C 243.332031 186.136719 243.933594 186.28125 244.488281 186.554688 Z M 244.488281 186.554688 "/>
<path style=" stroke:none;fill-rule:nonzero;fill:rgb(24.705882%,23.921569%,33.72549%);fill-opacity:1;" d="M 84.585938 17.078125 L 83.902344 12.449219 L 82.835938 16.707031 L 79.875 16.824219 L 79.875 14.632812 L 78.945312 16.859375 L 73.859375 17.074219 L 73.832031 16.425781 L 78.523438 16.230469 L 80.503906 11.476562 L 80.503906 16.152344 L 82.34375 16.078125 L 84.0625 9.222656 L 85.125 16.421875 L 93.058594 16.253906 L 92.949219 14.105469 L 93.578125 14.070312 L 93.71875 16.886719 Z M 84.585938 17.078125 "/>
<path style=" stroke:none;fill-rule:nonzero;fill:rgb(24.705882%,23.921569%,33.72549%);fill-opacity:1;" d="M 79.84375 167.023438 C 79.644531 165.816406 79.414062 164.617188 79.15625 163.464844 C 78.925781 162.421875 78.667969 161.363281 78.417969 160.34375 C 78.007812 158.667969 77.582031 156.9375 77.261719 155.207031 C 76.773438 152.550781 76.519531 149.855469 76.503906 147.152344 C 76.464844 145.203125 76.636719 143.257812 77.027344 141.351562 C 77.542969 138.988281 78.523438 136.699219 79.46875 134.488281 C 81.023438 130.863281 82.488281 127.441406 82.101562 123.710938 L 81.972656 122.433594 L 82.675781 123.496094 C 86.621094 129.449219 87.996094 136.027344 89.386719 144.011719 C 90.316406 149.375 91.300781 154.609375 93.046875 159.683594 C 93.460938 160.882812 93.925781 162.109375 94.375 163.292969 C 94.605469 163.894531 94.835938 164.496094 95.0625 165.101562 L 94.472656 165.332031 C 94.25 164.730469 94.019531 164.128906 93.792969 163.527344 C 93.339844 162.339844 92.871094 161.109375 92.453125 159.898438 C 90.691406 154.78125 89.703125 149.515625 88.765625 144.128906 C 87.46875 136.667969 86.183594 130.453125 82.792969 124.863281 C 82.800781 128.3125 81.402344 131.578125 80.046875 134.75 C 79.109375 136.933594 78.140625 139.191406 77.640625 141.492188 C 77.261719 143.351562 77.09375 145.25 77.132812 147.148438 C 77.148438 149.8125 77.398438 152.46875 77.882812 155.085938 C 78.195312 156.796875 78.617188 158.519531 79.027344 160.183594 C 79.277344 161.210938 79.539062 162.269531 79.769531 163.320312 C 80.027344 164.484375 80.261719 165.695312 80.460938 166.917969 Z M 79.84375 167.023438 "/>
<use xlink:href="#surface5" mask="url(#mask0)"/>
<use xlink:href="#surface8" mask="url(#mask1)"/>
<use xlink:href="#surface11" mask="url(#mask2)"/>
</g>
</svg>
