<?xml version="1.0" encoding="UTF-8"?>
<svg xmlns="http://www.w3.org/2000/svg" xmlns:xlink="http://www.w3.org/1999/xlink" width="80pt" height="80pt" viewBox="0 0 80 80" version="1.1">
<g id="surface1">
<path style=" stroke:none;fill-rule:nonzero;fill:rgb(96.078431%,96.078431%,96.078431%);fill-opacity:1;" d="M 79.992188 40 C 79.992188 62.089844 62.070312 79.980469 39.980469 79.980469 C 17.894531 79.980469 0.0078125 62.089844 0.0078125 40 C 0.0078125 17.910156 17.910156 0 40 0 C 62.089844 0 79.992188 17.910156 79.992188 40 Z M 79.992188 40 "/>
<path style=" stroke:none;fill-rule:nonzero;fill:rgb(77.647059%,88.627451%,100%);fill-opacity:1;" d="M 33.574219 1.410156 C 31.628906 1.429688 29.542969 1.625 27.386719 2.035156 C 11.46875 7.339844 0.0078125 22.324219 0.0078125 40 C 0.0078125 62.089844 17.910156 80 40 80 C 62.089844 80 79.992188 62.070312 79.992188 39.980469 C 79.992188 36.351562 79.480469 32.839844 78.578125 29.488281 C 75.472656 30.113281 71.9375 30.171875 69.183594 27.410156 C 63.011719 21.226562 53.65625 1.332031 33.574219 1.410156 Z M 33.574219 1.410156 "/>
<path style=" stroke:none;fill-rule:nonzero;fill:rgb(59.607843%,76.470588%,100%);fill-opacity:1;" d="M 26.265625 7.84375 C 21.136719 7.886719 15.257812 9.53125 10.679688 12.789062 C 4.058594 19.929688 0.0078125 29.484375 0.0078125 39.980469 C 0.0078125 62.074219 17.910156 79.980469 40 79.980469 C 62.089844 79.980469 79.992188 62.074219 79.992188 39.980469 C 79.992188 39.667969 79.972656 39.355469 79.972656 39.058594 C 74.882812 43.238281 66 43.042969 60.832031 37.761719 C 51.21875 27.660156 45.933594 12.125 30.664062 8.296875 C 29.308594 8.003906 27.832031 7.84375 26.265625 7.84375 Z M 26.265625 7.84375 "/>
<path style=" stroke:none;fill-rule:nonzero;fill:rgb(30.980392%,55.686275%,96.078431%);fill-opacity:1;" d="M 17.144531 23.304688 C 7.949219 23.304688 1.679688 28.894531 0.0859375 37.625 C 0.0507812 38.410156 0.0078125 39.195312 0.0078125 39.980469 C 0.0078125 62.074219 17.910156 79.980469 40 79.980469 C 59.082031 79.980469 75.039062 66.621094 79.027344 48.75 C 73.207031 58.632812 60.847656 61.382812 48.9375 51.300781 C 34.695312 37.667969 34.121094 23.914062 17.144531 23.304688 Z M 17.144531 23.304688 "/>
<path style=" stroke:none;fill-rule:nonzero;fill:rgb(17.647059%,39.607843%,86.27451%);fill-opacity:1;" d="M 12.332031 43.46875 C 7.144531 43.828125 3.253906 48.296875 3.449219 56.183594 C 9.65625 70.210938 23.671875 80 40 80 C 52.832031 80 64.230469 73.957031 71.539062 64.578125 C 64.382812 70.425781 49.824219 73.644531 36.246094 62.8125 C 26.265625 53.574219 22.785156 43.238281 12.332031 43.46875 Z M 12.332031 43.46875 "/>
</g>
</svg>
