<?xml version="1.0" encoding="UTF-8"?>
<svg xmlns="http://www.w3.org/2000/svg" xmlns:xlink="http://www.w3.org/1999/xlink" width="300pt" height="210pt" viewBox="0 0 300 210" version="1.1">
<g id="surface1">
<rect x="0" y="0" width="300" height="210" style="fill:rgb(100%,100%,100%);fill-opacity:1;stroke:none;"/>
<path style=" stroke:none;fill-rule:evenodd;fill:rgb(0%,0%,0%);fill-opacity:1;" d="M 80.855469 80.539062 L 80.785156 52.296875 L 69.527344 52.296875 L 69.601562 80.539062 L 75.226562 91.359375 Z M 69.601562 128.941406 L 69.601562 157.28125 L 80.855469 157.28125 L 80.855469 128.941406 L 75.226562 118.121094 Z M 69.601562 128.941406 "/>
<path style=" stroke:none;fill-rule:evenodd;fill:rgb(0%,94.901961%,90.196078%);fill-opacity:1;" d="M 80.855469 128.941406 L 92.710938 151.839844 L 101.785156 142.597656 L 89.929688 119.699219 L 80.855469 115.601562 Z M 69.601562 80.539062 L 57.671875 57.640625 L 48.601562 66.878906 L 60.457031 89.761719 L 69.601562 93.863281 Z M 69.601562 80.539062 "/>
<path style=" stroke:none;fill-rule:evenodd;fill:rgb(0%,72.54902%,94.509804%);fill-opacity:1;" d="M 60.457031 89.777344 L 41.257812 81.058594 L 37.800781 95.960938 L 57 104.78125 L 66.070312 100.582031 Z M 84.300781 108.878906 L 89.929688 119.699219 L 109.128906 128.417969 L 112.585938 113.519531 L 93.382812 104.796875 Z M 84.300781 108.878906 "/>
<path style=" stroke:none;fill-rule:evenodd;fill:rgb(83.921569%,22.745098%,0%);fill-opacity:1;" d="M 93.371094 104.796875 L 112.570312 95.976562 L 109.117188 81.078125 L 89.914062 89.796875 L 84.289062 100.613281 Z M 57 104.796875 L 37.800781 113.519531 L 41.257812 128.417969 L 60.457031 119.699219 L 66.085938 108.878906 Z M 57 104.796875 "/>
<path style=" stroke:none;fill-rule:evenodd;fill:rgb(98.431373%,0.392157%,35.686275%);fill-opacity:1;" d="M 60.457031 119.699219 L 48.601562 142.597656 L 57.671875 151.839844 L 69.601562 128.941406 L 69.601562 115.601562 Z M 89.929688 89.777344 L 101.785156 66.878906 L 92.710938 57.640625 L 80.855469 80.523438 L 80.855469 93.863281 Z M 89.929688 89.777344 "/>
<path style=" stroke:none;fill-rule:evenodd;fill:rgb(0%,0%,0%);fill-opacity:1;" d="M 154.570312 79.0625 L 154.570312 115.800781 C 154.570312 123.882812 149.84375 130.503906 144.070312 130.503906 L 144.070312 123.144531 C 147 123.144531 149.328125 119.886719 149.328125 115.785156 L 149.328125 79.0625 Z M 250.429688 86.417969 L 262.273438 86.417969 L 262.273438 79.078125 L 233.398438 79.078125 L 233.398438 86.417969 L 245.171875 86.417969 L 245.171875 130.519531 L 250.429688 130.519531 Z M 217.570312 79.0625 L 217.570312 115.800781 C 217.570312 119.902344 215.242188 123.160156 212.316406 123.160156 C 209.386719 123.160156 207.058594 119.902344 207.058594 115.800781 L 207.058594 93.761719 C 207.058594 85.679688 202.332031 79.0625 196.558594 79.0625 C 190.789062 79.0625 186.058594 85.679688 186.058594 93.761719 L 186.058594 115.820312 C 186.058594 119.917969 183.730469 123.175781 180.804688 123.175781 C 177.875 123.175781 175.546875 119.917969 175.546875 115.820312 L 175.546875 79.0625 L 170.292969 79.0625 L 170.292969 115.800781 C 170.292969 123.882812 175.019531 130.503906 180.792969 130.503906 C 186.5625 130.503906 191.292969 123.882812 191.292969 115.800781 L 191.292969 93.761719 C 191.292969 89.660156 193.621094 86.402344 196.546875 86.402344 C 199.476562 86.402344 201.804688 89.660156 201.804688 93.761719 L 201.804688 115.820312 C 201.804688 123.898438 206.53125 130.519531 212.304688 130.519531 C 218.074219 130.519531 222.804688 123.898438 222.804688 115.820312 L 222.804688 79.0625 Z M 217.570312 79.0625 "/>
</g>
</svg>
