<?xml version="1.0" encoding="UTF-8"?>
<svg xmlns="http://www.w3.org/2000/svg" xmlns:xlink="http://www.w3.org/1999/xlink" width="300pt" height="210pt" viewBox="0 0 300 210" version="1.1">
<g id="surface1">
<rect x="0" y="0" width="300" height="210" style="fill:rgb(94.117647%,7.843137%,11.764706%);fill-opacity:1;stroke:none;"/>
<path style=" stroke:none;fill-rule:nonzero;fill:rgb(100%,100%,100%);fill-opacity:1;" d="M 253.871094 48.949219 L 253.871094 16.789062 L 202.449219 16.789062 L 193.980469 124.1875 L 185.617188 16.789062 L 167.074219 16.789062 L 169.144531 45.46875 C 167.007812 38.117188 159.417969 16.789062 142.710938 16.789062 C 142.597656 16.777344 124.140625 16.789062 124.140625 16.789062 L 124.066406 173.328125 L 110.550781 16.789062 L 86.261719 16.777344 L 72.277344 178.96875 L 72.285156 16.789062 L 49.035156 16.789062 L 40.65625 107.898438 L 32.496094 16.789062 L 9.238281 16.789062 L 9.238281 193.121094 L 27.554688 193.121094 L 27.554688 108.128906 L 35.886719 193.121094 L 45.621094 193.121094 L 53.832031 108.128906 L 53.832031 193.121094 L 89.136719 193.121094 L 91.269531 165.996094 L 105.484375 165.996094 L 107.617188 193.121094 L 142.28125 193.15625 L 142.304688 193.15625 L 142.304688 193.121094 L 142.347656 193.121094 L 142.347656 135.890625 L 146.59375 134.816406 L 155.390625 193.15625 L 173.320312 193.15625 L 173.3125 193.121094 L 173.363281 193.121094 L 161.820312 124.753906 C 167.664062 117.214844 174.273438 98.105469 172.515625 79.816406 L 172.515625 79.808594 C 172.535156 80.046875 183.414062 193.238281 183.414062 193.238281 L 204.734375 193.121094 L 219.300781 33.308594 L 219.300781 193.121094 L 253.871094 193.121094 L 253.871094 161.414062 L 237.464844 161.414062 L 237.464844 120.980469 L 253.871094 120.980469 L 253.871094 88.785156 L 237.464844 88.785156 L 237.464844 48.949219 Z M 93.429688 138.042969 L 98.460938 62.652344 L 103.675781 138.042969 Z M 146.652344 103.230469 C 145.246094 104.410156 143.78125 105 142.347656 105.007812 L 142.347656 48.296875 C 142.371094 48.296875 142.40625 48.289062 142.441406 48.289062 C 143.871094 48.269531 154.5625 49.039062 154.5625 76.332031 C 154.5625 90.613281 150.925781 99.617188 146.652344 103.230469 Z M 290.765625 161.382812 L 290.765625 193.082031 L 257.035156 193.082031 L 257.035156 16.765625 L 275.199219 16.765625 L 275.199219 161.382812 Z M 290.765625 161.382812 "/>
</g>
</svg>
