<?xml version="1.0" standalone="no"?>
<!DOCTYPE svg PUBLIC "-//W3C//DTD SVG 20010904//EN" "http://www.w3.org/TR/2001/REC-SVG-20010904/DTD/svg10.dtd">
<svg version="1.0" xmlns="http://www.w3.org/2000/svg" width="466.000000pt" height="533.000000pt" viewBox="0 0 466.000000 533.000000" preserveAspectRatio="xMidYMid meet">

    <g transform="translate(0.000000,533.000000) scale(0.100000,-0.100000)" fill="#7ecb7e" stroke="none">
        <path d="M2050 5293 c-254 -26 -482 -91 -682 -192 -463 -234 -801 -605 -966
-1061 -97 -268 -144 -636 -121 -948 18 -241 18 -246 -23 -337 -60 -134 -73
-199 -73 -375 1 -172 18 -260 74 -380 58 -123 50 -259 -26 -465 -141 -380
-202 -678 -189 -920 8 -138 27 -220 72 -306 46 -88 91 -138 165 -188 162 -108
353 -107 502 3 68 50 138 185 153 294 l6 50 71 7 c38 3 102 18 141 33 59 22
83 38 141 97 70 70 122 153 146 233 7 23 16 42 21 42 5 0 26 -12 47 -26 114
-75 333 -143 531 -164 142 -16 446 -16 550 -1 191 27 365 82 490 155 34 20 64
36 68 36 5 0 17 -26 27 -57 63 -185 226 -319 417 -344 110 -15 108 -14 108
-46 0 -51 56 -191 95 -239 81 -99 197 -154 323 -154 233 1 435 165 497 405 25
96 30 272 11 415 -26 198 -71 361 -176 640 -69 184 -83 255 -78 382 3 87 7 99
51 190 60 125 77 196 77 334 0 145 -22 233 -102 396 -37 77 -61 140 -61 160 0
18 6 126 13 239 11 165 11 238 2 360 -23 306 -69 491 -172 704 -69 141 -110
204 -205 315 -201 235 -497 405 -829 475 -16 3 -48 19 -70 34 -133 91 -370
170 -599 201 -73 9 -347 11 -427 3z m930 -1112 c0 -10 12 -59 26 -107 51 -180
178 -403 308 -542 65 -69 190 -176 248 -211 37 -22 41 -30 72 -141 49 -180 67
-341 67 -585 -1 -385 -67 -726 -188 -975 -58 -117 -163 -230 -260 -278 -65
-33 -73 -31 -73 21 0 40 -57 186 -101 259 -113 192 -328 342 -558 390 -78 16
-119 19 -221 15 -138 -7 -210 -21 -330 -67 -244 -95 -431 -305 -500 -565 -7
-27 -16 -54 -20 -58 -13 -15 -93 34 -159 97 -155 148 -262 378 -310 666 -44
265 -52 668 -16 846 42 204 238 396 499 490 97 34 127 39 396 64 254 24 484
101 671 225 129 87 266 230 389 409 47 68 60 78 60 47z m1181 -1368 c65 -34
124 -114 160 -220 21 -58 24 -87 24 -198 0 -112 -4 -138 -23 -187 -47 -115
-143 -203 -257 -233 -73 -19 -118 -3 -140 48 -29 70 -29 238 2 405 8 45 39 60
80 38 47 -24 60 -66 40 -130 -21 -65 -21 -90 -2 -106 36 -30 100 -5 135 53 27
44 27 144 0 196 -28 56 -91 105 -163 129 l-62 20 -3 54 c-3 67 21 117 68 140
48 25 78 23 141 -9z m-3531 -16 c37 -18 60 -72 60 -143 l0 -60 -54 -17 c-63
-20 -111 -51 -140 -90 -16 -22 -21 -43 -21 -96 0 -58 4 -75 30 -117 35 -56 72
-69 106 -38 17 15 20 29 17 93 l-3 74 32 13 c29 12 33 12 42 -4 17 -32 41
-226 41 -331 0 -96 -1 -103 -26 -128 -23 -23 -31 -25 -83 -20 -121 11 -232
102 -276 227 -24 69 -37 219 -25 295 23 146 103 294 180 333 50 25 83 28 120
9z m1860 -977 c38 -6 98 -26 145 -50 189 -93 286 -269 261 -473 -13 -101 -72
-154 -183 -164 -95 -9 -135 8 -218 92 -55 55 -83 76 -109 80 -53 10 -115 -24
-165 -89 -57 -77 -109 -100 -209 -94 -181 11 -262 122 -233 320 18 123 79 222
178 287 113 75 361 117 533 91z" />
        <path d="M2940 3360 c-65 -8 -91 -20 -119 -56 -42 -53 -18 -159 42 -187 21
-10 66 -15 128 -16 53 0 140 -8 193 -16 111 -18 155 -13 197 22 25 21 29 32
29 75 0 45 -4 54 -37 88 -48 47 -128 77 -241 90 -95 11 -110 11 -192 0z" />
        <path d="M1593 3336 c-176 -34 -277 -85 -304 -154 -19 -50 -11 -92 26 -129 34
-34 38 -35 88 -30 28 3 76 13 105 21 76 22 191 36 288 36 96 0 140 14 173 56
31 40 25 104 -15 145 -54 56 -221 82 -361 55z" />
        <path d="M1555 2946 c-35 -16 -81 -60 -100 -97 -27 -51 -39 -152 -27 -224 21
-130 80 -196 180 -203 118 -8 186 55 212 197 23 127 -23 260 -109 318 -39 26
-108 30 -156 9z" />
        <path d="M3015 2946 c-42 -19 -80 -62 -106 -121 -45 -100 -26 -276 39 -349 26
-29 92 -56 140 -56 118 0 193 97 196 254 1 101 -16 164 -62 217 -56 66 -136
87 -207 55z" />
        <path d="M2250 2489 c-95 -43 -150 -125 -150 -224 0 -62 12 -100 42 -132 47
-51 80 -20 89 82 9 112 33 136 176 174 108 29 54 121 -69 121 -24 0 -63 -10
-88 -21z" />
        <path d="M2036 1699 c-56 -44 -19 -110 85 -151 115 -45 377 -33 467 22 48 29
73 75 60 111 -15 43 -47 46 -144 14 -76 -25 -92 -27 -196 -23 -62 3 -131 12
-153 20 -76 28 -91 29 -119 7z" />
    </g>
</svg>