<?xml version="1.0" encoding="UTF-8"?>
<svg xmlns="http://www.w3.org/2000/svg" xmlns:xlink="http://www.w3.org/1999/xlink" width="299pt" height="110pt" viewBox="0 0 299 110" version="1.1">
<defs>
<linearGradient id="linear0" gradientUnits="userSpaceOnUse" x1="426.751" y1="-632.71" x2="416.733" y2="-614.042" gradientTransform="matrix(1.109462,0,0,-1.112768,-458.70816,-644.470322)">
<stop offset="0" style="stop-color:rgb(0%,43.921569%,71.372549%);stop-opacity:1;"/>
<stop offset="1" style="stop-color:rgb(11.372549%,17.254902%,36.862745%);stop-opacity:1;"/>
</linearGradient>
<linearGradient id="linear1" gradientUnits="userSpaceOnUse" x1="548.926" y1="-594.572" x2="561.641" y2="-580.948" gradientTransform="matrix(1.109462,0,0,-1.112768,-458.70816,-644.470322)">
<stop offset="0" style="stop-color:rgb(0%,43.921569%,71.372549%);stop-opacity:1;"/>
<stop offset="1" style="stop-color:rgb(11.372549%,17.254902%,36.862745%);stop-opacity:1;"/>
</linearGradient>
<linearGradient id="linear2" gradientUnits="userSpaceOnUse" x1="493.453" y1="-617.286" x2="491.937" y2="-604.548" gradientTransform="matrix(1.109462,0,0,-1.112768,-458.70816,-644.470322)">
<stop offset="0" style="stop-color:rgb(0%,43.921569%,71.372549%);stop-opacity:1;"/>
<stop offset="1" style="stop-color:rgb(11.372549%,17.254902%,36.862745%);stop-opacity:1;"/>
</linearGradient>
<linearGradient id="linear3" gradientUnits="userSpaceOnUse" x1="632.347" y1="-614.834" x2="631.742" y2="-603.336" gradientTransform="matrix(1.109462,0,0,-1.112768,-458.70816,-644.470322)">
<stop offset="0" style="stop-color:rgb(7.058824%,36.470588%,61.960784%);stop-opacity:1;"/>
<stop offset="1" style="stop-color:rgb(11.372549%,17.254902%,36.862745%);stop-opacity:1;"/>
</linearGradient>
<linearGradient id="linear4" gradientUnits="userSpaceOnUse" x1="589.912" y1="-598.261" x2="576.568" y2="-619.489" gradientTransform="matrix(1.109462,0,0,-1.112768,-458.70816,-644.470322)">
<stop offset="0" style="stop-color:rgb(7.058824%,36.470588%,61.960784%);stop-opacity:1;"/>
<stop offset="1" style="stop-color:rgb(11.372549%,17.254902%,36.862745%);stop-opacity:1;"/>
</linearGradient>
<linearGradient id="linear5" gradientUnits="userSpaceOnUse" x1="471.821" y1="-632.309" x2="480.919" y2="-650.202" gradientTransform="matrix(1.109462,0,0,-1.112768,-458.70816,-644.470322)">
<stop offset="0" style="stop-color:rgb(6.27451%,37.254902%,63.137255%);stop-opacity:1;"/>
<stop offset="1" style="stop-color:rgb(11.372549%,17.254902%,36.862745%);stop-opacity:1;"/>
</linearGradient>
<linearGradient id="linear6" gradientUnits="userSpaceOnUse" x1="437.492" y1="-626.202" x2="448.022" y2="-650.612" gradientTransform="matrix(1.109462,0,0,-1.112768,-458.70816,-644.470322)">
<stop offset="0" style="stop-color:rgb(6.27451%,37.254902%,63.137255%);stop-opacity:1;"/>
<stop offset="1" style="stop-color:rgb(11.372549%,17.254902%,36.862745%);stop-opacity:1;"/>
</linearGradient>
<linearGradient id="linear7" gradientUnits="userSpaceOnUse" x1="639.706" y1="2062.77" x2="655.635" y2="2062.77" gradientTransform="matrix(1.109462,0,0,1.112768,-631.784226,-2232.946498)">
<stop offset="0" style="stop-color:rgb(23.529412%,35.294118%,65.098039%);stop-opacity:1;"/>
<stop offset="0.933" style="stop-color:rgb(16.862745%,45.098039%,72.54902%);stop-opacity:1;"/>
<stop offset="1" style="stop-color:rgb(16.470588%,45.882353%,73.333333%);stop-opacity:1;"/>
</linearGradient>
<linearGradient id="linear8" gradientUnits="userSpaceOnUse" x1="578.628" y1="2056.257" x2="844.371" y2="2056.257" gradientTransform="matrix(1.109462,0,0,1.112768,-637.831904,-2234.822625)">
<stop offset="0" style="stop-color:rgb(23.529412%,35.294118%,65.098039%);stop-opacity:1;"/>
<stop offset="0.933" style="stop-color:rgb(16.862745%,45.098039%,72.54902%);stop-opacity:1;"/>
<stop offset="1" style="stop-color:rgb(16.470588%,45.882353%,73.333333%);stop-opacity:1;"/>
</linearGradient>
</defs>
<g id="surface1">
<path style=" stroke:none;fill-rule:nonzero;fill:url(#linear0);" d="M 0 40.757812 L 13.3125 63.347656 L 18.640625 58.226562 L 4.105469 36.527344 Z M 0 40.757812 "/>
<path style=" stroke:none;fill-rule:nonzero;fill:rgb(0%,44.313725%,72.54902%);fill-opacity:1;" d="M 198.148438 22.953125 L 197.59375 25.957031 L 203.917969 23.84375 L 203.140625 20.171875 Z M 198.148438 22.953125 "/>
<path style=" stroke:none;fill-rule:nonzero;fill:url(#linear1);" d="M 160.871094 2.589844 L 140.347656 26.179688 L 146.339844 24.511719 L 165.863281 0.0273438 Z M 160.871094 2.589844 "/>
<path style=" stroke:none;fill-rule:nonzero;fill:rgb(11.372549%,17.254902%,36.862745%);fill-opacity:1;" d="M 270.820312 34.859375 L 275.8125 32.1875 L 274.371094 44.875 Z M 270.820312 34.859375 "/>
<path style=" stroke:none;fill-rule:nonzero;fill:rgb(11.372549%,17.254902%,36.862745%);fill-opacity:1;" d="M 239.421875 42.980469 L 243.96875 43.984375 L 249.628906 41.203125 L 244.636719 39.308594 Z M 239.421875 42.980469 "/>
<path style=" stroke:none;fill-rule:nonzero;fill:url(#linear2);" d="M 84.984375 29.628906 L 85.652344 44.207031 L 91.972656 41.757812 L 90.089844 26.847656 Z M 84.984375 29.628906 "/>
<path style=" stroke:none;fill-rule:nonzero;fill:url(#linear3);" d="M 244.304688 25.179688 L 239.3125 27.960938 L 239.421875 42.980469 L 244.527344 40.421875 L 246.078125 33.078125 Z M 244.304688 25.179688 "/>
<path style=" stroke:none;fill-rule:nonzero;fill:rgb(19.215686%,13.72549%,43.921569%);fill-opacity:1;" d="M 243.636719 43.984375 L 238.089844 93.390625 L 246.964844 91.609375 L 248.628906 41.3125 Z M 243.636719 43.984375 "/>
<path style=" stroke:none;fill-rule:nonzero;fill:rgb(12.941176%,21.960784%,43.137255%);fill-opacity:1;" d="M 254.398438 95.726562 L 254.621094 102.402344 L 271.597656 107.855469 L 276.699219 105.1875 L 259.945312 92.167969 L 243.082031 90.71875 L 238.089844 93.390625 Z M 254.398438 95.726562 "/>
<path style=" stroke:none;fill-rule:nonzero;fill:rgb(12.941176%,21.960784%,43.137255%);fill-opacity:1;" d="M 191.382812 83.933594 L 195.488281 81.707031 L 198.261719 86.601562 L 202.144531 84.488281 L 202.921875 90.941406 L 227.660156 95.394531 L 232.542969 92.613281 L 198.484375 71.804688 L 174.296875 75.921875 L 169.636719 80.480469 Z M 191.382812 83.933594 "/>
<path style=" stroke:none;fill-rule:nonzero;fill:url(#linear4);" d="M 183.503906 23.175781 L 178.511719 25.957031 L 169.636719 80.480469 L 174.628906 77.8125 L 183.171875 47.210938 Z M 183.503906 23.175781 "/>
<path style=" stroke:none;fill-rule:nonzero;fill:rgb(11.372549%,17.254902%,36.862745%);fill-opacity:1;" d="M 144.007812 30.519531 L 140.015625 32.632812 L 140.347656 33.96875 L 149.777344 27.960938 L 145.671875 23.507812 L 140.347656 26.179688 Z M 144.007812 30.519531 "/>
<path style=" stroke:none;fill-rule:nonzero;fill:rgb(12.941176%,21.960784%,43.137255%);fill-opacity:1;" d="M 154.769531 94.949219 L 114.496094 74.917969 L 119.488281 71.023438 L 159.761719 92.167969 Z M 154.769531 94.949219 "/>
<path style=" stroke:none;fill-rule:nonzero;fill:rgb(11.372549%,17.254902%,36.862745%);fill-opacity:1;" d="M 118.269531 20.394531 L 112.167969 31.964844 L 118.601562 30.074219 L 123.261719 17.609375 Z M 118.269531 20.394531 "/>
<path style=" stroke:none;fill-rule:nonzero;fill:url(#linear5);" d="M 62.796875 68.351562 L 57.691406 71.914062 C 57.691406 71.914062 58.800781 77.699219 60.242188 81.707031 C 61.6875 85.710938 65.015625 88.9375 65.015625 88.9375 C 67.234375 91.054688 69.785156 92.613281 72.78125 93.5 C 78.4375 95.171875 84.875 94.058594 90.421875 90.496094 C 91.863281 89.605469 93.859375 88.160156 95.082031 86.9375 C 89.644531 90.273438 62.796875 68.351562 62.796875 68.351562 Z M 62.796875 68.351562 "/>
<path style=" stroke:none;fill-rule:nonzero;fill:rgb(11.372549%,17.254902%,36.862745%);fill-opacity:1;" d="M 90.421875 43.09375 L 95.082031 95.058594 L 114.386719 92.277344 L 119.488281 89.605469 L 95.636719 39.976562 L 90.753906 41.648438 L 85.652344 44.207031 Z M 90.421875 43.09375 "/>
<path style=" stroke:none;fill-rule:nonzero;fill:url(#linear6);" d="M 18.304688 61.121094 L 39.828125 109.972656 L 60.242188 103.40625 L 65.238281 100.066406 L 22.855469 55.554688 L 17.53125 58.785156 L 13.3125 63.347656 Z M 18.304688 61.121094 "/>
<path style=" stroke:none;fill-rule:nonzero;fill:rgb(11.372549%,17.254902%,36.862745%);fill-opacity:1;" d="M 231.210938 84.15625 L 231.542969 86.601562 C 233.320312 86.378906 235.09375 86.15625 236.757812 85.601562 C 238.644531 84.933594 242.640625 83.152344 244.082031 81.816406 C 243.414062 82.039062 234.097656 84.488281 231.210938 84.15625 "/>
<path style=" stroke:none;fill-rule:nonzero;fill:rgb(11.372549%,17.254902%,36.862745%);fill-opacity:1;" d="M 158.984375 71.691406 L 159.761719 75.585938 C 163.867188 74.917969 167.417969 73.472656 170.96875 71.359375 C 173.1875 70.023438 175.515625 68.128906 176.292969 67.574219 C 175.738281 67.90625 158.984375 71.691406 158.984375 71.691406 Z M 158.984375 71.691406 "/>
<path style=" stroke:none;fill-rule:nonzero;fill:rgb(100%,79.607843%,1.960784%);fill-opacity:1;" d="M 45.429688 105.3125 L 43.878906 101.75 L 23.464844 56.128906 L 23.019531 55.238281 L 22.132812 55.683594 L 21.46875 56.015625 L 17.804688 57.796875 C 17.25 56.90625 16.363281 55.347656 15.808594 54.347656 L 7.597656 40.4375 L 5.492188 36.765625 L 9.039062 34.539062 C 12.371094 32.425781 16.140625 30.421875 20.359375 28.644531 C 28.566406 25.195312 36.886719 23.300781 44.542969 23.300781 C 47.09375 23.300781 49.535156 23.523438 51.753906 23.859375 C 55.527344 24.304688 59.078125 25.527344 61.960938 27.53125 C 66.289062 29.976562 69.730469 33.761719 71.613281 38.210938 C 73.167969 41.886719 73.5 46.226562 72.503906 50.675781 L 71.949219 53.347656 L 74.167969 51.789062 C 75.609375 50.675781 77.160156 49.785156 78.824219 49.117188 C 81.710938 47.894531 84.707031 47.226562 87.703125 47.226562 C 90.585938 47.226562 93.25 47.78125 95.691406 48.894531 L 97.242188 49.5625 L 97.132812 47.78125 L 96.464844 40.328125 L 96.355469 39.101562 L 95.246094 39.4375 L 91.808594 40.328125 L 91.253906 27.640625 L 116.546875 19.519531 L 116.324219 29.421875 L 118.210938 29.867188 L 123.757812 19.296875 L 140.289062 33.984375 L 140.957031 34.652344 L 141.621094 33.984375 C 143.839844 31.871094 146.613281 30.089844 149.609375 28.867188 L 150.832031 28.308594 L 149.941406 27.195312 L 146.945312 23.523438 L 165.917969 1.601562 L 175.902344 16.515625 L 160.703125 24.75 L 157.375 26.527344 L 161.257812 26.640625 C 168.46875 26.75 174.90625 29.867188 179.234375 35.207031 L 180.785156 37.210938 L 181.785156 38.433594 L 180.121094 40.214844 L 179.011719 41.441406 L 175.238281 45.558594 L 174.574219 46.335938 L 175.347656 47.003906 L 178.898438 50.230469 L 180.230469 51.453125 L 180.5625 49.675781 L 181.894531 41.21875 L 182.226562 38.992188 L 182.5625 36.765625 L 184.558594 24.191406 L 203.417969 24.191406 L 203.53125 23.300781 L 203.863281 21.1875 L 220.28125 21.1875 L 224.277344 46.335938 L 224.5 48.003906 L 225.828125 47.003906 C 227.492188 45.78125 229.269531 44.890625 231.15625 44.109375 C 233.707031 43.109375 236.257812 42.664062 238.921875 42.664062 C 242.027344 42.664062 245.023438 43.332031 247.574219 44.777344 C 247.6875 44.777344 247.6875 44.890625 247.90625 45 L 249.128906 45.445312 L 249.238281 44.109375 L 249.574219 41.328125 L 249.683594 40.4375 L 248.796875 40.214844 L 245.46875 39.4375 L 245.355469 26.304688 L 270.761719 31.871094 L 272.648438 41.328125 L 274.644531 41.328125 L 276.644531 33.207031 L 297.832031 38.324219 L 276.089844 103.867188 L 260.667969 98.96875 L 260.554688 92.960938 L 260.554688 92.070312 L 259.667969 91.960938 L 244.246094 89.734375 L 245.132812 81.832031 L 245.355469 79.941406 L 243.691406 80.832031 C 242.914062 81.277344 242.140625 81.609375 241.363281 81.832031 C 238.8125 82.835938 236.257812 83.28125 233.707031 83.28125 C 232.929688 83.28125 232.265625 83.28125 231.488281 83.167969 L 230.15625 83.058594 L 230.378906 84.394531 L 231.488281 91.292969 L 208.964844 87.285156 L 207.746094 77.046875 L 207.414062 73.710938 L 205.859375 76.601562 L 203.308594 81.609375 L 198.539062 72.820312 L 197.09375 70.148438 L 196.652344 73.152344 L 195.652344 79.941406 L 175.902344 76.824219 L 177.457031 67.480469 L 177.789062 65.363281 L 175.902344 66.476562 C 172.6875 68.367188 168.914062 69.925781 164.585938 70.929688 C 163.035156 71.261719 161.480469 71.597656 159.816406 71.707031 L 158.929688 71.820312 L 158.929688 90.511719 L 120.097656 71.261719 L 118.65625 70.59375 L 118.65625 88.734375 L 101.238281 91.292969 L 100.460938 83.390625 L 100.238281 81.277344 L 98.683594 82.722656 C 96.355469 84.949219 93.804688 86.730469 91.03125 87.953125 C 88.144531 89.175781 85.148438 89.84375 82.265625 89.84375 C 79.269531 89.84375 76.496094 89.175781 73.945312 88.066406 C 69.285156 85.839844 65.84375 81.722656 64.402344 76.492188 C 63.738281 74.042969 63.515625 71.484375 63.847656 68.8125 L 64.179688 66.03125 L 62.183594 68.035156 C 60.742188 69.371094 59.1875 70.707031 57.523438 71.929688 L 56.96875 72.375 L 57.191406 73.042969 L 63.070312 95.519531 L 64.070312 99.527344 L 60.1875 100.75 L 49.203125 104.3125 Z M 50.3125 44.890625 C 49.757812 44.890625 49.203125 44.890625 48.539062 45 L 47.761719 45.113281 L 46.652344 45.335938 L 46.984375 46.449219 L 47.207031 47.113281 L 50.3125 57.464844 L 50.644531 58.464844 L 51.089844 59.910156 L 52.199219 58.910156 L 52.976562 58.242188 C 56.082031 55.460938 57.082031 52.679688 56.414062 49.117188 C 55.972656 47.003906 54.417969 46.003906 53.417969 45.558594 C 52.753906 45.113281 51.535156 44.890625 50.3125 44.890625 Z M 134.855469 45.222656 L 132.855469 47.113281 L 127.640625 52.121094 L 126.53125 53.234375 L 127.976562 53.792969 L 133.523438 55.90625 L 135.1875 56.574219 L 134.855469 54.792969 C 134.410156 52.457031 134.300781 50.121094 134.519531 47.894531 Z M 157.488281 39.4375 C 155.378906 39.4375 153.269531 40.328125 151.828125 41.996094 C 149.609375 44.445312 149.167969 48.117188 150.71875 51.007812 L 151.164062 51.789062 L 151.828125 53.011719 L 152.828125 51.898438 L 153.492188 51.230469 L 161.148438 42.550781 L 161.703125 41.886719 L 162.703125 40.773438 L 161.371094 40.214844 L 160.484375 39.882812 C 159.375 39.660156 158.484375 39.4375 157.488281 39.4375 Z M 157.488281 39.4375 "/>
<path style=" stroke:none;fill-rule:nonzero;fill:rgb(49.019608%,49.803922%,40.784314%);fill-opacity:1;" d="M 169.082031 52.328125 L 168.859375 52.550781 C 168.972656 52.550781 169.082031 52.441406 169.082031 52.328125 Z M 169.082031 52.328125 "/>
<path style=" stroke:none;fill-rule:nonzero;fill:rgb(49.019608%,49.803922%,40.784314%);fill-opacity:1;" d="M 175.738281 46.320312 L 179.511719 42.203125 L 178.179688 43.539062 L 178.179688 43.425781 L 177.070312 44.652344 L 173.296875 48.65625 L 176.847656 51.882812 L 177.515625 47.878906 L 179.289062 49.4375 Z M 175.738281 46.320312 "/>
<path style=" stroke:none;fill-rule:nonzero;fill:rgb(49.019608%,49.803922%,40.784314%);fill-opacity:1;" d="M 175.738281 46.320312 L 179.289062 49.4375 L 180.621094 40.980469 L 179.511719 42.203125 Z M 175.738281 46.320312 "/>
<path style=" stroke:none;fill-rule:nonzero;fill:rgb(78.039216%,62.745098%,3.137255%);fill-opacity:1;" d="M 149.445312 56.445312 C 149.777344 56.78125 149.445312 56.558594 149.777344 56.78125 L 152.105469 55.109375 C 151.773438 54.890625 151.441406 54.554688 151.109375 54.332031 C 147.78125 51.214844 148.667969 44.316406 150.777344 40.535156 C 145.007812 45.207031 145.339844 52.328125 149.445312 56.445312 "/>
<path style=" stroke:none;fill-rule:nonzero;fill:rgb(78.039216%,62.745098%,3.137255%);fill-opacity:1;" d="M 177.515625 60.339844 C 173.628906 63.566406 169.304688 65.570312 163.535156 67.019531 C 162.3125 67.351562 160.984375 67.574219 159.875 67.574219 C 150.664062 68.464844 143.007812 64.234375 140.125 57.449219 C 139.792969 56.667969 139.460938 55.777344 139.238281 54.890625 C 137.90625 49.101562 139.015625 43.984375 141.898438 39.867188 C 142.234375 39.421875 142.453125 39.085938 142.789062 38.753906 C 142.675781 38.863281 142.453125 38.976562 142.34375 39.085938 C 141.234375 40.089844 140.234375 41.089844 139.460938 42.3125 C 136.574219 46.320312 135.464844 51.550781 136.796875 57.335938 C 137.019531 58.226562 137.242188 59.117188 137.683594 59.894531 C 140.570312 66.796875 148.335938 71.023438 157.433594 70.132812 C 158.652344 70.023438 159.875 69.800781 161.203125 69.464844 C 166.972656 68.019531 171.410156 66.015625 175.183594 62.789062 C 176.070312 62.011719 177.070312 61.121094 177.957031 60.230469 L 177.847656 60.117188 C 177.625 60.230469 177.515625 60.230469 177.515625 60.339844 "/>
<path style=" stroke:none;fill-rule:nonzero;fill:rgb(78.039216%,62.745098%,3.137255%);fill-opacity:1;" d="M 112.832031 42.871094 L 123.039062 28.40625 L 122.59375 28.070312 L 112.722656 41.980469 Z M 112.832031 42.871094 "/>
<path style=" stroke:none;fill-rule:nonzero;fill:rgb(78.039216%,62.745098%,3.137255%);fill-opacity:1;" d="M 180.621094 40.980469 L 179.289062 49.4375 L 177.515625 47.878906 L 176.847656 51.882812 L 173.296875 48.65625 L 177.070312 44.652344 L 178.179688 43.425781 L 178.179688 43.539062 L 179.511719 42.203125 Z M 180.621094 40.980469 "/>
<path style=" stroke:none;fill-rule:nonzero;fill:rgb(78.039216%,62.745098%,3.137255%);fill-opacity:1;" d="M 167.972656 17.164062 L 171.523438 15.609375 L 164.976562 7.152344 L 162.867188 10.265625 Z M 167.972656 17.164062 "/>
<path style=" stroke:none;fill-rule:nonzero;fill:rgb(78.039216%,62.745098%,3.137255%);fill-opacity:1;" d="M 68.566406 38.085938 C 51.921875 17.832031 22.078125 28.738281 11.425781 38.195312 L 11.871094 38.976562 C 14.3125 37.53125 16.976562 36.304688 19.636719 35.082031 C 30.289062 30.519531 40.496094 29.183594 48.59375 30.628906 C 51.480469 30.964844 54.472656 31.855469 57.136719 33.636719 C 60.796875 35.75 63.570312 38.640625 65.238281 42.425781 C 68.121094 49.101562 65.570312 58.003906 58.800781 65.347656 C 67.34375 57.449219 73.222656 49.882812 68.566406 38.085938 Z M 68.566406 38.085938 "/>
<path style=" stroke:none;fill-rule:nonzero;fill:rgb(78.039216%,62.745098%,3.137255%);fill-opacity:1;" d="M 102.402344 61.675781 C 102.292969 61.34375 102.292969 60.898438 102.179688 60.5625 C 101.292969 57.226562 99.296875 54.554688 96.632812 52.773438 C 92.417969 49.882812 86.425781 49.324219 80.546875 51.773438 C 77.441406 53.109375 74.777344 55.222656 72.558594 57.671875 C 74.222656 56.222656 76.109375 55.109375 78.105469 54.222656 C 83.984375 51.660156 89.976562 52.328125 94.191406 55.222656 C 96.855469 57.003906 98.851562 59.671875 99.742188 63.011719 C 99.851562 63.347656 99.960938 63.789062 99.960938 64.125 C 100.183594 65.460938 100.296875 66.683594 100.296875 68.019531 C 100.183594 71.914062 98.742188 75.808594 96.414062 79.148438 C 96.078125 79.703125 95.636719 80.148438 95.191406 80.703125 C 96.523438 79.480469 97.742188 78.257812 98.742188 76.808594 C 101.183594 73.472656 102.515625 69.578125 102.734375 65.683594 C 102.734375 64.347656 102.625 63.011719 102.402344 61.675781 "/>
<path style=" stroke:none;fill-rule:nonzero;fill:rgb(78.039216%,62.745098%,3.137255%);fill-opacity:1;" d="M 86.09375 56.78125 C 86.09375 56.78125 88.535156 54.332031 88.425781 54.332031 C 85.429688 54.222656 84.097656 57.113281 83.984375 57.335938 C 84.652344 57.003906 85.316406 56.890625 86.09375 56.78125 "/>
<path style=" stroke:none;fill-rule:nonzero;fill:rgb(78.039216%,62.745098%,3.137255%);fill-opacity:1;" d="M 91.753906 60.230469 C 91.863281 60.675781 91.972656 61.007812 91.972656 61.453125 C 91.972656 62.121094 91.863281 62.679688 91.53125 63.234375 C 91.972656 63.011719 95.523438 61.230469 94.191406 57.671875 C 94.304688 57.894531 91.640625 60.230469 91.753906 60.230469 "/>
<path style=" stroke:none;fill-rule:nonzero;fill:rgb(78.039216%,62.745098%,3.137255%);fill-opacity:1;" d="M 77.996094 62.34375 C 77.996094 60.898438 80.546875 57.226562 81.324219 56 C 77.328125 58.5625 75.554688 62.011719 75.554688 64.679688 C 75.554688 69.355469 79.660156 73.136719 84.539062 73.136719 C 86.871094 73.136719 91.085938 71.914062 93.859375 67.464844 C 92.417969 68.464844 88.757812 70.691406 86.761719 70.691406 C 81.878906 70.691406 77.996094 67.019531 77.996094 62.34375 "/>
<path style=" stroke:none;fill-rule:nonzero;fill:rgb(78.039216%,62.745098%,3.137255%);fill-opacity:1;" d="M 112.277344 66.574219 L 112.386719 85.378906 L 115.382812 85.601562 L 114.71875 64.125 Z M 112.277344 66.574219 "/>
<path style=" stroke:none;fill-rule:nonzero;fill:rgb(78.039216%,62.745098%,3.137255%);fill-opacity:1;" d="M 95.191406 30.628906 L 95.191406 32.300781 L 109.394531 28.070312 L 110.390625 46.210938 L 112.832031 42.871094 L 112.277344 24.734375 Z M 95.191406 30.628906 "/>
<path style=" stroke:none;fill-rule:nonzero;fill:rgb(78.039216%,62.745098%,3.137255%);fill-opacity:1;" d="M 137.90625 37.085938 L 124.703125 24.84375 L 123.039062 28.40625 L 134.800781 39.421875 Z M 137.90625 37.085938 "/>
<path style=" stroke:none;fill-rule:nonzero;fill:rgb(78.039216%,62.745098%,3.137255%);fill-opacity:1;" d="M 135.910156 59.894531 L 120.265625 54.667969 L 118.046875 57.113281 L 133.578125 63.347656 C 135.355469 66.683594 138.015625 69.578125 141.34375 71.582031 C 144.5625 73.582031 148.335938 74.808594 152.21875 75.140625 L 152.21875 82.820312 L 154.660156 84.042969 L 155.4375 72.46875 Z M 135.910156 59.894531 "/>
<path style=" stroke:none;fill-rule:nonzero;fill:rgb(78.039216%,62.745098%,3.137255%);fill-opacity:1;" d="M 160.984375 57.78125 C 164.867188 56.890625 166.972656 54.890625 168.972656 52.664062 C 167.527344 53.886719 160.429688 55.445312 159.207031 55.777344 L 156.878906 58.339844 C 157.875 58.339844 159.652344 58.117188 160.984375 57.78125 "/>
<path style=" stroke:none;fill-rule:nonzero;fill:rgb(78.039216%,62.745098%,3.137255%);fill-opacity:1;" d="M 153.992188 31.074219 C 146.894531 31.964844 143.230469 37.976562 142.675781 38.640625 C 145.339844 36.417969 148.558594 34.746094 152.21875 33.96875 C 160.984375 31.855469 168.636719 34.523438 173.410156 40.421875 L 176.40625 37.976562 C 171.632812 32.1875 162.757812 28.960938 153.992188 31.074219 "/>
<path style=" stroke:none;fill-rule:nonzero;fill:rgb(78.039216%,62.745098%,3.137255%);fill-opacity:1;" d="M 177.734375 60.117188 C 178.625 59.449219 180.066406 58.671875 180.953125 57.78125 L 171.523438 49.324219 C 170.746094 50.214844 170.191406 51.660156 169.304688 52.328125 Z M 177.734375 60.117188 "/>
<path style=" stroke:none;fill-rule:nonzero;fill:rgb(78.039216%,62.745098%,3.137255%);fill-opacity:1;" d="M 226.21875 82.820312 C 216.34375 74.585938 216.898438 57.113281 221.78125 51.550781 L 217.453125 24.066406 L 207.914062 25.289062 L 207.46875 27.738281 L 214.679688 27.738281 L 218.5625 52.664062 C 213.683594 58.226562 211.351562 65.683594 212.90625 72.582031 C 214.125 77.921875 217.453125 82.152344 222.113281 84.601562 C 222.558594 84.820312 223.113281 85.042969 223.554688 85.265625 L 223.667969 85.601562 L 226.550781 86.046875 C 226.441406 86.15625 226.773438 83.042969 226.21875 82.820312 Z M 226.21875 82.820312 "/>
<path style=" stroke:none;fill-rule:nonzero;fill:rgb(78.039216%,62.745098%,3.137255%);fill-opacity:1;" d="M 188.164062 28.070312 L 187.722656 30.519531 L 198.59375 30.519531 L 201.8125 48.210938 L 204.25 45.765625 L 201.699219 27.070312 Z M 188.164062 28.070312 "/>
<path style=" stroke:none;fill-rule:nonzero;fill:rgb(78.039216%,62.745098%,3.137255%);fill-opacity:1;" d="M 206.804688 62.34375 L 203.253906 71.46875 L 204.140625 73.917969 L 209.132812 60.007812 Z M 206.804688 62.34375 "/>
<path style=" stroke:none;fill-rule:nonzero;fill:rgb(78.039216%,62.745098%,3.137255%);fill-opacity:1;" d="M 196.375 56.667969 L 193.933594 59.117188 L 191.269531 75.585938 L 193.824219 76.476562 Z M 196.375 56.667969 "/>
<path style=" stroke:none;fill-rule:nonzero;fill:rgb(78.039216%,62.745098%,3.137255%);fill-opacity:1;" d="M 245.300781 51.328125 C 246.746094 52.328125 247.964844 53.664062 248.851562 55.222656 C 249.628906 56.445312 250.074219 57.671875 250.515625 59.230469 C 251.738281 64.234375 250.292969 69.578125 247.1875 73.804688 C 246.855469 74.25 246.523438 74.695312 246.191406 75.03125 C 247.410156 73.917969 262.941406 62.457031 247.855469 47.433594 C 231.210938 41.980469 224.886719 52.773438 224.332031 53.554688 C 226.109375 52.105469 228.105469 50.769531 230.324219 49.992188 C 235.871094 47.765625 241.417969 48.546875 245.300781 51.328125 "/>
<path style=" stroke:none;fill-rule:nonzero;fill:rgb(78.039216%,62.745098%,3.137255%);fill-opacity:1;" d="M 236.980469 52.441406 C 236.980469 52.550781 239.421875 49.992188 239.421875 49.992188 C 236.425781 50.105469 234.984375 51.550781 235.207031 52.21875 C 234.984375 52.441406 234.875 52.773438 234.761719 52.996094 C 235.316406 52.664062 236.539062 52.441406 236.980469 52.441406 "/>
<path style=" stroke:none;fill-rule:nonzero;fill:rgb(78.039216%,62.745098%,3.137255%);fill-opacity:1;" d="M 242.527344 56.222656 C 242.640625 56.667969 242.640625 57.003906 242.640625 57.449219 C 242.640625 58.003906 242.417969 58.5625 242.195312 59.007812 C 242.640625 58.785156 246.191406 57.671875 244.859375 53.664062 C 244.96875 53.886719 242.417969 56.222656 242.527344 56.222656 "/>
<path style=" stroke:none;fill-rule:nonzero;fill:rgb(78.039216%,62.745098%,3.137255%);fill-opacity:1;" d="M 234.652344 68.796875 C 237.980469 68.910156 241.75 66.90625 244.414062 63.234375 C 237.648438 64.679688 230.433594 53.21875 231.101562 52.105469 C 228.550781 54 226.21875 57.558594 226.109375 60.117188 C 225.886719 64.792969 229.769531 68.574219 234.652344 68.796875 "/>
<path style=" stroke:none;fill-rule:nonzero;fill:rgb(78.039216%,62.745098%,3.137255%);fill-opacity:1;" d="M 272.039062 98.507812 L 273.59375 99.511719 L 293.121094 40.757812 L 278.476562 37.417969 L 278.363281 40.867188 L 290.125 43.425781 Z M 272.039062 98.507812 "/>
<path style=" stroke:none;fill-rule:nonzero;fill:rgb(78.039216%,62.745098%,3.137255%);fill-opacity:1;" d="M 248.851562 31.074219 L 248.964844 34.414062 L 264.496094 37.53125 L 270.488281 66.015625 L 272.925781 63.566406 L 267.160156 34.746094 Z M 248.851562 31.074219 "/>
<path style=" stroke:none;fill-rule:nonzero;fill:rgb(78.039216%,62.745098%,3.137255%);fill-opacity:1;" d="M 260.835938 63.566406 L 256.507812 87.828125 L 258.949219 88.605469 L 263.273438 61.121094 Z M 260.835938 63.566406 "/>
<path style=" stroke:none;fill-rule:nonzero;fill:rgb(78.039216%,62.745098%,3.137255%);fill-opacity:1;" d="M 59.246094 96.730469 L 52.035156 70.246094 L 49.371094 72.136719 L 56.140625 97.394531 Z M 59.246094 96.730469 "/>
<path style=" stroke:none;fill-rule:nonzero;fill:rgb(78.039216%,62.745098%,3.137255%);fill-opacity:1;" d="M 57.359375 57.003906 C 55.695312 58.785156 51.921875 62.234375 49.816406 63.566406 L 48.484375 59.449219 L 45.710938 50.328125 L 43.933594 44.207031 L 42.160156 46.433594 L 43.933594 52.550781 L 46.707031 61.566406 L 48.039062 65.683594 C 51.035156 64.011719 55.25 60.453125 57.359375 57.003906 "/>
<path style=" stroke:none;fill-rule:nonzero;fill:rgb(49.019608%,49.803922%,40.784314%);fill-opacity:1;" d="M 160.316406 41.3125 C 157.988281 40.421875 154.769531 40.644531 152.996094 42.648438 C 152.550781 43.09375 151.773438 44.207031 151.550781 44.761719 C 153.214844 43.425781 156.324219 43.09375 158.210938 43.871094 Z M 160.316406 41.3125 "/>
<path style=" stroke:none;fill-rule:nonzero;fill:rgb(49.019608%,49.803922%,40.784314%);fill-opacity:1;" d="M 55.363281 49.546875 C 55.140625 48.210938 53.808594 47.097656 53.144531 46.765625 C 52.035156 46.210938 49.925781 46.097656 48.484375 46.433594 C 48.707031 47.320312 49.039062 48.433594 49.148438 48.878906 C 49.703125 48.992188 50.703125 49.101562 51.257812 49.324219 C 51.921875 49.660156 53.03125 50.328125 53.253906 51.773438 C 53.585938 53.554688 53.476562 55.332031 52.699219 56.667969 C 54.808594 54.667969 55.804688 52.441406 55.363281 49.546875 "/>
<path style=" stroke:none;fill-rule:nonzero;fill:rgb(23.529412%,35.294118%,65.098039%);fill-opacity:1;" d="M 58.964844 49.453125 C 57.96875 44.109375 50.980469 41.105469 43.988281 44.890625 L 45.765625 51.007812 L 48.539062 60.132812 L 49.871094 64.25 C 55.082031 61.023438 60.296875 56.90625 58.964844 49.453125 Z M 52.089844 57.796875 C 51.3125 55.347656 49.648438 50.007812 49.648438 50.007812 C 49.648438 50.007812 49.316406 48.894531 48.871094 47.558594 C 50.3125 47.335938 51.753906 47.449219 52.863281 48.003906 C 53.53125 48.339844 54.640625 49.007812 54.863281 50.453125 C 55.527344 53.347656 54.527344 55.570312 52.089844 57.796875 Z M 52.089844 57.796875 "/>
<path style=" stroke:none;fill-rule:nonzero;fill:rgb(20.784314%,40.392157%,69.019608%);fill-opacity:1;" d="M 163.921875 40.996094 C 160.039062 37.433594 154.046875 37.65625 150.496094 41.550781 C 146.945312 45.445312 147.167969 51.453125 151.050781 55.015625 C 151.386719 55.347656 151.71875 55.570312 152.050781 55.792969 L 164.585938 41.550781 C 164.367188 41.441406 164.144531 41.21875 163.921875 40.996094 Z M 152.160156 51.007812 C 150.941406 48.785156 151.164062 45.890625 153.050781 43.886719 C 154.824219 41.996094 157.488281 41.441406 159.816406 42.328125 Z M 152.160156 51.007812 "/>
<path style=" stroke:none;fill-rule:nonzero;fill:rgb(11.764706%,17.647059%,37.254902%);fill-opacity:1;" d="M 180.621094 39.421875 L 173.742188 46.097656 L 180.289062 51.996094 Z M 180.621094 39.421875 "/>
<path style=" stroke:none;fill-rule:nonzero;fill:rgb(20.392157%,40%,68.627451%);fill-opacity:1;" d="M 244.859375 53.777344 C 244.96875 54.222656 244.96875 54.667969 244.96875 55.109375 C 244.859375 57.78125 242.417969 59.785156 239.421875 59.671875 C 236.425781 59.5625 234.097656 57.335938 234.207031 54.667969 C 234.320312 52.21875 236.539062 50.214844 239.199219 50.105469 C 238.644531 49.992188 238.089844 49.882812 237.535156 49.882812 C 232.542969 49.660156 228.550781 53.21875 228.328125 57.558594 C 228.105469 62.234375 231.878906 66.128906 236.757812 66.238281 C 241.75 66.460938 245.746094 62.902344 245.96875 58.226562 C 246.300781 56.667969 245.746094 55.109375 244.859375 53.777344 "/>
<path style=" stroke:none;fill-rule:nonzero;fill:url(#linear7);" d="M 94.414062 59.117188 C 94.414062 61.789062 91.972656 63.902344 89.089844 63.902344 C 86.09375 63.902344 83.765625 61.789062 83.765625 59.117188 C 83.765625 56.667969 85.871094 54.554688 88.644531 54.332031 C 88.089844 54.222656 87.535156 54.222656 86.980469 54.222656 C 81.988281 54.222656 78.105469 57.894531 78.105469 62.34375 C 78.105469 67.019531 81.988281 70.691406 86.871094 70.691406 C 91.863281 70.691406 95.746094 67.019531 95.746094 62.34375 C 95.746094 60.675781 95.191406 59.230469 94.304688 57.894531 C 94.304688 58.226562 94.414062 58.671875 94.414062 59.117188 "/>
<path style=" stroke:none;fill-rule:nonzero;fill:url(#linear8);" d="M 275.753906 32.203125 L 273.535156 41.328125 L 271.539062 31.203125 L 244.246094 25.195312 L 244.46875 40.4375 L 248.574219 41.328125 L 248.242188 44.109375 C 248.242188 44.109375 248.128906 44.109375 248.128906 44 C 243.027344 41.328125 236.703125 40.996094 230.824219 43.332031 C 228.824219 44.109375 226.9375 45.113281 225.273438 46.335938 L 221.171875 20.296875 L 203.085938 20.296875 L 202.640625 23.300781 L 183.558594 23.300781 L 181.339844 36.65625 L 179.789062 34.652344 C 175.128906 28.976562 168.46875 25.859375 161.039062 25.636719 L 177.234375 16.957031 L 165.917969 0.0429688 L 145.503906 23.636719 L 149.054688 27.976562 C 145.835938 29.3125 143.0625 31.089844 140.734375 33.316406 L 123.203125 17.738281 L 117.101562 29.421875 L 117.324219 18.070312 L 89.921875 26.863281 L 90.699219 41.550781 L 95.355469 40.328125 L 96.023438 47.78125 C 90.699219 45.335938 84.261719 45.445312 78.382812 48.003906 C 76.605469 48.785156 74.941406 49.675781 73.5 50.785156 C 74.5 46.226562 74.277344 41.773438 72.503906 37.769531 C 70.503906 33.09375 66.84375 29.089844 62.515625 26.640625 C 59.410156 24.527344 55.75 23.300781 51.867188 22.855469 C 42.4375 21.1875 31.007812 22.855469 19.804688 27.640625 C 15.699219 29.421875 11.816406 31.425781 8.375 33.652344 L 4.046875 36.433594 L 6.710938 40.882812 L 14.921875 54.90625 L 17.472656 59.132812 L 21.910156 56.90625 L 22.578125 56.574219 L 42.992188 102.195312 L 44.988281 106.535156 L 49.535156 105.089844 L 60.519531 101.527344 L 65.402344 99.972656 L 64.179688 95.074219 L 58.300781 72.597656 C 59.964844 71.375 61.519531 70.039062 62.960938 68.589844 C 62.628906 71.261719 62.851562 74.042969 63.515625 76.601562 C 65.070312 82.054688 68.617188 86.394531 73.613281 88.734375 C 78.9375 91.292969 85.484375 91.292969 91.472656 88.734375 C 94.46875 87.398438 97.242188 85.617188 99.460938 83.28125 L 100.238281 92.292969 L 119.542969 89.398438 L 119.542969 72.039062 L 159.816406 92.070312 L 159.816406 72.820312 C 161.480469 72.707031 163.035156 72.375 164.699219 72.039062 C 169.136719 70.929688 172.910156 69.480469 176.347656 67.480469 L 174.683594 77.828125 L 196.429688 81.277344 L 197.648438 73.375 L 203.308594 83.949219 L 206.746094 77.269531 L 207.96875 88.289062 L 232.597656 92.628906 L 231.265625 84.28125 C 234.59375 84.613281 238.144531 84.171875 241.585938 82.945312 C 242.359375 82.613281 243.25 82.277344 243.914062 81.832031 L 242.914062 90.734375 L 259.335938 93.070312 L 259.445312 99.859375 L 276.53125 105.203125 L 298.832031 37.878906 Z M 179.453125 42.21875 L 180.5625 40.996094 L 179.234375 49.453125 L 175.683594 46.226562 Z M 165.03125 7.5 L 171.023438 15.625 L 153.9375 24.082031 L 152.714844 22.300781 C 152.714844 22.410156 165.03125 7.5 165.03125 7.5 Z M 51.976562 70.261719 L 58.746094 96.523438 L 47.761719 100.082031 L 25.128906 49.339844 C 23.90625 50.007812 21.578125 51.121094 19.582031 52.121094 L 11.371094 38.210938 C 14.589844 36.097656 18.25 34.316406 22.023438 32.648438 C 32.671875 28.085938 42.878906 26.75 50.980469 28.199219 C 53.863281 28.53125 56.859375 29.421875 59.523438 31.203125 C 63.183594 33.316406 65.957031 36.210938 67.621094 39.992188 C 71.613281 49.117188 65.070312 62.25 51.976562 70.261719 Z M 102.679688 65.585938 C 102.570312 69.480469 101.125 73.375 98.683594 76.714844 C 96.355469 79.941406 93.25 82.5 89.476562 84.171875 C 79.9375 88.289062 70.394531 84.171875 67.84375 75.046875 C 65.402344 66.253906 71.171875 55.792969 80.378906 51.789062 C 86.257812 49.230469 92.25 49.898438 96.464844 52.789062 C 99.128906 54.570312 101.125 57.242188 102.015625 60.578125 C 102.125 60.914062 102.234375 61.359375 102.234375 61.691406 C 102.679688 63.027344 102.679688 64.363281 102.679688 65.585938 Z M 154.714844 84.171875 L 114.660156 64.140625 L 114.773438 85.171875 L 104.453125 86.617188 L 103.679688 77.9375 C 106.894531 72.484375 108.003906 65.921875 106.339844 60.023438 C 105.453125 56.796875 103.789062 53.902344 101.460938 51.675781 L 100.015625 33.984375 L 95.355469 35.207031 L 95.136719 30.757812 L 111.777344 25.75 L 112.777344 42.886719 L 124.980469 25.636719 L 137.074219 37.101562 L 120.320312 54.792969 L 136.074219 61.023438 C 137.847656 64.363281 140.511719 67.144531 143.839844 69.257812 C 147.058594 71.261719 150.832031 72.484375 154.714844 72.820312 Z M 133.964844 55.015625 L 128.417969 52.902344 L 133.632812 47.894531 C 133.300781 50.230469 133.410156 52.566406 133.964844 55.015625 Z M 177.457031 60.355469 C 173.574219 63.582031 169.246094 65.585938 163.476562 67.035156 C 162.257812 67.367188 160.925781 67.589844 159.816406 67.589844 C 150.609375 68.480469 142.953125 64.25 140.070312 57.464844 C 139.734375 56.683594 139.402344 55.792969 139.179688 54.90625 C 137.847656 49.117188 138.960938 44 141.84375 39.882812 C 142.621094 38.65625 143.617188 37.65625 144.726562 36.65625 C 147.390625 34.207031 150.832031 32.539062 154.714844 31.535156 C 163.476562 29.421875 171.132812 32.09375 175.902344 37.878906 L 159.261719 55.683594 C 160.371094 55.90625 162.148438 55.570312 163.476562 55.238281 C 167.472656 54.238281 169.691406 52.121094 171.578125 49.898438 L 178.234375 55.90625 L 180.230469 57.6875 C 179.34375 58.6875 178.457031 59.578125 177.457031 60.355469 Z M 212.847656 84.058594 L 209.1875 60.023438 L 204.085938 73.265625 L 196.429688 56.683594 L 196.316406 56.683594 L 193.324219 75.9375 L 180.5625 73.710938 L 182.339844 63.027344 C 182.78125 62.582031 183.335938 62.136719 183.78125 61.582031 L 187.886719 57.351562 L 183.890625 53.679688 L 188.21875 28.085938 L 201.089844 28.085938 L 204.304688 45.78125 L 207.96875 25.304688 L 217.175781 25.304688 L 221.058594 50.230469 C 216.175781 55.792969 213.847656 63.25 215.402344 70.148438 C 216.621094 75.492188 219.949219 79.71875 224.609375 82.277344 C 225.054688 82.5 225.609375 82.722656 226.050781 82.945312 L 226.496094 86.171875 Z M 244.691406 76.15625 C 243.25 77.160156 241.695312 78.050781 240.03125 78.605469 C 236.703125 79.832031 233.484375 80.164062 230.488281 79.496094 C 228.492188 79.050781 226.605469 78.273438 224.941406 77.160156 C 222.390625 75.269531 220.503906 72.597656 219.617188 69.148438 C 218.617188 65.03125 219.507812 60.578125 221.726562 56.683594 C 222.835938 54.792969 224.277344 53.011719 225.941406 51.453125 C 227.828125 49.785156 230.046875 48.339844 232.375 47.449219 C 238.035156 45.335938 243.582031 46.113281 247.464844 48.894531 C 248.90625 49.898438 250.128906 51.230469 251.015625 52.789062 C 251.679688 54.015625 252.234375 55.347656 252.566406 56.796875 C 253.789062 61.804688 252.347656 67.144531 249.238281 71.375 C 248.242188 73.265625 246.578125 74.824219 244.691406 76.15625 Z M 273.535156 98.859375 L 264.105469 96.078125 L 263.328125 61.136719 L 258.558594 88.066406 L 248.242188 86.394531 L 249.019531 78.605469 C 255.785156 72.929688 259.335938 63.917969 257.339844 55.683594 C 256.449219 52.121094 254.675781 48.894531 252.011719 46.558594 L 252.902344 37.433594 L 249.019531 36.433594 L 249.128906 31.535156 L 266.878906 35.097656 L 272.871094 63.472656 L 278.972656 37.988281 L 292.507812 40.996094 Z M 273.535156 98.859375 "/>
<path style=" stroke:none;fill-rule:nonzero;fill:rgb(0%,0%,0%);fill-opacity:1;" d="M 286.242188 94.949219 L 286.683594 94.949219 C 287.238281 94.949219 287.683594 94.726562 287.683594 94.167969 C 287.683594 93.835938 287.351562 93.390625 286.683594 93.390625 L 286.242188 93.390625 Z M 286.242188 97.285156 L 285.574219 97.285156 L 285.574219 93.058594 C 285.910156 92.945312 286.242188 92.945312 286.796875 92.945312 C 287.460938 92.945312 287.90625 93.058594 288.128906 93.277344 C 288.347656 93.5 288.570312 93.722656 288.570312 94.167969 C 288.570312 94.726562 288.238281 95.058594 287.792969 95.171875 C 288.128906 95.28125 288.460938 95.617188 288.460938 96.171875 C 288.570312 96.839844 288.683594 97.0625 288.683594 97.175781 L 288.015625 97.175781 C 287.90625 97.0625 287.792969 96.617188 287.683594 96.0625 C 287.574219 95.503906 287.351562 95.28125 286.796875 95.28125 L 286.242188 95.28125 Z M 287.019531 91.832031 C 285.355469 91.832031 284.023438 93.277344 284.023438 95.058594 C 284.023438 96.839844 285.355469 98.285156 287.128906 98.285156 C 288.792969 98.285156 290.125 96.839844 290.125 95.058594 C 290.011719 93.277344 288.683594 91.832031 287.019531 91.832031 Z M 287.019531 91.277344 C 289.125 91.277344 290.679688 92.945312 290.679688 95.058594 C 290.679688 97.175781 289.015625 98.84375 286.90625 98.84375 C 284.800781 98.84375 283.132812 97.175781 283.132812 95.058594 C 283.246094 92.945312 284.910156 91.277344 287.019531 91.277344 Z M 287.019531 91.277344 "/>
</g>
</svg>
