<?xml version="1.0" encoding="UTF-8"?>
<svg xmlns="http://www.w3.org/2000/svg" xmlns:xlink="http://www.w3.org/1999/xlink" width="210pt" height="210pt" viewBox="0 0 210 210" version="1.1">
<g id="surface1">
<path style=" stroke:none;fill-rule:nonzero;fill:rgb(64.705882%,85.882353%,90.980392%);fill-opacity:1;" d="M 68.070312 161.121094 C 69.746094 160.375 71.445312 159.6875 73.160156 159.046875 C 75.09375 158.316406 77.046875 157.632812 79.023438 157.039062 C 81.484375 156.296875 83.96875 155.625 86.484375 155.089844 C 89.878906 154.371094 93.3125 153.839844 96.765625 153.503906 C 94.8125 159.625 92.675781 165.691406 90.359375 171.6875 C 90.457031 172.859375 90.515625 174.03125 90.542969 175.203125 C 95.304688 174.261719 100.148438 173.789062 105 173.789062 C 109.949219 173.789062 114.777344 174.28125 119.457031 175.203125 C 119.484375 174.03125 119.542969 172.859375 119.640625 171.6875 C 117.324219 165.691406 115.1875 159.628906 113.234375 153.503906 C 116.691406 153.839844 120.125 154.371094 123.515625 155.089844 C 126.03125 155.625 128.511719 156.296875 130.976562 157.039062 C 132.953125 157.632812 134.90625 158.316406 136.839844 159.046875 C 138.554688 159.691406 140.257812 160.375 141.933594 161.125 C 154.054688 166.511719 164.851562 174.484375 173.574219 184.476562 C 195.867188 165.226562 210 136.773438 210 105 C 210 47.011719 162.988281 0 105 0 C 47.011719 0 0 47.011719 0 105 C 0 136.773438 14.132812 165.222656 36.425781 184.476562 C 45.148438 174.484375 55.945312 166.511719 68.070312 161.121094 "/>
<path style=" stroke:none;fill-rule:nonzero;fill:rgb(32.156863%,32.54902%,32.54902%);fill-opacity:1;" d="M 141.933594 161.125 L 148.449219 183.535156 L 150.300781 183.625 C 151.5 183.625 152.34375 183.941406 152.34375 185.140625 C 152.34375 187.132812 152.449219 189.375 152.640625 191.332031 C 154.261719 192.710938 156.242188 194.269531 157.742188 195.777344 C 163.355469 192.507812 168.65625 188.726562 173.574219 184.476562 C 164.851562 174.484375 154.054688 166.511719 141.933594 161.125 M 129.1875 160.898438 L 136.839844 159.046875 C 134.90625 158.316406 132.953125 157.632812 130.976562 157.039062 C 128.511719 156.296875 126.03125 155.625 123.515625 155.089844 C 120.121094 154.371094 116.6875 153.839844 113.234375 153.503906 C 115.1875 159.628906 117.324219 165.691406 119.640625 171.6875 C 119.542969 172.859375 119.484375 174.03125 119.457031 175.203125 C 124.878906 176.273438 130.210938 178.132812 135.140625 180.3125 L 129.1875 160.898438 "/>
<path style=" stroke:none;fill-rule:nonzero;fill:rgb(0%,0%,0%);fill-opacity:1;" d="M 52.257812 195.777344 C 53.480469 196.488281 54.710938 197.183594 55.960938 197.84375 C 56.398438 195.742188 57.101562 192.824219 57.3125 190.660156 C 55.6875 192.039062 53.757812 194.269531 52.257812 195.777344 M 135.011719 180.121094 C 130.023438 177.910156 124.808594 176.261719 119.457031 175.203125 C 114.695312 174.261719 109.851562 173.789062 105 173.789062 C 100.050781 173.789062 95.222656 174.28125 90.542969 175.203125 C 85.121094 176.273438 79.464844 177.894531 74.535156 180.074219 L 74.011719 183.339844 L 135.988281 183.339844 L 135.011719 180.121094 "/>
<path style=" stroke:none;fill-rule:nonzero;fill:rgb(32.156863%,32.54902%,32.54902%);fill-opacity:1;" d="M 57.121094 191.28125 C 57.3125 189.324219 57.449219 187.578125 57.449219 185.585938 C 57.449219 184.386719 58.273438 183.617188 59.472656 183.617188 L 61.441406 183.546875 L 68.070312 161.121094 C 55.945312 166.511719 45.148438 174.484375 36.425781 184.476562 C 41.34375 188.726562 46.644531 192.507812 52.257812 195.777344 C 53.757812 194.265625 55.324219 192.820312 56.945312 191.441406 "/>
<path style=" stroke:none;fill-rule:nonzero;fill:rgb(0%,0%,0%);fill-opacity:1;" d="M 153.441406 195.269531 C 153.863281 197.402344 153.960938 197.828125 154.039062 197.84375 C 155.285156 197.179688 156.519531 196.492188 157.742188 195.777344 C 156.226562 194.25 154.644531 192.785156 153.003906 191.390625 L 153.441406 195.269531 "/>
<path style=" stroke:none;fill-rule:nonzero;fill:rgb(66.666667%,58.823529%,47.058824%);fill-opacity:1;" d="M 135.011719 180.121094 L 135.988281 183.339844 L 148.667969 183.339844 L 141.933594 161.125 C 140.257812 160.378906 138.558594 159.6875 136.839844 159.046875 L 129.1875 160.898438 L 135.011719 180.121094 "/>
<path style=" stroke:none;fill-rule:nonzero;fill:rgb(76.862745%,71.372549%,63.137255%);fill-opacity:1;" d="M 61.554688 187.828125 C 61.621094 187.78125 61.6875 187.734375 61.753906 187.6875 L 61.5625 187.6875 C 61.5625 187.734375 61.558594 187.78125 61.554688 187.828125 "/>
<path style=" stroke:none;fill-rule:nonzero;fill:rgb(66.666667%,58.823529%,47.058824%);fill-opacity:1;" d="M 148.4375 187.6875 L 148.246094 187.6875 L 148.445312 187.828125 C 148.441406 187.78125 148.4375 187.734375 148.4375 187.6875 "/>
<path style=" stroke:none;fill-rule:nonzero;fill:rgb(66.666667%,58.823529%,47.058824%);fill-opacity:1;" d="M 148.21875 187.363281 L 104.910156 187.410156 L 105 210 C 121.117188 210 136.382812 206.359375 150.03125 199.867188 C 149.136719 195.953125 149.050781 191.738281 148.902344 187.632812 C 148.839844 187.585938 148.21875 187.363281 148.21875 187.363281 "/>
<path style=" stroke:none;fill-rule:nonzero;fill:rgb(76.862745%,71.372549%,63.137255%);fill-opacity:1;" d="M 104.929688 187.503906 C 104.929688 187.503906 61.382812 187.449219 61.316406 187.496094 C 61.171875 191.601562 60.328125 196.46875 59.96875 199.867188 C 73.617188 206.359375 88.882812 210 105 210 L 105.023438 187.578125 L 104.929688 187.503906 "/>
<path style=" stroke:none;fill-rule:nonzero;fill:rgb(66.666667%,58.823529%,47.058824%);fill-opacity:1;" d="M 137.480469 170.757812 L 137.5 170.824219 L 137.480469 170.757812 C 137.480469 170.757812 136.414062 169.914062 135.0625 168.359375 C 136.414062 169.914062 137.480469 170.757812 137.480469 170.757812 "/>
<path style=" stroke:none;fill-rule:nonzero;fill:rgb(100%,100%,100%);fill-opacity:1;" d="M 169.5625 75.753906 L 169.5625 75.757812 L 169.5625 75.753906 M 173.789062 105.984375 L 173.789062 105.953125 L 173.789062 105.984375 "/>
<path style=" stroke:none;fill-rule:nonzero;fill:rgb(40.392157%,41.568627%,41.568627%);fill-opacity:1;" d="M 173.671875 104.316406 C 173.675781 104.347656 173.683594 104.371094 173.6875 104.398438 C 173.6875 104.414062 173.695312 104.429688 173.695312 104.449219 L 173.695312 104.453125 C 173.746094 104.855469 173.765625 105.273438 173.773438 105.695312 C 173.777344 105.773438 173.789062 105.847656 173.789062 105.925781 L 173.789062 105.984375 C 173.789062 106.070312 173.773438 106.148438 173.773438 106.230469 C 173.769531 106.636719 173.742188 107.042969 173.695312 107.449219 L 173.695312 107.453125 L 173.6875 107.515625 C 173.683594 107.546875 173.671875 107.574219 173.667969 107.605469 C 173.613281 108.023438 173.535156 108.4375 173.433594 108.847656 L 173.429688 108.855469 L 173.445312 108.839844 L 173.453125 108.820312 L 176.199219 105.945312 L 173.429688 103.042969 L 173.429688 103.050781 C 173.535156 103.453125 173.613281 103.878906 173.671875 104.316406 "/>
<path style=" stroke:none;fill-rule:nonzero;fill:rgb(0%,0%,0%);fill-opacity:1;" d="M 173.667969 107.605469 C 173.675781 107.550781 173.691406 107.503906 173.695312 107.449219 C 173.746094 107.054688 173.761719 106.644531 173.773438 106.230469 C 173.773438 106.136719 173.789062 106.046875 173.789062 105.953125 C 173.789062 105.867188 173.777344 105.785156 173.773438 105.695312 C 173.769531 105.28125 173.742188 104.867188 173.695312 104.453125 C 173.691406 104.40625 173.675781 104.363281 173.671875 104.316406 C 173.617188 103.890625 173.535156 103.46875 173.429688 103.050781 C 173.394531 102.910156 173.34375 102.785156 173.300781 102.648438 C 173.054688 101.824219 172.714844 101.097656 172.3125 100.496094 C 172.160156 100.265625 171.992188 100.046875 171.808594 99.839844 C 171.644531 99.65625 171.460938 99.488281 171.265625 99.335938 C 171.195312 99.28125 171.117188 99.242188 171.042969 99.195312 C 170.816406 99.046875 170.574219 98.925781 170.316406 98.84375 C 170.074219 98.761719 169.820312 98.71875 169.5625 98.714844 C 169.304688 98.714844 169.054688 98.765625 168.8125 98.84375 C 168.554688 98.925781 168.308594 99.046875 168.082031 99.195312 C 168.011719 99.242188 167.933594 99.28125 167.863281 99.335938 C 167.523438 99.597656 167.226562 99.910156 166.980469 100.261719 C 166.921875 100.339844 166.867188 100.417969 166.8125 100.496094 C 166.410156 101.101562 166.070312 101.828125 165.824219 102.648438 L 165.792969 102.746094 C 165.683594 103.125 165.597656 103.519531 165.527344 103.929688 C 165.503906 104.054688 165.476562 104.171875 165.460938 104.300781 C 165.394531 104.757812 165.359375 105.234375 165.351562 105.71875 C 165.351562 105.789062 165.339844 105.851562 165.339844 105.917969 L 165.355469 105.917969 C 165.355469 109.917969 167.25 113.160156 169.582031 113.160156 C 169.984375 113.160156 170.371094 113.054688 170.738281 112.875 C 170.960938 112.769531 171.167969 112.636719 171.363281 112.484375 C 171.441406 112.417969 171.515625 112.339844 171.59375 112.269531 C 171.777344 112.09375 171.957031 111.898438 172.125 111.679688 C 172.238281 111.527344 172.355469 111.371094 172.460938 111.203125 C 172.53125 111.09375 172.59375 110.972656 172.65625 110.859375 C 172.773438 110.640625 172.886719 110.414062 172.984375 110.171875 C 173.023438 110.085938 173.0625 110 173.097656 109.910156 C 173.226562 109.574219 173.335938 109.21875 173.433594 108.847656 C 173.535156 108.453125 173.609375 108.035156 173.667969 107.605469 Z M 169.714844 104.988281 C 168.839844 104.988281 168.128906 103.773438 168.128906 102.273438 C 168.128906 100.773438 168.839844 99.558594 169.714844 99.558594 C 170.589844 99.558594 171.300781 100.773438 171.300781 102.273438 C 171.300781 103.773438 170.589844 104.988281 169.714844 104.988281 Z M 169.714844 104.988281 "/>
<path style=" stroke:none;fill-rule:nonzero;fill:rgb(100%,100%,100%);fill-opacity:1;" d="M 169.714844 99.558594 C 168.839844 99.558594 168.128906 100.773438 168.128906 102.273438 C 168.128906 103.773438 168.839844 104.988281 169.714844 104.988281 C 170.589844 104.988281 171.300781 103.773438 171.300781 102.273438 C 171.300781 100.773438 170.589844 99.558594 169.714844 99.558594 "/>
<path style=" stroke:none;fill-rule:nonzero;fill:rgb(56.470588%,57.647059%,57.647059%);fill-opacity:1;" d="M 165.824219 102.648438 C 166.070312 101.828125 166.410156 101.101562 166.8125 100.496094 C 166.867188 100.414062 166.921875 100.339844 166.980469 100.261719 C 167.226562 99.910156 167.523438 99.597656 167.863281 99.335938 C 167.933594 99.28125 168.011719 99.242188 168.082031 99.195312 C 168.308594 99.046875 168.554688 98.925781 168.8125 98.84375 C 169.054688 98.765625 169.304688 98.714844 169.5625 98.714844 C 169.820312 98.714844 170.070312 98.765625 170.316406 98.84375 C 170.574219 98.925781 170.816406 99.046875 171.042969 99.195312 C 171.117188 99.242188 171.195312 99.28125 171.265625 99.335938 C 171.457031 99.480469 171.636719 99.652344 171.808594 99.839844 C 171.992188 100.046875 172.160156 100.265625 172.3125 100.496094 C 172.714844 101.097656 173.054688 101.824219 173.300781 102.648438 L 169.5625 85.523438 L 165.824219 102.648438 "/>
<path style=" stroke:none;fill-rule:nonzero;fill:rgb(0%,0%,0%);fill-opacity:1;" d="M 120.011719 105.792969 C 120.007812 105.449219 119.984375 105.109375 119.945312 104.773438 C 119.945312 104.769531 119.941406 104.765625 119.941406 104.761719 C 119.902344 104.433594 119.847656 104.109375 119.777344 103.785156 L 119.769531 103.761719 C 119.699219 103.445312 119.617188 103.136719 119.515625 102.832031 L 119.507812 102.8125 C 119.40625 102.507812 119.289062 102.210938 119.160156 101.917969 C 119.160156 101.914062 119.15625 101.90625 119.152344 101.898438 C 118.109375 99.582031 116.21875 97.75 113.867188 96.78125 L 113.839844 96.769531 C 113.269531 96.539062 112.675781 96.359375 112.070312 96.238281 C 112.054688 96.234375 112.039062 96.234375 112.023438 96.230469 C 111.398438 96.105469 110.761719 96.042969 110.125 96.042969 C 109.488281 96.042969 108.867188 96.109375 108.261719 96.226562 L 108.199219 96.234375 C 107.597656 96.355469 107.015625 96.53125 106.460938 96.753906 L 106.414062 96.769531 C 105.851562 97 105.3125 97.28125 104.800781 97.609375 C 104.289062 97.9375 103.808594 98.3125 103.367188 98.726562 L 103.355469 98.761719 L 103.320312 98.769531 C 102.613281 99.441406 102.007812 100.214844 101.523438 101.0625 L 101.507812 101.089844 C 101.359375 101.351562 101.226562 101.621094 101.101562 101.898438 C 101.089844 101.925781 101.074219 101.953125 101.058594 101.984375 C 100.949219 102.238281 100.851562 102.503906 100.761719 102.769531 C 100.742188 102.820312 100.71875 102.871094 100.703125 102.921875 C 100.625 103.171875 100.5625 103.425781 100.5 103.683594 C 100.484375 103.753906 100.460938 103.824219 100.445312 103.898438 C 100.394531 104.152344 100.355469 104.410156 100.324219 104.667969 C 100.3125 104.75 100.296875 104.824219 100.289062 104.90625 C 100.183594 105.886719 100.230469 106.878906 100.421875 107.847656 C 100.425781 107.859375 100.425781 107.875 100.429688 107.886719 C 100.550781 108.503906 100.734375 109.101562 100.96875 109.671875 C 100.972656 109.679688 100.972656 109.6875 100.976562 109.695312 C 101.449219 110.839844 102.132812 111.886719 102.992188 112.777344 C 103.664062 113.480469 104.4375 114.082031 105.289062 114.5625 L 105.300781 114.570312 C 105.570312 114.71875 105.84375 114.855469 106.121094 114.976562 C 106.144531 114.988281 106.167969 115 106.191406 115.011719 C 106.449219 115.125 106.71875 115.222656 106.988281 115.3125 C 107.035156 115.328125 107.078125 115.347656 107.125 115.363281 C 107.375 115.441406 107.632812 115.507812 107.890625 115.566406 C 107.960938 115.582031 108.027344 115.605469 108.097656 115.621094 C 108.347656 115.671875 108.605469 115.707031 108.863281 115.742188 C 108.941406 115.75 109.019531 115.765625 109.097656 115.777344 C 111.410156 116.019531 113.730469 115.441406 115.65625 114.140625 C 116.710938 113.429688 117.617188 112.519531 118.328125 111.46875 C 119.433594 109.835938 120.019531 107.90625 120.019531 105.9375 C 120.019531 105.914062 120.015625 105.890625 120.015625 105.867188 C 120.015625 105.84375 120.011719 105.820312 120.011719 105.792969 Z M 110.125 104.636719 C 108.074219 104.632812 106.410156 102.96875 106.410156 100.917969 C 106.410156 98.867188 108.074219 97.203125 110.125 97.203125 C 112.179688 97.203125 113.84375 98.867188 113.84375 100.917969 C 113.84375 102.972656 112.179688 104.636719 110.125 104.636719 Z M 110.125 104.636719 "/>
<path style=" stroke:none;fill-rule:nonzero;fill:rgb(100%,100%,100%);fill-opacity:1;" d="M 110.125 97.203125 C 108.074219 97.203125 106.410156 98.867188 106.410156 100.917969 C 106.410156 102.96875 108.074219 104.632812 110.125 104.632812 C 112.179688 104.632812 113.84375 102.96875 113.84375 100.917969 C 113.84375 98.867188 112.179688 97.203125 110.125 97.203125 "/>
<path style=" stroke:none;fill-rule:nonzero;fill:rgb(73.333333%,73.72549%,74.117647%);fill-opacity:1;" d="M 103.320312 98.769531 L 103.355469 98.761719 L 103.367188 98.726562 L 110.179688 77.890625 L 110.179688 72.957031 C 106.335938 72.160156 102.417969 71.757812 98.492188 71.75 C 97.15625 71.75 95.835938 71.808594 94.519531 71.898438 C 94.332031 71.910156 94.136719 71.921875 93.945312 71.9375 C 87.105469 72.457031 80.371094 74.238281 74.136719 77.085938 C 68.789062 79.527344 63.820312 82.742188 59.355469 86.558594 L 59.347656 86.566406 C 58.152344 87.589844 56.992188 88.65625 55.875 89.761719 C 55.664062 89.96875 55.453125 90.171875 55.246094 90.378906 C 54.1875 91.445312 53.164062 92.542969 52.179688 93.675781 C 51.964844 93.921875 51.753906 94.175781 51.542969 94.421875 C 50.546875 95.589844 49.589844 96.789062 48.671875 98.019531 C 48.59375 98.121094 48.523438 98.230469 48.445312 98.335938 C 47.574219 99.523438 46.738281 100.742188 45.941406 101.984375 C 45.785156 102.226562 45.621094 102.464844 45.46875 102.707031 C 44.820312 103.734375 44.21875 104.792969 43.621094 105.851562 L 74.65625 105.851562 L 103.320312 98.769531 "/>
<path style=" stroke:none;fill-rule:nonzero;fill:rgb(89.019608%,86.666667%,85.882353%);fill-opacity:1;" d="M 129.523438 96.425781 C 129.585938 95.613281 129.636719 94.800781 129.679688 93.984375 C 129.738281 92.886719 129.773438 91.78125 129.796875 90.679688 C 129.8125 89.824219 129.808594 88.96875 129.804688 88.113281 C 129.804688 87.867188 129.8125 87.621094 129.808594 87.371094 C 129.785156 85.164062 129.703125 82.953125 129.566406 80.75 L 129.546875 80.738281 L 129.539062 80.722656 C 128.71875 80.25 127.898438 79.78125 127.074219 79.3125 L 127.019531 79.28125 L 126.375 78.917969 L 126.363281 78.910156 L 125.917969 78.660156 L 125.832031 78.613281 C 125.722656 78.550781 125.617188 78.492188 125.507812 78.4375 C 124.082031 77.695312 122.625 77.011719 121.144531 76.386719 C 117.613281 74.894531 112.859375 73.589844 110.179688 72.957031 L 110.179688 77.890625 L 116.933594 98.761719 L 116.941406 98.777344 C 117.640625 99.441406 118.238281 100.207031 118.71875 101.046875 C 118.878906 101.324219 119.023438 101.609375 119.152344 101.898438 C 119.15625 101.90625 119.160156 101.914062 119.160156 101.917969 C 119.289062 102.207031 119.40625 102.507812 119.507812 102.8125 L 119.515625 102.832031 C 119.613281 103.136719 119.699219 103.445312 119.769531 103.761719 L 119.777344 103.785156 C 119.847656 104.105469 119.902344 104.429688 119.941406 104.761719 C 119.941406 104.765625 119.945312 104.769531 119.945312 104.773438 C 119.984375 105.109375 120.007812 105.449219 120.011719 105.792969 L 120.035156 105.851562 L 128.304688 105.851562 C 128.859375 102.816406 129.257812 99.753906 129.5 96.679688 C 129.507812 96.59375 129.515625 96.507812 129.523438 96.425781 "/>
<path style=" stroke:none;fill-rule:nonzero;fill:rgb(98.823529%,69.019608%,24.705882%);fill-opacity:1;" d="M 140.339844 89.046875 C 140.332031 89.054688 140.328125 89.066406 140.324219 89.074219 L 140.339844 89.046875 "/>
<path style=" stroke:none;fill-rule:nonzero;fill:rgb(56.470588%,57.647059%,57.647059%);fill-opacity:1;" d="M 103.367188 98.726562 C 103.8125 98.3125 104.292969 97.933594 104.804688 97.605469 C 105.316406 97.277344 105.855469 97 106.414062 96.769531 C 106.429688 96.765625 106.445312 96.761719 106.460938 96.753906 C 107.023438 96.527344 107.601562 96.355469 108.199219 96.234375 L 108.261719 96.226562 C 108.875 96.105469 109.5 96.046875 110.125 96.042969 C 110.777344 96.042969 111.410156 96.109375 112.023438 96.230469 C 112.039062 96.234375 112.054688 96.234375 112.070312 96.238281 C 112.683594 96.359375 113.289062 96.542969 113.867188 96.78125 C 115.007812 97.25 116.050781 97.929688 116.941406 98.777344 L 116.933594 98.761719 L 110.179688 77.890625 L 103.367188 98.726562 "/>
<path style=" stroke:none;fill-rule:nonzero;fill:rgb(40.392157%,41.568627%,41.568627%);fill-opacity:1;" d="M 100.96875 109.671875 C 100.730469 109.09375 100.550781 108.496094 100.429688 107.886719 C 100.425781 107.875 100.425781 107.859375 100.421875 107.847656 C 100.230469 106.878906 100.183594 105.886719 100.289062 104.90625 C 100.296875 104.824219 100.3125 104.75 100.324219 104.667969 C 100.355469 104.410156 100.394531 104.152344 100.445312 103.898438 C 100.460938 103.824219 100.484375 103.753906 100.5 103.683594 C 100.5625 103.425781 100.625 103.171875 100.703125 102.921875 C 100.722656 102.871094 100.742188 102.820312 100.761719 102.769531 C 100.851562 102.503906 100.949219 102.238281 101.058594 101.984375 C 101.074219 101.953125 101.089844 101.925781 101.101562 101.898438 C 101.226562 101.621094 101.359375 101.351562 101.507812 101.089844 L 101.523438 101.0625 C 102.007812 100.214844 102.613281 99.441406 103.320312 98.769531 L 74.65625 105.851562 L 74.601562 105.851562 L 102.992188 112.777344 C 102.132812 111.886719 101.449219 110.839844 100.976562 109.695312 C 100.972656 109.6875 100.972656 109.679688 100.96875 109.671875 "/>
<path style=" stroke:none;fill-rule:nonzero;fill:rgb(89.019608%,86.666667%,85.882353%);fill-opacity:1;" d="M 165.460938 104.300781 C 165.476562 104.171875 165.503906 104.054688 165.527344 103.929688 C 165.597656 103.519531 165.683594 103.125 165.792969 102.746094 C 165.804688 102.703125 165.8125 102.65625 165.824219 102.613281 L 169.5625 85.488281 L 169.5625 75.726562 C 166.507812 73.199219 163.234375 71.820312 159.828125 71.820312 C 155.523438 71.820312 151.507812 74.199219 148.507812 77.132812 C 145.222656 80.347656 142.683594 84.390625 140.632812 88.46875 C 140.539062 88.65625 140.441406 88.835938 140.347656 89.027344 C 140.980469 89.574219 141.605469 90.128906 142.222656 90.695312 C 143.621094 91.976562 144.992188 93.285156 146.339844 94.617188 C 146.96875 95.238281 147.585938 95.871094 148.203125 96.5 C 148.859375 97.167969 149.515625 97.835938 150.164062 98.515625 C 151.34375 99.757812 152.511719 101.015625 153.660156 102.289062 C 154.644531 103.375 155.617188 104.472656 156.582031 105.578125 L 156.585938 105.578125 C 156.746094 105.75 156.859375 105.871094 156.902344 105.917969 L 165.335938 105.917969 C 165.335938 105.851562 165.351562 105.789062 165.351562 105.71875 C 165.359375 105.234375 165.394531 104.757812 165.460938 104.300781 M 140.347656 89.070312 L 140.339844 89.046875 L 140.324219 89.074219 L 140.359375 89.109375 C 140.355469 89.097656 140.351562 89.082031 140.347656 89.070312 "/>
<path style=" stroke:none;fill-rule:nonzero;fill:rgb(32.156863%,32.54902%,32.54902%);fill-opacity:1;" d="M 38.535156 116.625 L 38.609375 116.4375 C 39.742188 113.5 41.046875 110.628906 42.519531 107.847656 C 42.75 107.414062 42.972656 106.980469 43.207031 106.550781 C 43.339844 106.3125 43.488281 106.085938 43.621094 105.851562 C 44.21875 104.792969 44.820312 103.734375 45.46875 102.707031 C 45.621094 102.460938 45.785156 102.226562 45.941406 101.984375 C 46.738281 100.742188 47.574219 99.523438 48.445312 98.335938 C 48.523438 98.230469 48.59375 98.121094 48.671875 98.019531 C 49.589844 96.789062 50.546875 95.589844 51.542969 94.421875 C 51.753906 94.175781 51.964844 93.921875 52.179688 93.675781 C 53.164062 92.542969 54.1875 91.445312 55.246094 90.378906 C 55.453125 90.171875 55.664062 89.96875 55.875 89.761719 C 56.992188 88.65625 58.152344 87.589844 59.347656 86.566406 L 59.355469 86.558594 C 64.070312 70.753906 79.304688 61.042969 96.382812 61.042969 C 103.257812 61.042969 110.09375 63.027344 115.953125 66.609375 C 121.964844 70.285156 126.0625 73.875 129.242188 80.15625 L 129.289062 80.25 C 129.371094 80.40625 129.460938 80.558594 129.539062 80.722656 L 129.546875 80.738281 L 129.566406 80.75 C 132.238281 82.402344 134.78125 84.25 137.179688 86.28125 C 137.984375 86.960938 138.777344 87.660156 139.550781 88.378906 C 139.808594 88.613281 140.070312 88.835938 140.324219 89.074219 C 140.328125 89.0625 140.332031 89.054688 140.339844 89.042969 C 140.339844 89.039062 140.34375 89.03125 140.347656 89.023438 C 140.433594 88.847656 140.519531 88.664062 140.605469 88.492188 C 143.015625 73.300781 150.660156 65.019531 158.5625 65.019531 C 164.519531 65.019531 168.851562 68.570312 172.121094 78.132812 L 172.15625 78.234375 L 172.164062 78.246094 C 173.128906 79.296875 174.027344 80.40625 174.859375 81.566406 C 174.875 81.589844 174.894531 81.609375 174.910156 81.632812 C 174.957031 81.773438 175 81.914062 175.042969 82.054688 L 175.042969 82.050781 L 174.921875 81.554688 C 165.089844 52.449219 137.558594 31.492188 105.132812 31.492188 C 64.460938 31.492188 31.492188 64.460938 31.492188 105.132812 C 31.492188 113.152344 32.773438 120.871094 35.152344 128.054688 L 35.164062 128.011719 C 36 124.136719 37.125 120.332031 38.535156 116.625 "/>
<path style=" stroke:none;fill-rule:nonzero;fill:rgb(100%,100%,100%);fill-opacity:1;" d="M 176.019531 105.949219 L 173.453125 108.820312 L 173.445312 108.839844 C 173.347656 109.21875 173.230469 109.570312 173.097656 109.910156 C 173.0625 110 173.023438 110.085938 172.984375 110.171875 C 172.886719 110.40625 172.777344 110.632812 172.65625 110.859375 C 172.59375 110.972656 172.53125 111.09375 172.460938 111.203125 C 172.355469 111.371094 172.238281 111.527344 172.125 111.679688 C 171.964844 111.890625 171.785156 112.089844 171.59375 112.269531 C 171.515625 112.339844 171.441406 112.417969 171.363281 112.484375 C 171.167969 112.636719 170.960938 112.769531 170.738281 112.875 C 170.371094 113.054688 169.984375 113.160156 169.582031 113.160156 C 167.25 113.160156 165.355469 109.917969 165.355469 105.917969 L 156.878906 105.917969 L 156.882812 105.925781 C 158.476562 107.765625 160.042969 109.628906 161.585938 111.511719 C 163.070312 113.324219 164.53125 115.152344 165.976562 116.992188 L 166.191406 117.261719 C 167.5625 119.011719 168.917969 120.769531 170.261719 122.535156 L 170.65625 123.046875 C 172.085938 124.929688 173.503906 126.816406 174.914062 128.710938 C 177.394531 121.363281 178.699219 113.671875 178.777344 105.917969 L 176.390625 105.828125 L 176.019531 105.949219 "/>
<path style=" stroke:none;fill-rule:nonzero;fill:rgb(0%,0%,0%);fill-opacity:1;" d="M 93.945312 71.9375 C 94.136719 71.921875 94.332031 71.910156 94.519531 71.898438 C 95.84375 71.804688 97.167969 71.753906 98.492188 71.75 C 102.484375 71.75 106.386719 72.179688 110.179688 72.957031 C 112.859375 73.589844 117.613281 74.894531 121.144531 76.386719 C 122.625 77.011719 124.082031 77.695312 125.507812 78.4375 L 125.832031 78.613281 L 125.917969 78.660156 C 126.050781 78.734375 126.195312 78.816406 126.363281 78.910156 L 126.375 78.917969 L 127.019531 79.28125 L 127.074219 79.3125 C 127.984375 79.828125 128.988281 80.40625 129.371094 80.625 L 129.46875 80.679688 L 129.539062 80.722656 C 129.460938 80.558594 129.371094 80.40625 129.289062 80.25 L 129.242188 80.15625 C 126.0625 73.875 121.164062 68.492188 115.152344 64.816406 C 109.296875 61.230469 102.457031 59.25 95.582031 59.25 C 78.503906 59.25 64.070312 70.753906 59.355469 86.558594 C 63.820312 82.742188 68.789062 79.527344 74.136719 77.085938 C 80.371094 74.238281 87.105469 72.457031 93.945312 71.9375 "/>
<path style=" stroke:none;fill-rule:nonzero;fill:rgb(73.333333%,73.72549%,74.117647%);fill-opacity:1;" d="M 174.910156 81.632812 C 174.894531 81.609375 174.875 81.589844 174.859375 81.566406 C 174.027344 80.40625 173.128906 79.296875 172.164062 78.246094 L 172.140625 78.21875 C 171.730469 77.769531 171.304688 77.335938 170.867188 76.917969 C 170.707031 76.761719 170.539062 76.625 170.375 76.476562 C 170.105469 76.234375 169.835938 75.980469 169.5625 75.753906 L 169.5625 85.523438 L 173.304688 102.648438 C 173.34375 102.78125 173.394531 102.90625 173.429688 103.042969 L 176.019531 105.949219 L 176.046875 105.917969 L 178.757812 105.917969 C 178.761719 105.667969 178.777344 105.421875 178.777344 105.167969 L 178.777344 105.164062 C 178.773438 97.308594 177.515625 89.507812 175.042969 82.050781 L 175.042969 82.054688 C 175 81.914062 174.957031 81.773438 174.910156 81.632812 "/>
<path style=" stroke:none;fill-rule:nonzero;fill:rgb(0%,0%,0%);fill-opacity:1;" d="M 148.507812 77.132812 C 151.507812 74.199219 155.523438 71.820312 159.828125 71.820312 C 163.234375 71.820312 166.507812 73.199219 169.5625 75.726562 L 169.5625 75.757812 L 169.5625 75.753906 C 169.835938 75.980469 170.105469 76.234375 170.375 76.476562 C 170.539062 76.625 170.707031 76.761719 170.867188 76.917969 C 171.304688 77.335938 171.730469 77.769531 172.140625 78.214844 L 172.164062 78.246094 C 172.160156 78.242188 172.160156 78.238281 172.15625 78.234375 L 172.121094 78.132812 C 168.851562 68.570312 163.574219 62.359375 157.617188 62.359375 C 149.714844 62.359375 143.015625 73.300781 140.605469 88.492188 L 140.632812 88.46875 C 142.683594 84.390625 145.222656 80.347656 148.507812 77.132812 M 137.828125 170.492188 C 137.828125 170.492188 136.765625 169.648438 135.414062 168.09375 C 134.785156 167.375 134.199219 166.617188 133.660156 165.832031 C 133.484375 165.578125 133.316406 165.320312 133.144531 165.050781 C 132.632812 164.242188 132.226562 163.257812 131.777344 162.285156 C 131.257812 161.160156 131.253906 160.414062 130.957031 159.363281 C 130.738281 158.589844 130.5625 157.808594 130.433594 157.015625 C 130.226562 155.734375 130.144531 154.433594 130.1875 153.136719 C 130.210938 152.386719 130.285156 151.613281 130.398438 150.824219 C 130.511719 150.039062 130.664062 149.261719 130.855469 148.496094 C 131.449219 146.113281 132.480469 143.578125 134.085938 140.898438 L 134.496094 139.980469 C 135.019531 139.109375 135.136719 139.144531 135.636719 138.304688 C 142.660156 126.449219 146.449219 117.484375 144.597656 103.679688 C 144.394531 102.265625 144.164062 100.855469 143.902344 99.449219 C 143.742188 100.46875 143.570312 101.484375 143.390625 102.5 C 143.320312 102.816406 143.128906 103.15625 143.058594 103.371094 C 140.007812 112.402344 135.203125 119.046875 128.292969 126.546875 C 127.328125 127.589844 126.355469 128.617188 125.371094 129.636719 C 123.609375 131.457031 121.828125 133.257812 120.03125 135.042969 C 119.285156 135.785156 118.523438 136.539062 117.746094 137.308594 C 117.03125 138.015625 116.144531 139.523438 115.089844 140.636719 C 114.433594 142.464844 113.691406 144.527344 113.066406 146.695312 C 112.78125 146.589844 112.511719 146.492188 112.222656 146.378906 C 98.796875 141.1875 89.808594 134.25 89.808594 134.25 C 89.808594 134.25 96.726562 143.253906 108.378906 151.707031 C 109.449219 152.484375 110.5625 153.203125 111.707031 153.863281 C 111.226562 161.472656 114.582031 168.777344 129.734375 170.957031 C 132.296875 171.324219 134.921875 171.308594 137.5625 171.011719 C 137.535156 170.933594 137.710938 170.933594 137.695312 170.890625 C 137.683594 170.84375 137.839844 170.730469 137.839844 170.730469 "/>
<path style=" stroke:none;fill-rule:nonzero;fill:rgb(62.352941%,13.333333%,32.941176%);fill-opacity:1;" d="M 129.722656 150.902344 C 143.175781 153.074219 163.082031 152.71875 183.75 143.042969 C 184.246094 142.808594 184.796875 143.421875 185.292969 143.179688 C 185.292969 143.179688 171.167969 157.605469 154.300781 165.761719 C 153.808594 166 153.320312 166.253906 152.824219 166.480469 C 151.195312 167.222656 149.535156 167.871094 147.871094 168.472656 C 144.605469 169.644531 141.300781 170.535156 138.015625 170.945312 C 137.863281 170.964844 137.714844 170.992188 137.5625 171.011719 C 137.542969 170.949219 137.523438 170.886719 137.5 170.824219 L 137.480469 170.757812 C 137.480469 170.757812 136.414062 169.914062 135.0625 168.359375 C 134.433594 167.640625 133.847656 166.882812 133.308594 166.097656 C 132.558594 165.003906 131.898438 163.847656 131.339844 162.640625 C 130.867188 161.625 130.476562 160.574219 130.167969 159.496094 C 129.589844 157.472656 129.332031 155.371094 129.398438 153.269531 C 129.425781 152.492188 129.496094 151.722656 129.609375 150.953125 L 129.722656 150.902344 "/>
<path style=" stroke:none;fill-rule:nonzero;fill:rgb(98.823529%,69.019608%,24.705882%);fill-opacity:1;" d="M 120.082031 135.589844 C 121.878906 133.804688 123.660156 132.003906 125.417969 130.183594 C 126.40625 129.164062 127.378906 128.136719 128.339844 127.09375 C 135.253906 119.59375 140.324219 112.574219 143.378906 103.542969 C 143.449219 103.328125 143.523438 103.046875 143.589844 102.726562 L 143.625 102.582031 C 143.695312 102.242188 143.765625 101.867188 143.835938 101.445312 C 143.863281 101.15625 144.777344 100.566406 144.800781 100.292969 C 144.035156 96.363281 142.273438 92.226562 140.347656 89.070312 C 140.351562 89.082031 140.355469 89.097656 140.359375 89.109375 L 140.324219 89.074219 C 140.070312 88.835938 139.808594 88.613281 139.550781 88.378906 C 138.777344 87.660156 137.984375 86.960938 137.179688 86.28125 C 134.78125 84.25 132.238281 82.402344 129.566406 80.75 C 129.699219 82.960938 129.785156 85.167969 129.808594 87.371094 C 129.8125 87.621094 129.804688 87.867188 129.804688 88.113281 C 129.808594 88.96875 129.8125 89.824219 129.796875 90.679688 C 129.773438 91.78125 129.738281 92.882812 129.679688 93.984375 C 129.636719 94.800781 129.585938 95.613281 129.523438 96.425781 C 129.515625 96.507812 129.507812 96.59375 129.5 96.679688 C 129.257812 99.753906 128.859375 102.816406 128.304688 105.851562 L 127.335938 110.441406 C 125.304688 118.667969 121.1875 126.128906 117.796875 133.828125 C 116.898438 135.871094 116.046875 137.9375 115.300781 140.042969 L 115.089844 140.636719 C 115.976562 139.699219 116.878906 138.769531 117.796875 137.859375 C 118.570312 137.089844 119.335938 136.332031 120.082031 135.589844 "/>
<path style=" stroke:none;fill-rule:nonzero;fill:rgb(32.156863%,32.54902%,32.54902%);fill-opacity:1;" d="M 75.632812 179.824219 C 80.558594 177.644531 85.121094 176.273438 90.542969 175.203125 C 90.515625 174.03125 90.457031 172.859375 90.359375 171.6875 C 92.675781 165.691406 94.8125 159.625 96.765625 153.503906 C 93.3125 153.839844 89.878906 154.371094 86.484375 155.089844 C 83.96875 155.625 81.484375 156.296875 79.023438 157.039062 C 77.046875 157.632812 75.09375 158.316406 73.160156 159.046875 L 80.8125 160.898438 L 74.652344 180.230469 L 75.632812 179.824219 "/>
<path style=" stroke:none;fill-rule:nonzero;fill:rgb(87.45098%,0%,40.392157%);fill-opacity:1;" d="M 170.261719 122.535156 C 168.917969 120.769531 167.5625 119.011719 166.191406 117.261719 L 165.976562 116.992188 C 164.515625 115.128906 163.03125 113.28125 161.53125 111.445312 C 160.007812 109.585938 158.457031 107.746094 156.882812 105.925781 C 156.78125 105.808594 156.683594 105.691406 156.582031 105.578125 C 155.285156 104.085938 153.96875 102.613281 152.632812 101.160156 C 151.816406 100.269531 150.992188 99.390625 150.164062 98.515625 C 149.515625 97.839844 148.859375 97.167969 148.203125 96.5 C 147.585938 95.871094 146.96875 95.238281 146.339844 94.617188 C 144.992188 93.285156 143.621094 91.976562 142.222656 90.695312 C 141.605469 90.128906 140.980469 89.574219 140.347656 89.023438 C 140.34375 89.03125 140.339844 89.039062 140.339844 89.046875 C 141.667969 92.871094 143.1875 96.742188 143.949219 100.730469 C 144.144531 101.765625 144.308594 102.777344 144.441406 103.761719 C 146.296875 117.566406 141.871094 126.578125 134.847656 138.433594 C 134.332031 139.300781 133.816406 140.164062 133.296875 141.03125 C 131.691406 143.707031 130.664062 146.246094 130.066406 148.625 C 129.875 149.394531 129.722656 150.171875 129.609375 150.953125 C 143.386719 153.179688 164.101562 153.59375 185.292969 143.179688 C 185.292969 143.179688 181.136719 137.070312 174.882812 128.671875 C 173.484375 126.789062 172.074219 124.917969 170.65625 123.046875 C 170.527344 122.878906 170.394531 122.707031 170.261719 122.535156 "/>
<path style=" stroke:none;fill-rule:nonzero;fill:rgb(66.666667%,58.823529%,47.058824%);fill-opacity:1;" d="M 73.921875 183.6875 L 80.8125 160.898438 L 73.160156 159.046875 C 71.445312 159.6875 69.746094 160.375 68.070312 161.121094 L 61.246094 183.6875 L 68.863281 183.804688 L 73.921875 183.6875 "/>
<path style=" stroke:none;fill-rule:nonzero;fill:rgb(100%,100%,100%);fill-opacity:1;" d="M 78.765625 173.828125 C 79.4375 174.085938 80.125 174.320312 80.804688 174.558594 C 88.625 177.300781 96.847656 178.699219 105.132812 178.699219 C 114.558594 178.703125 123.898438 176.894531 132.636719 173.367188 C 133.085938 173.1875 133.527344 172.988281 133.972656 172.796875 C 134.695312 172.492188 135.410156 172.175781 136.121094 171.847656 C 136.757812 171.550781 137.390625 171.257812 138.015625 170.945312 C 137.863281 170.964844 137.714844 170.992188 137.5625 171.011719 C 134.921875 171.308594 132.296875 171.324219 129.734375 170.957031 C 114.582031 168.777344 111.226562 161.472656 111.707031 153.863281 C 110.5625 153.203125 109.449219 152.484375 108.378906 151.707031 C 96.726562 143.253906 89.808594 134.25 89.808594 134.25 C 89.808594 134.25 98.796875 141.1875 112.222656 146.378906 C 112.511719 146.492188 112.78125 146.589844 113.066406 146.695312 C 113.691406 144.527344 114.433594 142.464844 115.089844 140.636719 L 115.300781 140.042969 C 116.046875 137.9375 116.898438 135.871094 117.796875 133.828125 C 121.1875 126.128906 125.304688 118.667969 127.335938 110.441406 L 128.304688 105.851562 L 120.019531 105.851562 L 120.019531 105.867188 L 120.015625 105.867188 C 120.015625 105.890625 120.019531 105.914062 120.019531 105.9375 C 120.019531 107.90625 119.433594 109.835938 118.328125 111.46875 C 117.253906 113.058594 115.742188 114.300781 113.976562 115.050781 C 112.4375 115.703125 110.761719 115.953125 109.097656 115.777344 C 109.019531 115.765625 108.941406 115.75 108.863281 115.742188 C 108.605469 115.707031 108.347656 115.671875 108.097656 115.621094 C 108.027344 115.605469 107.960938 115.582031 107.890625 115.566406 C 107.632812 115.507812 107.375 115.441406 107.125 115.363281 C 107.078125 115.347656 107.035156 115.328125 106.988281 115.3125 C 106.71875 115.222656 106.449219 115.125 106.191406 115.011719 C 106.167969 115 106.144531 114.988281 106.121094 114.976562 C 105.84375 114.855469 105.570312 114.71875 105.300781 114.570312 L 105.289062 114.5625 C 104.441406 114.082031 103.667969 113.484375 102.992188 112.777344 L 74.601562 105.851562 L 43.621094 105.851562 C 43.488281 106.085938 43.339844 106.3125 43.207031 106.550781 C 42.972656 106.980469 42.75 107.414062 42.519531 107.847656 C 41.757812 109.285156 41.042969 110.746094 40.371094 112.230469 C 39.746094 113.613281 39.15625 115.019531 38.609375 116.4375 L 38.535156 116.625 C 37.125 120.332031 36 124.136719 35.164062 128.011719 C 40.039062 142.886719 49.53125 155.671875 61.9375 164.683594 C 62.296875 164.945312 62.675781 165.175781 63.042969 165.433594 C 65.144531 166.90625 67.316406 168.269531 69.558594 169.515625 C 72.523438 171.167969 75.601562 172.605469 78.765625 173.828125 "/>
<path style=" stroke:none;fill-rule:nonzero;fill:rgb(54.509804%,45.490196%,37.647059%);fill-opacity:1;" d="M 153.054688 191.441406 C 152.855469 189.46875 152.753906 187.492188 152.746094 185.511719 C 152.746094 184.3125 151.773438 183.339844 150.574219 183.339844 L 59.425781 183.339844 C 58.226562 183.339844 57.253906 184.3125 57.253906 185.515625 C 57.253906 187.507812 57.136719 189.480469 56.945312 191.441406 C 56.734375 193.589844 56.40625 195.730469 55.960938 197.84375 C 57.285156 198.542969 58.617188 199.222656 59.96875 199.867188 C 60.875 195.914062 61.40625 191.882812 61.554688 187.828125 C 61.558594 187.78125 61.5625 187.734375 61.566406 187.6875 L 148.4375 187.6875 C 148.4375 187.734375 148.441406 187.78125 148.445312 187.828125 C 148.59375 191.882812 149.125 195.914062 150.03125 199.867188 C 151.378906 199.222656 152.714844 198.546875 154.039062 197.84375 C 153.59375 195.730469 153.265625 193.589844 153.054688 191.441406 "/>
</g>
</svg>
