<?xml version="1.0" encoding="UTF-8"?>
<svg xmlns="http://www.w3.org/2000/svg" xmlns:xlink="http://www.w3.org/1999/xlink" width="80pt" height="79pt" viewBox="0 0 80 79" version="1.1">
<g id="surface1">
<path style=" stroke:none;fill-rule:nonzero;fill:rgb(14.117647%,53.72549%,79.215686%);fill-opacity:1;" d="M 2.285156 28.242188 C 2.285156 28.242188 0.390625 26.867188 2.664062 25.035156 L 7.960938 20.273438 C 7.960938 20.273438 9.476562 18.671875 11.078125 20.066406 L 59.9375 57.265625 L 59.9375 75.105469 C 59.9375 75.105469 59.914062 77.90625 56.335938 77.59375 Z M 2.285156 28.242188 "/>
<path style=" stroke:none;fill-rule:nonzero;fill:rgb(6.27451%,43.921569%,70.196078%);fill-opacity:1;" d="M 14.878906 39.738281 L 2.285156 51.25 C 2.285156 51.25 0.992188 52.21875 2.285156 53.949219 L 8.132812 59.296875 C 8.132812 59.296875 9.523438 60.796875 11.574219 59.089844 L 24.925781 48.910156 Z M 14.878906 39.738281 "/>
<path style=" stroke:none;fill-rule:nonzero;fill:rgb(3.137255%,46.666667%,72.54902%);fill-opacity:1;" d="M 36.988281 39.832031 L 60.085938 22.097656 L 59.9375 4.355469 C 59.9375 4.355469 58.949219 0.484375 55.660156 2.5 L 24.925781 30.628906 Z M 36.988281 39.832031 "/>
<path style=" stroke:none;fill-rule:nonzero;fill:rgb(23.529412%,60%,83.137255%);fill-opacity:1;" d="M 56.335938 77.621094 C 57.679688 79 59.304688 78.546875 59.304688 78.546875 L 77.304688 69.628906 C 79.609375 68.050781 79.285156 66.089844 79.285156 66.089844 L 79.285156 12.832031 C 79.285156 10.488281 76.902344 9.679688 76.902344 9.679688 L 61.300781 2.117188 C 57.890625 0 55.660156 2.5 55.660156 2.5 C 55.660156 2.5 58.53125 0.421875 59.9375 4.355469 L 59.9375 74.777344 C 59.9375 75.261719 59.832031 75.738281 59.628906 76.167969 C 59.21875 77 58.328125 77.777344 56.1875 77.453125 Z M 56.335938 77.621094 "/>
</g>
</svg>
