<?xml version="1.0" encoding="UTF-8"?>
<svg xmlns="http://www.w3.org/2000/svg" xmlns:xlink="http://www.w3.org/1999/xlink" width="210pt" height="210pt" viewBox="0 0 210 210" version="1.1">
<g id="surface1">
<path style=" stroke:none;fill-rule:nonzero;fill:rgb(33.72549%,33.72549%,33.72549%);fill-opacity:1;" d="M 12.398438 199.488281 C 6.972656 198.070312 2.628906 194.023438 0.65625 188.554688 L 0 186.691406 L 0 52.554688 L 0.65625 50.6875 C 2.628906 45.179688 6.992188 41.132812 12.480469 39.734375 C 14.113281 39.328125 14.792969 39.308594 32.953125 39.308594 L 51.726562 39.308594 L 65.5 25.089844 C 73.703125 16.613281 79.570312 10.722656 80.039062 10.46875 C 80.800781 10.085938 81.585938 10.066406 104.851562 10.066406 L 128.882812 10.066406 L 129.75 10.554688 C 130.300781 10.851562 135.640625 16.230469 144.222656 25.152344 L 157.828125 39.308594 L 176.835938 39.308594 C 195.207031 39.308594 195.886719 39.328125 197.519531 39.734375 C 203.007812 41.132812 207.371094 45.179688 209.34375 50.6875 L 210 52.554688 L 210 186.691406 L 209.34375 188.554688 C 207.371094 194.066406 203.007812 198.113281 197.519531 199.511719 C 195.84375 199.933594 195.484375 199.933594 104.914062 199.914062 C 15.257812 199.914062 13.964844 199.914062 12.398438 199.488281 Z M 12.398438 199.488281 "/>
<path style=" stroke:none;fill-rule:nonzero;fill:rgb(25.882353%,52.156863%,95.686275%);fill-opacity:1;" d="M 100.867188 173.105469 C 100.527344 173.066406 99.320312 172.917969 98.21875 172.789062 C 83.40625 171.113281 69.125 162.808594 59.886719 150.476562 C 46.597656 132.78125 44.925781 108.496094 55.625 89.234375 C 58.421875 84.210938 61.175781 80.566406 65.246094 76.476562 C 69.972656 71.773438 74.082031 68.804688 80.144531 65.777344 C 91.417969 60.097656 104.363281 58.445312 117.078125 61.050781 C 125.214844 62.722656 134.09375 66.921875 140.8125 72.28125 C 143.144531 74.144531 147.761719 78.765625 149.5625 81.054688 C 155.984375 89.148438 159.949219 98.386719 161.515625 108.878906 C 161.980469 111.90625 162.023438 120.660156 161.621094 123.648438 C 159.800781 136.574219 154.332031 147.679688 145.390625 156.621094 C 136.59375 165.414062 125.746094 170.839844 113.160156 172.726562 C 111.144531 173.042969 102.289062 173.296875 100.867188 173.105469 Z M 183.003906 73.933594 C 182.367188 73.765625 181.371094 73.363281 180.777344 73.042969 C 179.402344 72.324219 177.089844 70.035156 176.371094 68.636719 C 174.738281 65.605469 174.738281 61.75 176.371094 58.71875 C 177.089844 57.34375 179.402344 55.03125 180.777344 54.3125 C 183.808594 52.679688 187.664062 52.679688 190.695312 54.3125 C 192.074219 55.03125 194.382812 57.34375 195.101562 58.71875 C 196.734375 61.75 196.734375 65.605469 195.101562 68.636719 C 194.382812 70.015625 192.074219 72.324219 190.695312 73.042969 C 188.46875 74.230469 185.417969 74.589844 183.003906 73.933594 Z M 183.003906 73.933594 "/>
<path style=" stroke:none;fill-rule:nonzero;fill:rgb(73.333333%,73.333333%,73.333333%);fill-opacity:1;" d="M 100.867188 173.105469 C 100.527344 173.066406 99.320312 172.917969 98.21875 172.789062 C 83.40625 171.113281 69.125 162.808594 59.886719 150.476562 C 46.597656 132.78125 44.925781 108.496094 55.625 89.234375 C 58.421875 84.210938 61.175781 80.566406 65.246094 76.476562 C 69.972656 71.773438 74.082031 68.804688 80.144531 65.777344 C 91.417969 60.097656 104.363281 58.445312 117.078125 61.050781 C 125.214844 62.722656 134.09375 66.921875 140.8125 72.28125 C 143.144531 74.144531 147.761719 78.765625 149.5625 81.054688 C 155.984375 89.148438 159.949219 98.386719 161.515625 108.878906 C 161.980469 111.90625 162.023438 120.660156 161.621094 123.648438 C 159.800781 136.574219 154.332031 147.679688 145.390625 156.621094 C 136.59375 165.414062 125.746094 170.839844 113.160156 172.726562 C 111.144531 173.042969 102.289062 173.296875 100.867188 173.105469 Z M 109.238281 158.824219 C 117.375 157.976562 125.363281 154.691406 131.699219 149.5625 C 133.585938 148.039062 137.144531 144.414062 138.503906 142.613281 C 147.128906 131.320312 149.628906 116.824219 145.242188 103.410156 C 143.101562 96.90625 139.457031 91.121094 134.433594 86.246094 C 130.875 82.8125 127.738281 80.609375 123.394531 78.511719 C 108.941406 71.539062 91.902344 73.320312 79.042969 83.152344 C 77.238281 84.507812 73.617188 88.070312 72.089844 89.953125 C 59.738281 105.253906 59.480469 126.890625 71.496094 142.613281 C 72.855469 144.414062 76.414062 148.039062 78.300781 149.5625 C 86.945312 156.535156 98.324219 159.949219 109.238281 158.824219 Z M 183.003906 73.933594 C 182.367188 73.765625 181.371094 73.363281 180.777344 73.042969 C 179.402344 72.324219 177.089844 70.035156 176.371094 68.636719 C 174.738281 65.605469 174.738281 61.75 176.371094 58.71875 C 177.089844 57.34375 179.402344 55.03125 180.777344 54.3125 C 183.808594 52.679688 187.664062 52.679688 190.695312 54.3125 C 192.074219 55.03125 194.382812 57.34375 195.101562 58.71875 C 196.734375 61.75 196.734375 65.605469 195.101562 68.636719 C 194.382812 70.015625 192.074219 72.324219 190.695312 73.042969 C 188.46875 74.230469 185.417969 74.589844 183.003906 73.933594 Z M 183.003906 73.933594 "/>
<path style=" stroke:none;fill-rule:nonzero;fill:rgb(100%,100%,100%);fill-opacity:1;" d="M 101.121094 173 C 96.355469 172.660156 90.546875 171.433594 86.035156 169.800781 C 80.886719 167.957031 74.507812 164.375 70.035156 160.859375 C 67.980469 159.25 62.617188 153.886719 61.007812 151.832031 C 57.574219 147.464844 53.972656 141.066406 52.148438 136.085938 C 48.1875 125.300781 47.65625 113.242188 50.644531 101.886719 C 51.640625 98.070312 52.617188 95.527344 54.566406 91.523438 C 57.449219 85.632812 60.921875 80.863281 65.734375 76.160156 C 70.4375 71.5625 74.570312 68.617188 80.3125 65.796875 C 84.296875 63.847656 86.839844 62.871094 90.652344 61.875 C 108.03125 57.320312 126.085938 60.964844 140.175781 71.921875 C 142.570312 73.765625 147.253906 78.363281 149.183594 80.738281 C 152.828125 85.207031 156.578125 91.777344 158.484375 97.011719 C 162.449219 107.796875 162.976562 119.855469 159.988281 131.214844 C 158.992188 135.027344 158.019531 137.570312 156.070312 141.574219 C 150.625 152.679688 141.449219 161.855469 130.34375 167.300781 C 126.339844 169.25 123.796875 170.226562 119.980469 171.222656 C 113.582031 172.894531 107.5625 173.46875 101.121094 173 Z M 109.238281 158.824219 C 117.375 157.976562 125.363281 154.691406 131.699219 149.5625 C 133.585938 148.039062 137.144531 144.414062 138.503906 142.613281 C 147.128906 131.320312 149.628906 116.824219 145.242188 103.410156 C 143.101562 96.90625 139.457031 91.121094 134.433594 86.246094 C 130.875 82.8125 127.738281 80.609375 123.394531 78.511719 C 108.941406 71.539062 91.902344 73.320312 79.042969 83.152344 C 77.238281 84.507812 73.617188 88.070312 72.089844 89.953125 C 59.738281 105.253906 59.480469 126.890625 71.496094 142.613281 C 72.855469 144.414062 76.414062 148.039062 78.300781 149.5625 C 86.945312 156.535156 98.324219 159.949219 109.238281 158.824219 Z M 109.238281 158.824219 "/>
</g>
</svg>
