<?xml version="1.0" encoding="UTF-8"?>
<svg xmlns="http://www.w3.org/2000/svg" xmlns:xlink="http://www.w3.org/1999/xlink" width="300pt" height="210pt" viewBox="0 0 300 210" version="1.1">
<g id="surface1">
<path style=" stroke:none;fill-rule:nonzero;fill:rgb(100%,72.54902%,72.54902%);fill-opacity:1;" d="M 107.808594 187.125 L 106.996094 197.902344 L 114.839844 198.730469 L 112.945312 185.746094 Z M 107.808594 187.125 "/>
<path style=" stroke:none;fill-rule:nonzero;fill:rgb(94.901961%,94.901961%,94.901961%);fill-opacity:1;" d="M 68.851562 11.175781 L 90.007812 11.175781 L 90.007812 50.671875 L 68.851562 50.671875 Z M 68.851562 11.175781 "/>
<path style=" stroke:none;fill-rule:nonzero;fill:rgb(94.901961%,94.901961%,94.901961%);fill-opacity:1;" d="M 131.59375 141.335938 L 160.042969 141.335938 L 160.042969 180.832031 L 131.59375 180.832031 Z M 131.59375 141.335938 "/>
<path style=" stroke:none;fill-rule:nonzero;fill:rgb(94.901961%,94.901961%,94.901961%);fill-opacity:1;" d="M 103.628906 80.480469 L 131.835938 80.480469 L 131.835938 123.949219 L 103.628906 123.949219 Z M 103.628906 80.480469 "/>
<path style=" stroke:none;fill-rule:nonzero;fill:rgb(94.901961%,94.901961%,94.901961%);fill-opacity:1;" d="M 131.835938 23.847656 L 160.042969 23.847656 L 160.042969 67.316406 L 131.835938 67.316406 Z M 131.835938 23.847656 "/>
<path style=" stroke:none;fill-rule:nonzero;fill:rgb(18.431373%,18.039216%,25.490196%);fill-opacity:1;" d="M 11.90625 209.324219 L 272.550781 209.324219 L 272.550781 209.941406 L 11.90625 209.941406 Z M 11.90625 209.324219 "/>
<path style=" stroke:none;fill-rule:nonzero;fill:rgb(24.705882%,23.921569%,33.72549%);fill-opacity:1;" d="M 194.847656 181.105469 L 68.582031 181.105469 L 68.582031 10.902344 L 194.847656 10.902344 Z M 69.125 180.554688 L 194.304688 180.554688 L 194.304688 11.453125 L 69.125 11.453125 Z M 69.125 180.554688 "/>
<path style=" stroke:none;fill-rule:nonzero;fill:rgb(24.705882%,23.921569%,33.72549%);fill-opacity:1;" d="M 168.339844 181.105469 L 95.332031 181.105469 L 95.332031 11.148438 L 168.339844 11.148438 Z M 95.871094 180.554688 L 167.800781 180.554688 L 167.800781 11.703125 L 95.871094 11.703125 Z M 95.871094 180.554688 "/>
<path style=" stroke:none;fill-rule:nonzero;fill:rgb(24.705882%,23.921569%,33.72549%);fill-opacity:1;" d="M 194.847656 124.222656 L 68.582031 124.222656 L 68.582031 67.039062 L 194.847656 67.039062 Z M 69.125 123.671875 L 194.304688 123.671875 L 194.304688 67.589844 L 69.125 67.589844 Z M 69.125 123.671875 "/>
<path style=" stroke:none;fill-rule:nonzero;fill:rgb(49.411765%,79.607843%,49.411765%);fill-opacity:1;" d="M 103.628906 67.316406 C 103.628906 71.839844 100.035156 75.511719 95.601562 75.511719 C 91.171875 75.511719 87.578125 71.839844 87.578125 67.316406 C 87.578125 62.789062 91.171875 59.117188 95.601562 59.117188 C 100.035156 59.117188 103.628906 62.789062 103.628906 67.316406 Z M 103.628906 67.316406 "/>
<path style=" stroke:none;fill-rule:nonzero;fill:rgb(49.411765%,79.607843%,49.411765%);fill-opacity:1;" d="M 176.09375 12.171875 C 176.09375 16.699219 172.5 20.367188 168.070312 20.367188 C 163.636719 20.367188 160.042969 16.699219 160.042969 12.171875 C 160.042969 7.644531 163.636719 3.972656 168.070312 3.972656 C 172.5 3.972656 176.09375 7.644531 176.09375 12.171875 Z M 176.09375 12.171875 "/>
<path style=" stroke:none;fill-rule:nonzero;fill:rgb(24.705882%,23.921569%,33.72549%);fill-opacity:1;" d="M 131.445312 11.425781 L 131.984375 11.425781 L 131.984375 180.832031 L 131.445312 180.832031 Z M 131.445312 11.425781 "/>
<path style=" stroke:none;fill-rule:nonzero;fill:rgb(49.411765%,79.607843%,49.411765%);fill-opacity:1;" d="M 223.15625 185.390625 C 227.253906 197.984375 225.816406 209.8125 225.816406 209.8125 C 225.816406 209.8125 217.734375 201.21875 213.636719 188.621094 C 209.539062 176.023438 210.976562 164.199219 210.976562 164.199219 C 210.976562 164.199219 219.058594 172.792969 223.15625 185.390625 Z M 223.15625 185.390625 "/>
<path style=" stroke:none;fill-rule:nonzero;fill:rgb(49.411765%,79.607843%,49.411765%);fill-opacity:1;" d="M 228.476562 185.390625 C 224.378906 197.984375 225.816406 209.8125 225.816406 209.8125 C 225.816406 209.8125 233.898438 201.21875 237.996094 188.621094 C 242.09375 176.023438 240.65625 164.199219 240.65625 164.199219 C 240.65625 164.199219 232.574219 172.792969 228.476562 185.390625 Z M 228.476562 185.390625 "/>
<path style=" stroke:none;fill-rule:nonzero;fill:rgb(24.705882%,23.921569%,33.72549%);fill-opacity:1;" d="M 230.125 185.527344 C 230.398438 198.796875 225.605469 209.664062 225.605469 209.664062 C 225.605469 209.664062 220.367188 199.011719 220.09375 185.742188 C 219.820312 172.472656 224.613281 161.605469 224.613281 161.605469 C 224.613281 161.605469 229.851562 172.253906 230.125 185.527344 Z M 230.125 185.527344 "/>
<path style=" stroke:none;fill-rule:nonzero;fill:rgb(18.431373%,18.039216%,25.490196%);fill-opacity:1;" d="M 80.472656 88.992188 C 87.160156 91.097656 90.726562 98.945312 88.441406 106.527344 L 85.535156 116.15625 L 82.636719 115.246094 L 82.035156 111.148438 L 81.378906 114.847656 L 62.738281 108.980469 L 62.191406 105.257812 L 61.59375 108.621094 L 59.496094 107.960938 L 61.777344 100.398438 C 64.410156 91.675781 72.78125 86.570312 80.472656 88.992188 Z M 80.472656 88.992188 "/>
<path style=" stroke:none;fill-rule:nonzero;fill:rgb(100%,72.54902%,72.54902%);fill-opacity:1;" d="M 70.089844 117.898438 C 68.867188 117.691406 67.617188 118.019531 66.644531 118.804688 C 65.671875 119.589844 65.070312 120.757812 64.988281 122.023438 C 64.871094 123.691406 65.4375 125.648438 67.96875 127.09375 C 73.382812 130.1875 85.121094 136.925781 85.121094 136.925781 L 107.515625 141.320312 C 107.515625 141.320312 118.832031 150.542969 120.25 145.296875 C 121.667969 140.050781 109.511719 136.847656 109.511719 136.847656 L 88.9375 131.460938 L 75.828125 121.773438 C 75.828125 121.773438 73.425781 118.5 70.089844 117.898438 Z M 70.089844 117.898438 "/>
<path style=" stroke:none;fill-rule:nonzero;fill:rgb(100%,72.54902%,72.54902%);fill-opacity:1;" d="M 62.929688 139.390625 L 65.183594 145.867188 L 78.6875 142.523438 L 75.207031 137.71875 Z M 62.929688 139.390625 "/>
<path style=" stroke:none;fill-rule:nonzero;fill:rgb(100%,72.54902%,72.54902%);fill-opacity:1;" d="M 26.816406 200.316406 L 16.582031 199.273438 L 23.746094 192.164062 L 28.859375 195.71875 Z M 26.816406 200.316406 "/>
<path style=" stroke:none;fill-rule:nonzero;fill:rgb(100%,72.54902%,72.54902%);fill-opacity:1;" d="M 86.511719 102.09375 C 86.511719 106.832031 82.75 110.675781 78.109375 110.675781 C 73.46875 110.675781 69.707031 106.832031 69.707031 102.09375 C 69.707031 97.351562 73.46875 93.507812 78.109375 93.507812 C 82.75 93.507812 86.511719 97.351562 86.511719 102.09375 Z M 86.511719 102.09375 "/>
<path style=" stroke:none;fill-rule:nonzero;fill:rgb(100%,72.54902%,72.54902%);fill-opacity:1;" d="M 71.527344 103.4375 C 71.527344 103.4375 66.820312 109.082031 64.363281 109.917969 C 61.90625 110.753906 55.769531 118.695312 58.839844 123.921875 C 61.90625 129.148438 73.164062 122.667969 73.164062 122.667969 L 72.753906 117.441406 C 72.753906 117.441406 77.460938 109.082031 78.484375 108.453125 C 79.503906 107.828125 71.527344 103.4375 71.527344 103.4375 Z M 71.527344 103.4375 "/>
<path style=" stroke:none;fill-rule:nonzero;fill:rgb(34.117647%,35.294118%,53.72549%);fill-opacity:1;" d="M 70.707031 113.53125 C 67.578125 108.71875 60.320312 109.578125 58.519531 115.054688 C 58.488281 115.152344 58.457031 115.25 58.429688 115.351562 C 56.792969 120.996094 59.246094 130.609375 59.246094 130.609375 L 62.929688 141.898438 C 62.929688 141.898438 72.546875 137.296875 79.503906 145.03125 L 78.484375 137.089844 C 78.484375 137.089844 81.347656 130.402344 77.664062 125.59375 C 75.320312 122.535156 73.140625 117.273438 70.707031 113.53125 Z M 70.707031 113.53125 "/>
<path style=" stroke:none;fill-rule:nonzero;fill:rgb(18.431373%,18.039216%,25.490196%);fill-opacity:1;" d="M 79.609375 145.554688 C 79.609375 145.554688 74.695312 138.867188 64.671875 142.835938 L 62.828125 148.0625 C 62.828125 148.0625 52.1875 156.632812 58.121094 169.800781 L 57.714844 189.449219 L 56.078125 195.089844 L 26.40625 192.582031 L 25.382812 202.199219 L 30.703125 202.617188 C 30.703125 202.617188 60.78125 214.738281 65.488281 207.214844 C 70.195312 199.691406 80.015625 170.007812 80.015625 170.007812 L 105.496094 173.90625 C 105.496094 173.90625 104.75 182.050781 105.566406 183.097656 C 106.386719 184.140625 105.976562 188.53125 106.386719 189.367188 C 106.796875 190.203125 106.453125 192.375 106.453125 192.375 L 114.90625 192.089844 L 114.90625 187.910156 C 114.90625 187.910156 115.929688 182.265625 115.929688 180.804688 C 115.929688 179.339844 122.070312 160.113281 111.429688 158.4375 C 100.789062 156.765625 82.472656 153.707031 82.472656 153.707031 Z M 79.609375 145.554688 "/>
<path style=" stroke:none;fill-rule:nonzero;fill:rgb(18.431373%,18.039216%,25.490196%);fill-opacity:1;" d="M 22.3125 198.851562 L 21.902344 201.988281 C 21.902344 201.988281 8.398438 199.269531 5.535156 201.78125 C 2.667969 204.289062 2.667969 205.960938 0.417969 204.289062 C -0.539062 203.578125 0.277344 201.847656 1.535156 200.09375 C 3.523438 197.339844 6.140625 195.121094 9.15625 193.628906 C 12.53125 191.941406 17.199219 189.488281 17.199219 188.820312 C 17.199219 187.777344 20.878906 184.640625 22.3125 186.3125 C 23.746094 187.984375 26.40625 192.582031 26.40625 192.582031 Z M 22.3125 198.851562 "/>
<path style=" stroke:none;fill-rule:nonzero;fill:rgb(18.431373%,18.039216%,25.490196%);fill-opacity:1;" d="M 106.542969 192.929688 C 106.542969 192.929688 103.542969 203.789062 104.636719 204.347656 C 105.726562 204.90625 107.90625 206.574219 111.179688 206.574219 C 113.113281 206.574219 115.996094 207.644531 118.035156 208.519531 C 120.410156 209.558594 122.992188 210.011719 125.566406 209.84375 C 127.285156 209.722656 128.746094 209.3125 128.628906 208.246094 C 128.355469 205.738281 123.175781 205.183594 123.175781 205.183594 L 117.722656 197.941406 C 117.722656 197.941406 116.769531 193.347656 115.949219 193.347656 C 115.503906 193.367188 115.066406 193.21875 114.722656 192.929688 Z M 106.542969 192.929688 "/>
<path style=" stroke:none;fill-rule:nonzero;fill:rgb(100%,72.54902%,72.54902%);fill-opacity:1;" d="M 70.046875 112.882812 C 69.523438 111.523438 68.460938 110.453125 67.125 109.933594 C 65.785156 109.414062 64.296875 109.496094 63.019531 110.164062 C 61.328125 111.035156 59.765625 112.761719 59.863281 116.1875 C 60.066406 123.503906 60.476562 139.390625 60.476562 139.390625 L 69.480469 164.679688 C 69.480469 164.679688 67.226562 181.609375 73.164062 179.9375 C 79.097656 178.265625 75.003906 164.050781 75.003906 164.050781 L 68.046875 140.015625 L 69.683594 120.996094 C 69.683594 120.996094 71.441406 116.621094 70.046875 112.882812 Z M 70.046875 112.882812 "/>
<path style=" stroke:none;fill-rule:nonzero;fill:rgb(18.431373%,18.039216%,25.490196%);fill-opacity:1;" d="M 75.890625 91.6875 C 77.5625 90.441406 79.703125 90.058594 81.691406 90.652344 L 81.925781 90.730469 C 86.511719 92.171875 88.949219 97.578125 87.371094 102.804688 L 85.835938 102.320312 L 86.167969 100.3125 L 85.222656 102.128906 L 76.117188 99.261719 L 75.84375 97.386719 L 75.542969 99.078125 L 73.753906 98.515625 C 71.636719 102.496094 71.558594 107.113281 73.515625 112.375 L 70.464844 111.414062 L 69.921875 107.671875 L 69.320312 111.054688 L 63.5 109.222656 L 64.621094 101.359375 C 66.316406 95.738281 70.949219 91.976562 75.890625 91.6875 Z M 75.890625 91.6875 "/>
<path style=" stroke:none;fill-rule:nonzero;fill:rgb(49.411765%,79.607843%,49.411765%);fill-opacity:1;" d="M 156.398438 123.949219 C 156.398438 137.804688 145.402344 149.035156 131.835938 149.035156 C 118.269531 149.035156 107.273438 137.804688 107.273438 123.949219 C 107.273438 110.09375 118.269531 98.859375 131.835938 98.859375 C 145.402344 98.859375 156.398438 110.09375 156.398438 123.949219 Z M 156.398438 123.949219 "/>
<path style=" stroke:none;fill-rule:nonzero;fill:rgb(24.705882%,23.921569%,33.72549%);fill-opacity:1;" d="M 276.871094 65.585938 L 276.671875 65.070312 L 229.824219 83.9375 L 185.023438 31.597656 L 240.636719 9.199219 L 240.4375 8.683594 L 184.644531 31.15625 L 170.808594 14.992188 L 173.089844 14.082031 C 171.535156 13.867188 169.546875 13.054688 168.109375 12.257812 C 168.691406 13.820312 169.210938 15.941406 169.214844 17.542969 L 170.398438 15.355469 L 184.109375 31.371094 L 99.03125 65.636719 L 98.960938 63.136719 C 98.238281 64.558594 96.824219 66.199219 95.601562 67.316406 C 97.242188 67.28125 99.371094 67.492188 100.847656 68.027344 L 99.230469 66.152344 L 184.488281 31.8125 L 229.289062 84.152344 L 135.265625 122.023438 L 135.195312 119.523438 C 134.472656 120.945312 133.054688 122.582031 131.835938 123.699219 C 133.472656 123.664062 135.605469 123.875 137.082031 124.414062 L 135.460938 122.535156 L 229.667969 84.59375 L 270.449219 132.242188 L 270.855469 131.878906 L 230.199219 84.378906 Z M 276.871094 65.585938 "/>
<path style=" stroke:none;fill-rule:nonzero;fill:rgb(24.705882%,23.921569%,33.72549%);fill-opacity:1;" d="M 253.667969 56.386719 L 299.871094 56.386719 L 299.871094 74.519531 L 253.667969 74.519531 Z M 253.667969 56.386719 "/>
<path style=" stroke:none;fill-rule:nonzero;fill:rgb(94.901961%,94.901961%,94.901961%);fill-opacity:1;" d="M 261.816406 61.230469 L 291.726562 61.230469 L 291.726562 62.71875 L 261.816406 62.71875 Z M 261.816406 61.230469 "/>
<path style=" stroke:none;fill-rule:nonzero;fill:rgb(94.901961%,94.901961%,94.901961%);fill-opacity:1;" d="M 261.816406 64.707031 L 291.726562 64.707031 L 291.726562 66.195312 L 261.816406 66.195312 Z M 261.816406 64.707031 "/>
<path style=" stroke:none;fill-rule:nonzero;fill:rgb(94.901961%,94.901961%,94.901961%);fill-opacity:1;" d="M 261.816406 68.183594 L 291.726562 68.183594 L 291.726562 69.675781 L 261.816406 69.675781 Z M 261.816406 68.183594 "/>
<path style=" stroke:none;fill-rule:nonzero;fill:rgb(24.705882%,23.921569%,33.72549%);fill-opacity:1;" d="M 217.433594 0 L 263.636719 0 L 263.636719 18.132812 L 217.433594 18.132812 Z M 217.433594 0 "/>
<path style=" stroke:none;fill-rule:nonzero;fill:rgb(94.901961%,94.901961%,94.901961%);fill-opacity:1;" d="M 225.582031 4.84375 L 255.492188 4.84375 L 255.492188 6.335938 L 225.582031 6.335938 Z M 225.582031 4.84375 "/>
<path style=" stroke:none;fill-rule:nonzero;fill:rgb(94.901961%,94.901961%,94.901961%);fill-opacity:1;" d="M 225.582031 8.320312 L 255.492188 8.320312 L 255.492188 9.8125 L 225.582031 9.8125 Z M 225.582031 8.320312 "/>
<path style=" stroke:none;fill-rule:nonzero;fill:rgb(94.901961%,94.901961%,94.901961%);fill-opacity:1;" d="M 225.582031 11.796875 L 255.492188 11.796875 L 255.492188 13.289062 L 225.582031 13.289062 Z M 225.582031 11.796875 "/>
<path style=" stroke:none;fill-rule:nonzero;fill:rgb(24.705882%,23.921569%,33.72549%);fill-opacity:1;" d="M 247.589844 122.953125 L 293.792969 122.953125 L 293.792969 141.085938 L 247.589844 141.085938 Z M 247.589844 122.953125 "/>
<path style=" stroke:none;fill-rule:nonzero;fill:rgb(94.901961%,94.901961%,94.901961%);fill-opacity:1;" d="M 255.734375 127.796875 L 285.644531 127.796875 L 285.644531 129.289062 L 255.734375 129.289062 Z M 255.734375 127.796875 "/>
<path style=" stroke:none;fill-rule:nonzero;fill:rgb(94.901961%,94.901961%,94.901961%);fill-opacity:1;" d="M 255.734375 131.277344 L 285.644531 131.277344 L 285.644531 132.765625 L 255.734375 132.765625 Z M 255.734375 131.277344 "/>
<path style=" stroke:none;fill-rule:nonzero;fill:rgb(94.901961%,94.901961%,94.901961%);fill-opacity:1;" d="M 255.734375 134.753906 L 285.644531 134.753906 L 285.644531 136.242188 L 255.734375 136.242188 Z M 255.734375 134.753906 "/>
</g>
</svg>
