<?xml version="1.0" encoding="UTF-8"?>
<svg xmlns="http://www.w3.org/2000/svg" xmlns:xlink="http://www.w3.org/1999/xlink" width="80pt" height="80pt" viewBox="0 0 80 80" version="1.1">
<g id="surface1">
<path style=" stroke:none;fill-rule:nonzero;fill:rgb(23.529412%,35.294118%,60.392157%);fill-opacity:1;" d="M 80 40 C 80 62.089844 62.089844 80 40 80 C 17.910156 80 0 62.089844 0 40 C 0 17.910156 17.910156 0 40 0 C 62.089844 0 80 17.910156 80 40 Z M 80 40 "/>
<path style=" stroke:none;fill-rule:nonzero;fill:rgb(100%,100%,100%);fill-opacity:1;" d="M 53.007812 12.277344 L 44.144531 12.277344 C 38.886719 12.277344 33.039062 14.488281 33.039062 22.113281 C 33.0625 24.769531 33.039062 27.3125 33.039062 30.175781 L 26.953125 30.175781 L 26.953125 39.855469 L 33.226562 39.855469 L 33.226562 67.722656 L 44.75 67.722656 L 44.75 39.671875 L 52.355469 39.671875 L 53.046875 30.148438 L 44.550781 30.148438 C 44.550781 30.148438 44.570312 25.910156 44.550781 24.679688 C 44.550781 21.667969 47.6875 21.839844 47.875 21.839844 C 49.367188 21.839844 52.265625 21.84375 53.011719 21.839844 L 53.011719 12.277344 Z M 53.007812 12.277344 "/>
</g>
</svg>
