<?xml version="1.0" encoding="UTF-8"?>
<svg xmlns="http://www.w3.org/2000/svg" xmlns:xlink="http://www.w3.org/1999/xlink" width="70pt" height="70pt" viewBox="0 0 70 70" version="1.1">
<g id="surface1">
<path style=" stroke:none;fill-rule:nonzero;fill:rgb(0%,0%,0%);fill-opacity:1;" d="M 0 35 C 0 25.339844 3.417969 17.089844 10.253906 10.253906 C 17.089844 3.417969 25.339844 0 35 0 C 44.660156 0 52.910156 3.417969 59.746094 10.253906 C 66.582031 17.089844 70 25.339844 70 35 C 70 44.660156 66.582031 52.910156 59.746094 59.746094 C 52.910156 66.582031 44.660156 70 35 70 C 25.339844 70 17.089844 66.582031 10.253906 59.746094 C 3.417969 52.910156 0 44.660156 0 35 Z M 3.828125 35 C 3.828125 43.566406 6.882812 50.90625 12.988281 57.011719 C 19.09375 63.117188 26.433594 66.171875 35 66.171875 C 43.566406 66.171875 50.90625 63.117188 57.011719 57.011719 C 63.117188 50.90625 66.171875 43.566406 66.171875 35 C 66.171875 26.433594 63.117188 19.09375 57.011719 12.988281 C 50.90625 6.882812 43.566406 3.828125 35 3.828125 C 26.433594 3.828125 19.09375 6.882812 12.988281 12.988281 C 6.882812 19.09375 3.828125 26.433594 3.828125 35 Z M 13.671875 42.519531 C 13.488281 42.335938 13.488281 42.15625 13.671875 41.972656 C 14.035156 41.609375 14.492188 41.472656 15.039062 41.5625 C 15.585938 41.652344 15.90625 41.746094 15.996094 41.835938 C 16.632812 42.109375 17.339844 42.722656 18.113281 43.679688 C 18.890625 44.636719 19.503906 45.300781 19.960938 45.664062 C 22.148438 47.488281 24.382812 47.625 26.660156 46.074219 C 26.84375 45.4375 27.136719 44.890625 27.546875 44.433594 C 27.957031 43.976562 28.347656 43.660156 28.710938 43.476562 C 29.074219 43.292969 29.714844 43.019531 30.625 42.65625 C 27.617188 42.382812 25.179688 41.859375 23.308594 41.082031 C 21.441406 40.308594 19.960938 39.328125 18.867188 38.144531 C 17.410156 36.503906 16.519531 34.363281 16.199219 31.71875 C 15.882812 29.074219 16.085938 26.660156 16.816406 24.472656 C 17.363281 23.105469 18.136719 21.875 19.140625 20.78125 C 18.410156 18.503906 18.546875 15.90625 19.550781 12.988281 C 22.46875 13.171875 25.109375 14.171875 27.480469 15.996094 C 32.039062 14.8125 36.777344 14.765625 41.699219 15.859375 C 42.335938 15.402344 43.316406 14.832031 44.636719 14.148438 C 45.960938 13.464844 47.625 13.078125 49.628906 12.988281 C 49.992188 13.992188 50.242188 15.175781 50.378906 16.542969 C 50.515625 17.910156 50.449219 19.1875 50.175781 20.371094 C 52.273438 22.558594 53.367188 25.476562 53.457031 29.121094 C 53.457031 32.039062 52.957031 34.453125 51.953125 36.367188 C 50.949219 38.28125 49.171875 39.875 46.621094 41.152344 C 44.890625 41.972656 42.609375 42.472656 39.785156 42.65625 C 41.0625 43.292969 41.996094 43.953125 42.585938 44.636719 C 43.179688 45.320312 43.566406 46.394531 43.75 47.851562 L 43.75 52.15625 L 43.886719 56.328125 C 44.160156 56.785156 44.480469 57.171875 44.84375 57.488281 C 45.207031 57.808594 45.527344 58.035156 45.800781 58.171875 C 46.074219 58.308594 46.164062 58.515625 46.074219 58.789062 C 45.984375 59.0625 45.617188 59.199219 44.980469 59.199219 C 43.429688 59.199219 42.199219 58.652344 41.289062 57.558594 C 41.015625 57.101562 40.878906 56.554688 40.878906 55.917969 L 40.878906 49.355469 C 40.878906 48.625 40.695312 48.101562 40.332031 47.78125 C 39.96875 47.464844 39.601562 47.257812 39.238281 47.167969 L 39.238281 55.78125 C 39.238281 57.332031 39.421875 58.332031 39.785156 58.789062 C 40.148438 59.246094 40.378906 59.699219 40.46875 60.15625 C 40.558594 60.246094 40.492188 60.316406 40.261719 60.359375 C 40.035156 60.40625 39.648438 60.339844 39.101562 60.15625 C 37.917969 59.882812 37.097656 59.265625 36.640625 58.308594 C 36.183594 57.351562 35.957031 56.328125 35.957031 55.234375 L 35.957031 46.757812 L 34.179688 46.757812 L 34.179688 55.234375 C 34.179688 56.328125 33.953125 57.375 33.496094 58.378906 C 32.859375 59.65625 31.671875 60.339844 29.941406 60.429688 C 29.667969 60.339844 29.53125 60.246094 29.53125 60.15625 C 29.621094 60.066406 29.894531 59.609375 30.351562 58.789062 C 30.441406 58.605469 30.558594 58.242188 30.695312 57.695312 C 30.832031 57.148438 30.898438 56.511719 30.898438 55.78125 L 30.898438 47.167969 C 30.535156 47.257812 30.191406 47.464844 29.875 47.78125 C 29.554688 48.101562 29.394531 48.625 29.394531 49.355469 L 29.394531 55.917969 C 29.394531 56.554688 29.257812 57.101562 28.984375 57.558594 C 28.164062 58.652344 26.933594 59.199219 25.292969 59.199219 C 24.65625 59.199219 24.289062 59.0625 24.199219 58.789062 C 24.109375 58.605469 24.132812 58.449219 24.269531 58.3125 C 24.40625 58.175781 24.609375 58.015625 24.882812 57.832031 C 25.15625 57.648438 25.339844 57.511719 25.429688 57.421875 C 25.792969 57.148438 26.066406 56.785156 26.25 56.328125 C 26.523438 55.964844 26.59375 55.007812 26.457031 53.457031 C 26.320312 51.90625 26.296875 50.90625 26.386719 50.449219 C 24.015625 51.269531 21.601562 50.859375 19.140625 49.21875 C 18.410156 48.488281 17.683594 47.441406 16.953125 46.074219 C 16.40625 45.070312 15.3125 43.886719 13.671875 42.519531 Z M 13.671875 42.519531 "/>
</g>
</svg>
