<?xml version="1.0" encoding="UTF-8"?>
<svg xmlns="http://www.w3.org/2000/svg" xmlns:xlink="http://www.w3.org/1999/xlink" width="300pt" height="210pt" viewBox="0 0 300 210" version="1.1">
<g id="surface1">
<rect x="0" y="0" width="300" height="210" style="fill:rgb(63.529412%,27.45098%,53.72549%);fill-opacity:1;stroke:none;"/>
<path style=" stroke:none;fill-rule:nonzero;fill:rgb(100%,100%,100%);fill-opacity:1;" d="M 62.328125 87.824219 C 66.125 87.824219 69.710938 88.53125 73.082031 89.941406 C 76.453125 91.351562 79.417969 93.253906 81.980469 95.640625 C 84.535156 98.027344 86.570312 100.8125 88.082031 103.996094 C 89.59375 107.179688 90.351562 110.582031 90.351562 114.199219 C 90.351562 117.816406 89.613281 121.199219 88.140625 124.34375 C 86.667969 127.492188 84.671875 130.257812 82.152344 132.648438 C 79.632812 135.035156 76.667969 136.917969 73.257812 138.289062 C 69.84375 139.667969 66.164062 140.351562 62.210938 140.351562 C 58.332031 140.351562 54.691406 139.703125 51.28125 138.398438 C 47.867188 137.097656 44.886719 135.269531 42.328125 132.917969 C 39.769531 130.570312 37.753906 127.800781 36.28125 124.617188 C 34.808594 121.433594 34.070312 117.960938 34.070312 114.199219 C 34.070312 110.582031 34.785156 107.199219 36.222656 104.050781 C 37.65625 100.902344 39.652344 98.152344 42.210938 95.800781 C 44.769531 93.453125 47.773438 91.570312 51.222656 90.160156 C 54.671875 88.75 58.375 87.972656 62.328125 87.824219 Z M 62.210938 98.570312 C 59.960938 98.570312 57.808594 98.96875 55.757812 99.761719 C 53.703125 100.5625 51.921875 101.664062 50.40625 103.074219 C 48.898438 104.484375 47.695312 106.132812 46.804688 108.011719 C 45.910156 109.894531 45.464844 111.957031 45.464844 114.199219 C 45.464844 116.296875 45.910156 118.304688 46.804688 120.222656 C 47.695312 122.140625 48.898438 123.820312 50.40625 125.269531 C 51.917969 126.714844 53.703125 127.855469 55.757812 128.6875 C 57.808594 129.519531 59.960938 129.933594 62.210938 129.933594 C 64.429688 129.941406 66.628906 129.515625 68.664062 128.6875 C 70.71875 127.855469 72.5 126.714844 74.011719 125.269531 C 75.523438 123.820312 76.726562 122.140625 77.617188 120.222656 C 78.503906 118.320312 78.960938 116.269531 78.953125 114.199219 C 78.722656 109.929688 77.09375 106.328125 74.070312 103.398438 C 71.046875 100.46875 67.132812 98.859375 62.328125 98.570312 Z M 143.257812 71.113281 C 144.574219 71.042969 145.816406 71.527344 146.976562 72.578125 C 148.140625 73.628906 148.722656 74.765625 148.722656 75.996094 L 148.722656 114.089844 C 148.722656 117.636719 147.945312 121 146.398438 124.183594 C 144.84375 127.367188 142.753906 130.152344 140.117188 132.539062 C 137.480469 134.925781 134.476562 136.828125 131.105469 138.238281 C 127.734375 139.648438 124.1875 140.351562 120.464844 140.351562 C 116.667969 140.351562 113.0625 139.667969 109.652344 138.289062 C 106.238281 136.917969 103.257812 135.035156 100.699219 132.648438 C 98.140625 130.261719 96.105469 127.476562 94.59375 124.289062 C 93.082031 121.109375 92.328125 117.707031 92.328125 114.089844 C 92.328125 110.183594 93.003906 106.746094 94.363281 103.777344 C 95.71875 100.8125 97.753906 98.027344 100.464844 95.421875 L 100.464844 95.53125 C 103.332031 93 106.492188 91.082031 109.941406 89.777344 C 113.390625 88.476562 116.9375 87.824219 120.582031 87.824219 C 122.75 87.824219 125.328125 88.152344 128.316406 88.800781 C 131.296875 89.453125 134.261719 90.71875 137.210938 92.601562 L 137.210938 76.539062 C 137.210938 75.816406 137.363281 75.128906 137.675781 74.476562 C 137.984375 73.824219 138.394531 73.222656 138.898438 72.6875 C 139.390625 72.148438 140.007812 71.722656 140.699219 71.4375 C 141.394531 71.148438 142.09375 71.042969 142.792969 71.113281 Z M 137.210938 114.089844 C 137.210938 112.136719 136.761719 110.21875 135.875 108.335938 C 134.988281 106.464844 133.746094 104.753906 132.210938 103.289062 C 130.675781 101.816406 128.859375 100.621094 126.859375 99.761719 C 124.84375 98.894531 122.714844 98.460938 120.464844 98.460938 C 118.246094 98.457031 116.046875 98.878906 114.011719 99.707031 C 111.957031 100.542969 110.175781 101.660156 108.664062 103.074219 C 107.152344 104.484375 105.949219 106.148438 105.058594 108.066406 C 104.167969 109.984375 103.722656 111.992188 103.722656 114.089844 C 103.722656 116.257812 104.167969 118.285156 105.058594 120.167969 C 105.949219 122.046875 107.152344 123.691406 108.664062 125.105469 C 110.175781 126.515625 111.957031 127.636719 114.011719 128.46875 C 116.066406 129.300781 118.214844 129.714844 120.464844 129.714844 C 122.714844 129.714844 124.84375 129.300781 126.859375 128.46875 C 128.875 127.636719 130.660156 126.515625 132.210938 125.105469 C 133.761719 123.691406 134.980469 122.046875 135.875 120.167969 C 136.761719 118.285156 137.210938 116.261719 137.210938 114.089844 Z M 180.234375 87.824219 C 184.03125 87.824219 187.617188 88.53125 190.988281 89.941406 C 194.363281 91.351562 197.328125 93.253906 199.886719 95.640625 C 202.445312 98.027344 204.476562 100.8125 205.988281 103.996094 C 207.5 107.179688 208.257812 110.582031 208.257812 114.199219 C 208.257812 117.816406 207.519531 121.199219 206.046875 124.34375 C 204.574219 127.492188 202.578125 130.257812 200.058594 132.648438 C 197.539062 135.035156 194.574219 136.917969 191.164062 138.289062 C 187.75 139.667969 184.070312 140.351562 180.117188 140.351562 C 176.238281 140.351562 172.597656 139.703125 169.1875 138.398438 C 165.773438 137.097656 162.792969 135.269531 160.234375 132.917969 C 157.675781 130.570312 155.660156 127.800781 154.1875 124.617188 C 152.714844 121.433594 151.976562 117.960938 151.976562 114.199219 C 151.976562 110.582031 152.691406 107.199219 154.128906 104.050781 C 155.5625 100.902344 157.558594 98.152344 160.117188 95.800781 C 162.675781 93.453125 165.679688 91.570312 169.128906 90.160156 C 172.578125 88.75 176.28125 87.972656 180.234375 87.824219 Z M 180.117188 98.570312 C 177.867188 98.570312 175.71875 98.96875 173.664062 99.761719 C 171.609375 100.5625 169.828125 101.664062 168.316406 103.074219 C 166.804688 104.484375 165.601562 106.132812 164.710938 108.011719 C 163.820312 109.894531 163.375 111.957031 163.375 114.199219 C 163.375 116.296875 163.820312 118.304688 164.710938 120.222656 C 165.601562 122.140625 166.804688 123.820312 168.316406 125.269531 C 169.828125 126.714844 171.609375 127.855469 173.664062 128.6875 C 175.71875 129.519531 177.867188 129.933594 180.117188 129.933594 C 182.339844 129.941406 184.535156 129.515625 186.570312 128.6875 C 188.625 127.855469 190.40625 126.714844 191.921875 125.269531 C 193.433594 123.820312 194.632812 122.140625 195.523438 120.222656 C 196.410156 118.320312 196.867188 116.269531 196.863281 114.199219 C 196.628906 109.929688 195 106.328125 191.976562 103.398438 C 188.953125 100.46875 185.039062 98.859375 180.234375 98.570312 Z M 239.304688 87.824219 C 243.101562 87.824219 246.6875 88.53125 250.058594 89.941406 C 253.429688 91.351562 256.394531 93.253906 258.957031 95.640625 C 261.511719 98.027344 263.546875 100.8125 265.058594 103.996094 C 266.570312 107.179688 267.328125 110.582031 267.328125 114.199219 C 267.328125 117.816406 266.589844 121.199219 265.117188 124.34375 C 263.644531 127.492188 261.648438 130.257812 259.128906 132.648438 C 256.609375 135.035156 253.644531 136.917969 250.234375 138.289062 C 246.820312 139.667969 243.140625 140.351562 239.1875 140.351562 C 235.308594 140.351562 231.667969 139.703125 228.257812 138.398438 C 224.84375 137.097656 221.859375 135.269531 219.304688 132.917969 C 216.746094 130.570312 214.726562 127.800781 213.257812 124.617188 C 211.78125 121.433594 211.046875 117.960938 211.046875 114.199219 C 211.046875 110.582031 211.761719 107.199219 213.199219 104.050781 C 214.632812 100.902344 216.628906 98.152344 219.1875 95.800781 C 221.746094 93.453125 224.746094 91.570312 228.199219 90.160156 C 231.648438 88.75 235.351562 87.972656 239.304688 87.824219 Z M 239.1875 98.570312 C 236.9375 98.570312 234.785156 98.96875 232.734375 99.761719 C 230.679688 100.5625 228.898438 101.664062 227.382812 103.074219 C 225.871094 104.484375 224.671875 106.132812 223.78125 108.011719 C 222.886719 109.894531 222.441406 111.957031 222.441406 114.199219 C 222.441406 116.296875 222.886719 118.304688 223.78125 120.222656 C 224.671875 122.140625 225.871094 123.820312 227.382812 125.269531 C 228.894531 126.714844 230.679688 127.855469 232.734375 128.6875 C 234.785156 129.519531 236.9375 129.933594 239.1875 129.933594 C 241.40625 129.941406 243.605469 129.515625 245.640625 128.6875 C 247.695312 127.855469 249.476562 126.714844 250.988281 125.269531 C 252.5 123.820312 253.703125 122.140625 254.59375 120.222656 C 255.480469 118.320312 255.9375 116.269531 255.929688 114.199219 C 255.699219 109.929688 254.070312 106.328125 251.046875 103.398438 C 248.023438 100.46875 244.109375 98.859375 239.304688 98.570312 Z M 239.1875 98.570312 "/>
</g>
</svg>
