<?xml version="1.0" encoding="UTF-8"?>
<svg xmlns="http://www.w3.org/2000/svg" xmlns:xlink="http://www.w3.org/1999/xlink" width="210pt" height="210pt" viewBox="0 0 210 210" version="1.1">
<g id="surface1">
<path style=" stroke:none;fill-rule:nonzero;fill:rgb(0.392157%,0.392157%,0.392157%);fill-opacity:1;" d="M 79.117188 6.054688 C 105.585938 -0.734375 134.839844 3.222656 158.183594 17.628906 C 187.582031 35.210938 206.777344 68.46875 207.265625 102.703125 C 208.339844 137.28125 190.316406 171.566406 161.359375 190.367188 C 129.125 212.050781 84.539062 212.882812 51.621094 192.273438 C 18.070312 172.25 -1.515625 131.859375 3.515625 93.082031 C 7.570312 52.109375 39.214844 15.96875 79.117188 6.054688 Z M 79.117188 6.054688 "/>
<path style=" stroke:none;fill-rule:nonzero;fill:rgb(100%,100%,100%);fill-opacity:1;" d="M 75.0625 22.808594 C 125.070312 2.785156 186.410156 39.753906 191.589844 93.378906 C 199.648438 141.628906 159.601562 190.660156 110.714844 192.078125 C 64.21875 196.714844 19.289062 157.304688 17.972656 110.617188 C 14.503906 72.816406 39.410156 35.308594 75.0625 22.808594 Z M 75.0625 22.808594 "/>
<path style=" stroke:none;fill-rule:nonzero;fill:rgb(0.392157%,0.392157%,0.392157%);fill-opacity:1;" d="M 80.09375 99.824219 C 102.507812 81.507812 124.4375 62.558594 147.34375 44.785156 C 135.328125 63.246094 122.972656 81.460938 110.957031 99.921875 C 100.652344 99.96875 90.347656 99.96875 80.09375 99.824219 Z M 99.042969 110.03125 C 109.394531 110.03125 119.699219 110.03125 130.003906 110.175781 C 107.441406 128.394531 85.613281 147.488281 62.65625 165.214844 C 74.671875 146.753906 87.027344 128.492188 99.042969 110.03125 Z M 99.042969 110.03125 "/>
</g>
</svg>
