<?xml version="1.0" encoding="UTF-8"?>
<svg xmlns="http://www.w3.org/2000/svg" xmlns:xlink="http://www.w3.org/1999/xlink" width="197pt" height="209pt" viewBox="0 0 197 209" version="1.1">
<g id="surface1">
<path style=" stroke:none;fill-rule:nonzero;fill:rgb(0%,0%,0%);fill-opacity:1;" d="M 70.394531 6.5625 C 38.308594 8.929688 11.035156 11.105469 9.75 11.359375 C 6.15625 12 2.886719 14.429688 1.347656 17.628906 L 0 20.445312 L 0.128906 87.550781 L 0.320312 154.652344 L 2.375 158.8125 C 3.53125 161.113281 11.359375 171.863281 19.894531 182.925781 C 36.769531 204.738281 37.988281 205.957031 44.40625 206.597656 C 46.265625 206.785156 60.253906 206.148438 75.402344 205.253906 C 90.609375 204.292969 114.992188 202.820312 129.625 201.992188 C 192.125 198.210938 188.917969 198.53125 192.507812 195.460938 C 197 191.75 196.679688 197.824219 196.871094 116.269531 C 197 47.117188 196.933594 42.578125 195.910156 40.464844 C 194.691406 38.101562 192.507812 36.4375 164.015625 16.476562 C 144.957031 3.171875 143.609375 2.46875 135.070312 2.339844 C 131.546875 2.214844 102.410156 4.132812 70.394531 6.5625 Z M 142.519531 15.324219 C 145.214844 16.539062 164.917969 30.226562 167.800781 32.851562 C 168.574219 33.621094 168.828125 34.261719 168.441406 34.644531 C 167.546875 35.414062 45.617188 42.644531 42.089844 42.128906 C 40.488281 41.875 38.113281 40.914062 36.765625 40.015625 C 31.183594 36.242188 17.324219 24.921875 17.324219 24.089844 C 17.324219 21.914062 16.875 21.914062 71.230469 18.015625 C 81.625 17.3125 98.695312 16.03125 109.09375 15.199219 C 131.609375 13.40625 138.351562 13.472656 142.519531 15.324219 Z M 181.277344 50.316406 C 182.175781 51.210938 182.945312 52.9375 183.203125 54.601562 C 183.394531 56.136719 183.523438 84.796875 183.394531 118.183594 C 183.203125 175.5 183.136719 179.082031 182.046875 180.746094 C 181.40625 181.769531 180.121094 182.859375 179.15625 183.175781 C 176.464844 184.265625 48.703125 191.496094 46.074219 190.726562 C 44.855469 190.40625 43.183594 189.382812 42.285156 188.488281 L 40.742188 186.828125 L 40.554688 125.035156 C 40.421875 81.664062 40.554688 62.472656 41.070312 60.746094 C 41.453125 59.46875 42.417969 57.929688 43.253906 57.421875 C 44.410156 56.652344 51.980469 56.011719 78.035156 54.480469 C 96.324219 53.457031 124.621094 51.730469 140.859375 50.769531 C 179.480469 48.398438 179.355469 48.398438 181.277344 50.316406 Z M 181.277344 50.316406 "/>
<path style=" stroke:none;fill-rule:nonzero;fill:rgb(0%,0%,0%);fill-opacity:1;" d="M 146.945312 71.488281 C 140.015625 71.9375 133.855469 72.578125 133.148438 72.960938 C 131.03125 74.050781 129.746094 75.84375 129.492188 77.890625 C 129.300781 80 129.941406 80.257812 136.871094 81.089844 L 139.886719 81.472656 L 139.886719 108.789062 C 139.886719 125.035156 139.628906 135.78125 139.308594 135.464844 C 138.988281 135.078125 129.878906 121.265625 119.03125 104.757812 C 108.1875 88.191406 99.203125 74.566406 99.070312 74.4375 C 98.941406 74.308594 91.886719 74.695312 83.414062 75.273438 C 73.019531 75.976562 67.308594 76.617188 66.152344 77.253906 C 64.289062 78.214844 62.234375 81.601562 62.234375 83.84375 C 62.234375 85.1875 64.675781 85.890625 69.808594 85.890625 L 72.503906 85.890625 L 72.503906 164.445312 L 68.140625 165.785156 C 64.738281 166.808594 63.582031 167.449219 63.007812 168.726562 C 61.980469 170.902344 62.046875 172.886719 63.070312 172.886719 C 63.457031 172.886719 70.710938 172.4375 79.050781 171.925781 C 95.542969 170.96875 97.398438 170.519531 99.132812 167.128906 C 99.648438 166.105469 100.09375 165.019531 100.09375 164.699219 C 100.09375 164.445312 97.851562 163.675781 95.152344 163.035156 C 92.390625 162.398438 89.632812 161.757812 89.054688 161.628906 C 87.964844 161.308594 87.898438 159.328125 87.898438 131.816406 L 87.898438 102.328125 L 107.40625 132.839844 C 127.878906 164.824219 130.445312 168.472656 133.589844 170.070312 C 137.507812 172.117188 147.453125 170.710938 152.457031 167.449219 L 154 166.492188 L 154.128906 122.867188 L 154.320312 79.175781 L 157.722656 78.535156 C 161.761719 77.769531 163.625 75.914062 163.625 72.714844 C 163.625 70.667969 163.496094 70.539062 161.570312 70.605469 C 160.421875 70.65625 153.8125 71.042969 146.945312 71.488281 Z M 146.945312 71.488281 "/>
</g>
</svg>
